<svg width="203" height="186" viewBox="0 0 203 186" fill="none" xmlns="http://www.w3.org/2000/svg">
<path d="M175.259 181.367C175.259 183.393 158.235 185.027 133.286 185.027C108.338 185.027 34.2998 183.691 34.2998 181.673C34.2998 179.656 105.239 177.724 130.154 177.724C155.069 177.724 175.259 179.349 175.259 181.367Z" fill="#D1D3D4"/>
<path d="M34.2998 181.673H122.91C123.681 181.682 124.445 181.531 125.154 181.231C125.864 180.93 126.504 180.486 127.034 179.927C127.564 179.367 127.972 178.704 128.234 177.98C128.495 177.255 128.604 176.484 128.554 175.715L119.684 6.68243C119.585 5.08023 118.883 3.57494 117.719 2.46945C116.555 1.36396 115.016 0.740313 113.411 0.723996H24.7748C24.0046 0.715213 23.2409 0.865865 22.5318 1.16648C21.8226 1.46709 21.1833 1.91116 20.6541 2.47078C20.1249 3.03039 19.7171 3.69344 19.4565 4.41825C19.1959 5.14306 19.0881 5.91394 19.1398 6.68243L28.0349 175.715C28.1317 177.316 28.832 178.821 29.9945 179.927C31.157 181.033 32.6955 181.657 34.2998 181.673Z" fill="#231F20"/>
<path d="M122.91 182.039H34.2997C32.601 182.021 30.9721 181.361 29.7404 180.19C28.5087 179.02 27.7656 177.427 27.6603 175.732L18.7652 6.69951C18.7137 5.88179 18.8313 5.06223 19.1108 4.29203C19.3903 3.52184 19.8257 2.81757 20.3897 2.22322C20.9537 1.62888 21.6342 1.15724 22.3887 0.83778C23.1432 0.518318 23.9554 0.357897 24.7747 0.366543H113.385C115.084 0.386623 116.713 1.04753 117.946 2.21703C119.178 3.38653 119.924 4.97835 120.033 6.67397L128.928 175.715C128.981 176.534 128.864 177.355 128.585 178.127C128.305 178.899 127.869 179.605 127.304 180.2C126.739 180.795 126.057 181.268 125.301 181.587C124.545 181.906 123.731 182.066 122.91 182.056V182.039ZM24.7747 1.09858C24.0563 1.09119 23.3441 1.23223 22.6828 1.51288C22.0214 1.79353 21.4251 2.20774 20.9313 2.72955C20.4374 3.25136 20.0567 3.86954 19.8128 4.54534C19.569 5.22115 19.4674 5.94003 19.5143 6.65695L28.4094 175.715C28.5019 177.219 29.161 178.633 30.254 179.67C31.347 180.708 32.7926 181.293 34.2997 181.307H122.91C123.628 181.315 124.34 181.175 125.001 180.897C125.663 180.619 126.261 180.208 126.758 179.69C127.257 179.161 127.642 178.535 127.889 177.852C128.137 177.168 128.241 176.441 128.196 175.715L119.284 6.69951C119.194 5.19224 118.534 3.77557 117.439 2.73586C116.344 1.69615 114.895 1.11096 113.385 1.09858H24.7747Z" fill="#231F20"/>
<path d="M40.8456 181.367H129.465C130.234 181.375 130.997 181.223 131.706 180.922C132.415 180.621 133.053 180.177 133.582 179.618C134.111 179.058 134.519 178.396 134.78 177.671C135.041 176.947 135.15 176.177 135.1 175.409L126.204 6.37627C126.108 4.77482 125.407 3.26959 124.245 2.16391C123.082 1.05823 121.544 0.434294 119.94 0.417836H31.3291C30.5585 0.409144 29.7945 0.559783 29.085 0.860308C28.3754 1.16083 27.7356 1.60476 27.2057 2.16423C26.6758 2.7237 26.2673 3.38664 26.0057 4.11146C25.7441 4.83628 25.6351 5.60735 25.6856 6.37627L34.5637 175.417C34.6628 177.02 35.3663 178.526 36.5323 179.63C37.6982 180.734 39.2397 181.355 40.8456 181.367Z" fill="white"/>
<path d="M129.464 181.792H40.8454C39.1355 181.766 37.4981 181.098 36.2585 179.919C35.0189 178.741 34.268 177.14 34.1549 175.434L25.2598 6.4014C25.207 5.57516 25.3253 4.74692 25.6073 3.9685C25.8893 3.19007 26.3288 2.47819 26.8985 1.87739C27.4681 1.27659 28.1556 0.799789 28.9179 0.476811C29.6802 0.153833 30.501 -0.00837497 31.3289 0.000332906H119.939C121.644 0.0258445 123.277 0.68965 124.515 1.86061C125.754 3.03157 126.509 4.62453 126.63 6.32479L135.525 175.357C135.578 176.183 135.46 177.01 135.178 177.788C134.897 178.566 134.458 179.277 133.889 179.878C133.32 180.479 132.634 180.956 131.873 181.279C131.111 181.603 130.292 181.766 129.464 181.758V181.792ZM31.3289 0.851538C30.6199 0.84453 29.917 0.98329 29.2638 1.25921C28.6106 1.53513 28.0211 1.94233 27.5319 2.45553C27.0426 2.96874 26.664 3.57701 26.4196 4.2426C26.1752 4.90819 26.0701 5.61691 26.111 6.32479L35.0061 175.357C35.1081 176.845 35.7646 178.241 36.8457 179.268C37.9268 180.296 39.354 180.881 40.8454 180.907H129.464C130.176 180.916 130.883 180.777 131.538 180.499C132.194 180.222 132.785 179.811 133.275 179.294C133.764 178.776 134.141 178.163 134.382 177.493C134.623 176.823 134.722 176.11 134.674 175.4L125.779 6.4014C125.677 4.91334 125.02 3.51768 123.939 2.49013C122.858 1.46258 121.431 0.877875 119.939 0.851538H31.3289Z" fill="#231F20"/>
<path d="M122.749 170.744H46.5487C45.1716 170.727 43.8512 170.193 42.8509 169.246C41.8507 168.299 41.244 167.011 41.152 165.636L33.3209 16.8542C33.2788 16.1867 33.3747 15.5176 33.6026 14.8887C33.8305 14.2598 34.1856 13.6846 34.6456 13.199C35.1056 12.7135 35.6608 12.3279 36.2764 12.0663C36.8921 11.8048 37.555 11.6729 38.2239 11.6789H114.415C115.793 11.695 117.115 12.2294 118.116 13.1759C119.118 14.1223 119.726 15.4113 119.82 16.7861L127.643 165.568C127.688 166.236 127.594 166.905 127.367 167.535C127.141 168.164 126.787 168.74 126.327 169.226C125.867 169.712 125.312 170.098 124.696 170.359C124.081 170.62 123.417 170.751 122.749 170.744ZM38.2239 12.5046C37.6719 12.4981 37.1245 12.6059 36.6162 12.8212C36.1078 13.0366 35.6496 13.3548 35.2702 13.7558C34.8896 14.159 34.5958 14.6359 34.4069 15.1571C34.218 15.6783 34.1381 16.2328 34.1721 16.7861L42.0033 165.568C42.0742 166.73 42.5824 167.822 43.4257 168.624C44.269 169.426 45.3848 169.88 46.5487 169.892H122.749C123.299 169.897 123.845 169.788 124.352 169.573C124.859 169.358 125.317 169.041 125.697 168.642C126.077 168.244 126.37 167.771 126.56 167.254C126.75 166.737 126.832 166.186 126.8 165.636L118.969 16.8542C118.894 15.6924 118.384 14.6017 117.539 13.8C116.695 12.9984 115.579 12.5449 114.415 12.5301L38.2239 12.5046Z" fill="#D1D3D4"/>
<path d="M90.6411 7.17591H73.9915C73.8786 7.17591 73.7704 7.13107 73.6906 7.05126C73.6108 6.97144 73.5659 6.86319 73.5659 6.75031C73.5659 6.63743 73.6108 6.52918 73.6906 6.44936C73.7704 6.36955 73.8786 6.32471 73.9915 6.32471H90.6411C90.754 6.32471 90.8622 6.36955 90.942 6.44936C91.0219 6.52918 91.0667 6.63743 91.0667 6.75031C91.0667 6.86319 91.0219 6.97144 90.942 7.05126C90.8622 7.13107 90.754 7.17591 90.6411 7.17591Z" fill="#D1D3D4"/>
<path d="M71.523 7.17591H68.6119C68.499 7.17591 68.3908 7.13107 68.3109 7.05126C68.2311 6.97144 68.1863 6.86319 68.1863 6.75031C68.1863 6.63743 68.2311 6.52918 68.3109 6.44936C68.3908 6.36955 68.499 6.32471 68.6119 6.32471H71.523C71.6359 6.32471 71.7441 6.36955 71.824 6.44936C71.9038 6.52918 71.9486 6.63743 71.9486 6.75031C71.9486 6.86319 71.9038 6.97144 71.824 7.05126C71.7441 7.13107 71.6359 7.17591 71.523 7.17591Z" fill="#D1D3D4"/>
<path d="M23.9065 41.1051C23.798 41.1053 23.6934 41.064 23.6143 40.9896C23.5352 40.9153 23.4875 40.8135 23.4809 40.7051L22.5616 23.2298C22.557 23.1161 22.5972 23.005 22.6736 22.9206C22.7501 22.8363 22.8566 22.7853 22.9702 22.7787C23.0261 22.7764 23.0819 22.7852 23.1344 22.8045C23.187 22.8238 23.2351 22.8532 23.2762 22.8912C23.3174 22.9291 23.3506 22.9748 23.374 23.0256C23.3975 23.0764 23.4107 23.1313 23.4128 23.1872L24.3492 40.6625C24.3526 40.718 24.3449 40.7736 24.3266 40.8261C24.3082 40.8785 24.2796 40.9268 24.2423 40.968C24.2051 41.0093 24.1599 41.0426 24.1096 41.0662C24.0592 41.0897 24.0047 41.103 23.9491 41.1051H23.9065Z" fill="#D1D3D4"/>
<path d="M57.759 29.8691H48.3446L33.0229 11.5171H42.4288L57.759 29.8691Z" fill="white"/>
<path d="M57.7588 30.2521H48.3445C48.2881 30.2512 48.2326 30.2386 48.1813 30.2152C48.13 30.1918 48.0841 30.158 48.0466 30.1159L32.7249 11.7639C32.6774 11.7083 32.6472 11.6399 32.6381 11.5673C32.6291 11.4947 32.6415 11.421 32.6738 11.3554C32.7035 11.2874 32.7523 11.2295 32.8142 11.1887C32.8762 11.1479 32.9486 11.1259 33.0228 11.1255H42.4286C42.4862 11.1245 42.5431 11.1371 42.5949 11.1623C42.6466 11.1874 42.6917 11.2244 42.7265 11.2702L58.0482 29.6137C58.0955 29.6712 58.1254 29.741 58.1345 29.8148C58.1435 29.8887 58.1313 29.9636 58.0993 30.0308C58.069 30.0959 58.021 30.1512 57.9608 30.1903C57.9006 30.2294 57.8306 30.2509 57.7588 30.2521ZM48.5318 29.4775H56.9246L42.2243 11.9087H33.8314L48.5318 29.4775Z" fill="#231F20"/>
<path d="M57.7591 29.8691H48.3447L48.6512 34.5337C48.736 35.6783 49.246 36.7497 50.0809 37.5373C50.9157 38.3249 52.015 38.7717 53.1626 38.7898H54.1414C54.6888 38.7979 55.2318 38.691 55.7352 38.4758C56.2386 38.2607 56.6911 37.9421 57.0635 37.5408C57.4359 37.1396 57.7198 36.6645 57.8968 36.1465C58.0738 35.6284 58.14 35.079 58.091 34.5337L57.7591 29.8691Z" fill="white"/>
<path d="M54.1413 39.1558H53.188C51.9464 39.1363 50.7567 38.6544 49.8516 37.8043C48.9464 36.9543 48.3909 35.7972 48.2935 34.5592L47.9871 29.8946C47.9824 29.8415 47.9888 29.7881 48.0059 29.7376C48.023 29.6871 48.0505 29.6407 48.0865 29.6015C48.1226 29.5622 48.1664 29.5309 48.2153 29.5096C48.2641 29.4882 48.3169 29.4773 48.3702 29.4775H57.7845C57.8832 29.4774 57.9781 29.5155 58.0495 29.5837C58.1208 29.6518 58.1631 29.745 58.1675 29.8436L58.4825 34.5082C58.5298 35.1046 58.4524 35.7044 58.255 36.2693C58.0577 36.8341 57.7449 37.3517 57.3364 37.789C56.928 38.2262 56.433 38.5736 55.8829 38.8089C55.3327 39.0442 54.7396 39.1624 54.1413 39.1558ZM48.7872 30.2521L49.0681 34.5082C49.1505 35.5504 49.6182 36.5245 50.3799 37.2405C51.1416 37.9566 52.1427 38.3632 53.188 38.3812H54.1413C54.6331 38.3877 55.1208 38.2912 55.5731 38.0978C56.0254 37.9045 56.4322 37.6187 56.7673 37.2587C57.1024 36.8987 57.3585 36.4725 57.519 36.0076C57.6796 35.5427 57.741 35.0493 57.6994 34.5592L57.4185 30.2521H48.7872Z" fill="#231F20"/>
<path d="M67.1647 29.8691H57.7589L42.4287 11.5171H51.8345L67.1647 29.8691Z" fill="#DC0E51"/>
<path d="M67.1646 30.2521H57.7588C57.7022 30.2529 57.6461 30.241 57.5945 30.2175C57.543 30.1939 57.4974 30.1593 57.4609 30.1159L42.1392 11.7639C42.0917 11.7083 42.0615 11.6399 42.0525 11.5673C42.0434 11.4947 42.0558 11.421 42.0881 11.3554C42.1178 11.2874 42.1665 11.2295 42.2285 11.1887C42.2905 11.1479 42.3629 11.1259 42.4371 11.1255H51.8004C51.8579 11.1245 51.9149 11.1371 51.9666 11.1623C52.0184 11.1874 52.0635 11.2244 52.0983 11.2702L67.42 29.6137C67.47 29.6696 67.5026 29.739 67.5136 29.8132C67.5246 29.8875 67.5135 29.9633 67.4818 30.0313C67.45 30.0993 67.399 30.1565 67.3351 30.1957C67.2711 30.235 67.1971 30.2546 67.122 30.2521H67.1646ZM57.9375 29.4775H66.3304L51.6556 11.9087H43.2628L57.9375 29.4775Z" fill="#231F20"/>
<path d="M67.1649 29.8691H57.759L58.0655 34.5337C58.1465 35.6797 58.6553 36.7534 59.491 37.5417C60.3267 38.3301 61.4281 38.7755 62.5769 38.7898H63.5047C64.0521 38.7979 64.595 38.691 65.0984 38.4758C65.6018 38.2607 66.0544 37.9421 66.4268 37.5408C66.7991 37.1396 67.083 36.6645 67.26 36.1465C67.4371 35.6284 67.5032 35.079 67.4543 34.5337L67.1649 29.8691Z" fill="#DC0E51"/>
<path d="M63.5045 39.1557H62.5512C61.3081 39.1384 60.1164 38.6574 59.2094 37.8072C58.3025 36.9569 57.7457 35.7986 57.6482 34.5592L57.3418 29.8946C57.3365 29.7859 57.3731 29.6793 57.444 29.5967C57.482 29.5588 57.5271 29.5288 57.5768 29.5083C57.6265 29.4879 57.6797 29.4774 57.7334 29.4775H67.1647C67.2637 29.4793 67.3585 29.5177 67.4309 29.5853C67.5032 29.6529 67.5479 29.7449 67.5563 29.8436L67.8627 34.5082C67.9102 35.1061 67.8323 35.7073 67.6339 36.2734C67.4356 36.8394 67.1212 37.3578 66.711 37.7953C66.3007 38.2328 65.8036 38.5798 65.2514 38.8141C64.6993 39.0484 64.1043 39.1647 63.5045 39.1557ZM58.1419 30.2521L58.4314 34.5082C58.51 35.5518 58.9765 36.5281 59.739 37.2449C60.5015 37.9617 61.5048 38.3671 62.5512 38.3812H63.5045C63.9964 38.3877 64.4841 38.2912 64.9363 38.0978C65.3886 37.9045 65.7954 37.6187 66.1305 37.2587C66.4657 36.8987 66.7217 36.4725 66.8823 36.0076C67.0428 35.5427 67.1042 35.0493 67.0626 34.5592L66.7732 30.2521H58.1419Z" fill="#231F20"/>
<path d="M76.579 29.8691H67.1647L51.8345 11.5171H61.2403L76.579 29.8691Z" fill="white"/>
<path d="M76.5791 30.2525H67.1647C67.0714 30.2514 66.9813 30.2183 66.9094 30.1589L51.5877 11.8069C51.5402 11.7512 51.51 11.6828 51.5009 11.6102C51.4919 11.5376 51.5043 11.4639 51.5366 11.3983C51.5671 11.3309 51.6161 11.2736 51.6779 11.2329C51.7396 11.1923 51.8117 11.1699 51.8856 11.1685H61.2914C61.3501 11.1681 61.4081 11.1809 61.4611 11.2059C61.5141 11.231 61.5609 11.2676 61.5978 11.3132L76.9195 29.6567C76.9668 29.7141 76.9967 29.7839 77.0058 29.8578C77.0148 29.9316 77.0026 30.0066 76.9706 30.0737C76.9308 30.1393 76.8721 30.1914 76.8023 30.2233C76.7325 30.2552 76.6547 30.2654 76.5791 30.2525ZM67.352 29.4779H75.7449L61.0616 11.909H52.6687L67.352 29.4779Z" fill="#231F20"/>
<path d="M76.5791 29.8691H67.1648L67.4797 34.5337C67.5607 35.6783 68.0683 36.7507 68.9021 37.5389C69.736 38.327 70.8353 38.7734 71.9826 38.7898H72.936C73.4833 38.7979 74.0263 38.691 74.5297 38.4758C75.0331 38.2607 75.4857 37.9421 75.858 37.5408C76.2304 37.1396 76.5143 36.6645 76.6913 36.1465C76.8684 35.6284 76.9345 35.079 76.8856 34.5337L76.5791 29.8691Z" fill="white"/>
<path d="M72.9359 39.1558H72.0166C70.775 39.1363 69.5853 38.6544 68.6802 37.8043C67.775 36.9543 67.2195 35.7972 67.1222 34.5592L66.8157 29.8946C66.811 29.8415 66.8174 29.7881 66.8345 29.7376C66.8516 29.6871 66.8791 29.6407 66.9151 29.6015C66.9512 29.5622 66.995 29.5309 67.0439 29.5096C67.0927 29.4882 67.1455 29.4773 67.1988 29.4775H76.6131C76.7118 29.4774 76.8067 29.5155 76.8781 29.5837C76.9495 29.6518 76.9918 29.745 76.9961 29.8436L77.3111 34.5082C77.3584 35.1046 77.281 35.7044 77.0837 36.2693C76.8863 36.8341 76.5735 37.3517 76.1651 37.789C75.7566 38.2262 75.2616 38.5736 74.7115 38.8089C74.1614 39.0442 73.5682 39.1624 72.9699 39.1558H72.9359ZM67.5818 30.2521L67.8627 34.5082C67.9457 35.5561 68.4181 36.535 69.187 37.2519C69.9559 37.9688 70.9654 38.3717 72.0166 38.3812H72.9699C73.4621 38.3876 73.9501 38.291 74.4028 38.0978C74.8555 37.9046 75.2627 37.6189 75.5985 37.259C75.9343 36.8992 76.1912 36.4732 76.3527 36.0082C76.5143 35.5433 76.5769 35.0498 76.5365 34.5592L76.2471 30.2521H67.5818Z" fill="#231F20"/>
<path d="M85.985 29.8691H76.5792L61.2405 11.5171H70.6548L85.985 29.8691Z" fill="#DC0E51"/>
<path d="M85.9851 30.2521H76.6218C76.5604 30.2664 76.4964 30.2653 76.4356 30.249C76.3747 30.2327 76.3188 30.2016 76.2728 30.1584L60.9511 11.7639C60.9055 11.7073 60.8765 11.639 60.8675 11.5669C60.8585 11.4947 60.8698 11.4214 60.9 11.3553C60.9314 11.2886 60.9806 11.2318 61.0421 11.1912C61.1037 11.1507 61.1753 11.1279 61.249 11.1255H70.6548C70.7121 11.1264 70.7684 11.1398 70.8199 11.1648C70.8713 11.1898 70.9167 11.2258 70.9528 11.2702L86.2745 29.6137C86.3245 29.6696 86.3571 29.7389 86.3681 29.8132C86.379 29.8874 86.368 29.9632 86.3363 30.0312C86.3045 30.0992 86.2535 30.1564 86.1896 30.1957C86.1256 30.2349 86.0515 30.2545 85.9765 30.2521H85.9851ZM76.758 29.4775H85.1509L70.4676 11.9086H62.0747L76.758 29.4775Z" fill="#231F20"/>
<path d="M85.9848 29.8691H76.6216L76.928 34.5337C77.011 35.679 77.5204 36.7515 78.3556 37.5395C79.1909 38.3275 80.2912 38.7736 81.4394 38.7898H82.3928C82.9401 38.7979 83.4831 38.691 83.9865 38.4758C84.4899 38.2607 84.9425 37.9421 85.3148 37.5408C85.6872 37.1396 85.9711 36.6645 86.1481 36.1465C86.3251 35.6284 86.3913 35.079 86.3423 34.5337L85.9848 29.8691Z" fill="#DC0E51"/>
<path d="M82.3502 39.1557H81.3798C80.1376 39.1382 78.9469 38.6569 78.0413 37.8065C77.1358 36.9561 76.5808 35.7979 76.4854 34.5592L76.1704 29.8946C76.1651 29.7859 76.2017 29.6793 76.2726 29.5967C76.3106 29.5588 76.3558 29.5288 76.4054 29.5083C76.4551 29.4879 76.5083 29.4774 76.562 29.4775H85.9252C86.0242 29.4793 86.119 29.5177 86.1914 29.5853C86.2637 29.6529 86.3084 29.7449 86.3168 29.8436L86.6232 34.5082C86.6786 35.1056 86.607 35.708 86.4131 36.2758C86.2193 36.8436 85.9076 37.364 85.4984 37.8029C85.0893 38.2418 84.592 38.5892 84.0392 38.8223C83.4863 39.0555 82.8904 39.1691 82.2906 39.1557H82.3502ZM76.9876 30.2521L77.277 34.5082C77.3572 35.5482 77.8219 36.521 78.5804 37.2371C79.3389 37.9531 80.3369 38.361 81.3798 38.3812H82.3331C82.825 38.3877 83.3127 38.2912 83.7649 38.0978C84.2172 37.9045 84.624 37.6187 84.9591 37.2587C85.2943 36.8987 85.5503 36.4725 85.7109 36.0076C85.8714 35.5427 85.9328 35.0493 85.8912 34.5592L85.6358 30.2521H76.9876Z" fill="#231F20"/>
<path d="M95.3991 29.8691H85.9848L70.6545 11.5171H80.0604L95.3991 29.8691Z" fill="white"/>
<path d="M95.3993 30.2521H85.985C85.9286 30.2512 85.873 30.2386 85.8218 30.2151C85.7705 30.1917 85.7246 30.1579 85.6871 30.1159L70.3654 11.7639C70.3165 11.7091 70.2848 11.6412 70.2742 11.5686C70.2636 11.4959 70.2746 11.4218 70.3058 11.3553C70.3386 11.2879 70.3892 11.2308 70.4523 11.1903C70.5153 11.1497 70.5883 11.1273 70.6633 11.1255H80.0265C80.0838 11.1264 80.1401 11.1398 80.1916 11.1648C80.243 11.1898 80.2884 11.2258 80.3245 11.2702L95.6462 29.6137C95.6934 29.6712 95.7233 29.7409 95.7324 29.8148C95.7414 29.8887 95.7292 29.9636 95.6972 30.0308C95.6704 30.0899 95.629 30.1412 95.5769 30.1799C95.5248 30.2186 95.4637 30.2435 95.3993 30.2521ZM86.1637 29.4775H94.5651L79.8733 11.9086H71.4804L86.1637 29.4775Z" fill="#231F20"/>
<path d="M95.3992 29.8691H85.9849L86.2998 34.5337C86.3809 35.6797 86.8897 36.7534 87.7253 37.5417C88.561 38.3301 89.6624 38.7755 90.8112 38.7898H91.7645C92.3116 38.7981 92.8543 38.6911 93.3573 38.4759C93.8603 38.2606 94.3123 37.9419 94.6841 37.5405C95.0558 37.1391 95.3388 36.6639 95.5149 36.1459C95.6909 35.6278 95.7559 35.0785 95.7056 34.5337L95.3992 29.8691Z" fill="white"/>
<path d="M91.7648 39.1558H90.8115C89.5684 39.1384 88.3766 38.6575 87.4697 37.8072C86.5627 36.957 86.006 35.7987 85.9085 34.5593L85.6361 29.8947C85.6316 29.8407 85.6383 29.7863 85.6559 29.735C85.6735 29.6837 85.7016 29.6367 85.7383 29.5968C85.7741 29.5583 85.8176 29.5278 85.866 29.5073C85.9144 29.4868 85.9666 29.4766 86.0192 29.4776H95.4335C95.5322 29.4775 95.6272 29.5155 95.6985 29.5837C95.7699 29.6519 95.8122 29.745 95.8166 29.8436L96.1315 34.5082C96.1788 35.104 96.1015 35.703 95.9047 36.2673C95.7079 36.8316 95.3958 37.3487 94.9883 37.7858C94.5808 38.223 94.0868 38.5705 93.5377 38.8064C92.9886 39.0422 92.3965 39.1612 91.7989 39.1558H91.7648ZM86.4022 30.2522L86.6831 34.5082C86.7656 35.5519 87.2345 36.5272 87.998 37.2434C88.7615 37.9597 89.7647 38.3654 90.8115 38.3812H91.7648C92.2562 38.3864 92.7434 38.289 93.195 38.0953C93.6466 37.9015 94.0529 37.6156 94.3878 37.2559C94.7226 36.8962 94.9788 36.4706 95.1398 36.0063C95.3008 35.5419 95.3631 35.0491 95.3229 34.5593L94.9994 30.2522H86.4022Z" fill="#231F20"/>
<path d="M104.805 29.8691H95.3993L80.0605 11.5171H89.4664L104.805 29.8691Z" fill="#DC0E51"/>
<path d="M104.805 30.2521H95.3993C95.3427 30.2528 95.2866 30.241 95.235 30.2174C95.1835 30.1939 95.1379 30.1592 95.1014 30.1159L79.7797 11.7639C79.7308 11.7091 79.6991 11.6412 79.6885 11.5686C79.6779 11.4959 79.6889 11.4218 79.7201 11.3553C79.7529 11.2879 79.8036 11.2308 79.8666 11.1903C79.9297 11.1497 80.0027 11.1273 80.0776 11.1255H89.4664C89.5236 11.1264 89.5799 11.1398 89.6314 11.1648C89.6829 11.1898 89.7282 11.2258 89.7643 11.2702L105.086 29.6137C105.136 29.6696 105.169 29.7389 105.18 29.8132C105.191 29.8874 105.18 29.9632 105.148 30.0312C105.116 30.0992 105.065 30.1564 105.001 30.1957C104.937 30.2349 104.863 30.2545 104.788 30.2521H104.805ZM95.578 29.4775H103.971L89.2876 11.9086H80.8862L95.578 29.4775Z" fill="#231F20"/>
<path d="M104.805 29.8691H95.3992L95.7056 34.5337C95.7905 35.6783 96.3005 36.7497 97.1353 37.5373C97.9701 38.3249 99.0694 38.7717 100.217 38.7898H101.17C101.718 38.7979 102.261 38.691 102.764 38.4758C103.267 38.2607 103.72 37.9421 104.092 37.5408C104.465 37.1396 104.749 36.6645 104.926 36.1465C105.103 35.6284 105.169 35.079 105.12 34.5337L104.805 29.8691Z" fill="#DC0E51"/>
<path d="M101.171 39.1557H100.217C98.9756 39.1363 97.7859 38.6544 96.8808 37.8043C95.9756 36.9543 95.4201 35.7972 95.3227 34.5592L94.9993 29.8946C94.994 29.7859 95.0305 29.6793 95.1014 29.5967C95.1395 29.5588 95.1846 29.5288 95.2343 29.5083C95.2839 29.4879 95.3371 29.4774 95.3908 29.4775H104.797C104.896 29.4793 104.99 29.5177 105.063 29.5853C105.135 29.6529 105.18 29.7449 105.188 29.8436L105.503 34.5082C105.552 35.1089 105.476 35.7133 105.279 36.2831C105.083 36.853 104.771 37.376 104.363 37.8194C103.952 38.2507 103.456 38.5922 102.907 38.8222C102.357 39.0522 101.766 39.1658 101.171 39.1557ZM95.8505 30.2521L96.1399 34.5082C96.2223 35.5504 96.6899 36.5245 97.4516 37.2405C98.2133 37.9566 99.2144 38.3632 100.26 38.3812H101.213C101.705 38.3877 102.193 38.2912 102.645 38.0978C103.097 37.9045 103.504 37.6187 103.839 37.2587C104.174 36.8987 104.43 36.4725 104.591 36.0076C104.751 35.5427 104.813 35.0493 104.771 34.5592L104.482 30.2521H95.8505Z" fill="#231F20"/>
<path d="M114.219 29.8691H104.805L89.4663 11.5171H98.8721L114.219 29.8691Z" fill="white"/>
<path d="M114.219 30.2521H104.805C104.749 30.2512 104.693 30.2386 104.642 30.2152C104.591 30.1917 104.545 30.1579 104.507 30.1159L89.1854 11.7639C89.1365 11.7091 89.1048 11.6412 89.0943 11.5686C89.0837 11.4959 89.0946 11.4218 89.1259 11.3553C89.1586 11.2879 89.2093 11.2308 89.2724 11.1903C89.3354 11.1497 89.4084 11.1273 89.4834 11.1255H98.8892C98.9466 11.1252 99.0033 11.138 99.055 11.1631C99.1067 11.1882 99.1519 11.2249 99.1871 11.2702L114.509 29.6137C114.554 29.6721 114.583 29.7417 114.592 29.8152C114.601 29.8886 114.59 29.9631 114.56 30.0308C114.529 30.0953 114.481 30.15 114.421 30.189C114.361 30.228 114.291 30.2498 114.219 30.2521ZM104.984 29.4775H113.385L98.6934 11.9086H90.3005L104.984 29.4775Z" fill="#231F20"/>
<path d="M114.22 29.8691H104.805L105.12 34.5337C105.203 35.679 105.713 36.7515 106.548 37.5395C107.383 38.3275 108.483 38.7736 109.632 38.7898H110.585C111.132 38.7981 111.675 38.6911 112.178 38.4759C112.681 38.2606 113.133 37.9419 113.504 37.5405C113.876 37.1391 114.159 36.6639 114.335 36.1459C114.511 35.6278 114.576 35.0785 114.526 34.5337L114.22 29.8691Z" fill="white"/>
<path d="M110.585 39.1558H109.632C108.389 39.1365 107.198 38.6549 106.292 37.805C105.385 36.9551 104.828 35.798 104.729 34.5593L104.414 29.8947C104.412 29.785 104.451 29.6785 104.524 29.5968C104.56 29.5583 104.604 29.5278 104.652 29.5073C104.7 29.4868 104.753 29.4766 104.805 29.4776H114.22C114.318 29.4775 114.413 29.5155 114.485 29.5837C114.556 29.6519 114.598 29.745 114.603 29.8436L114.918 34.5082C114.973 35.1057 114.901 35.7081 114.707 36.2759C114.514 36.8437 114.202 37.3641 113.793 37.803C113.384 38.2418 112.886 38.5893 112.333 38.8224C111.781 39.0555 111.185 39.1692 110.585 39.1558ZM105.214 30.2522L105.503 34.5082C105.584 35.5511 106.051 36.5263 106.813 37.2428C107.575 37.9592 108.577 38.3652 109.623 38.3812H110.576C111.068 38.3877 111.556 38.2912 112.008 38.0979C112.46 37.9046 112.867 37.6187 113.202 37.2587C113.537 36.8987 113.794 36.4726 113.954 36.0077C114.115 35.5428 114.176 35.0494 114.134 34.5593L113.845 30.2522H105.214Z" fill="#231F20"/>
<path d="M123.625 29.8691H114.219L98.8721 11.5171H108.278L123.625 29.8691Z" fill="#DC0E51"/>
<path d="M123.625 30.2521H114.262C114.205 30.2528 114.149 30.241 114.098 30.2174C114.046 30.1939 114.001 30.1592 113.964 30.1159L98.6423 11.7639C98.5949 11.7082 98.5647 11.6399 98.5556 11.5673C98.5465 11.4946 98.5589 11.421 98.5913 11.3553C98.621 11.2873 98.6697 11.2294 98.7317 11.1886C98.7936 11.1478 98.8661 11.1259 98.9403 11.1255H108.304C108.361 11.1252 108.418 11.138 108.469 11.1631C108.521 11.1882 108.566 11.2249 108.601 11.2702L123.923 29.6137C123.969 29.6707 123.999 29.7397 124.008 29.8126C124.017 29.8855 124.005 29.9596 123.974 30.0262C123.943 30.0928 123.894 30.1493 123.832 30.1892C123.77 30.2292 123.699 30.251 123.625 30.2521ZM114.398 29.4775H122.791L108.099 11.9086H99.7064L114.398 29.4775Z" fill="#231F20"/>
<path d="M123.625 29.8691H114.262L114.568 34.5337C114.653 35.6798 115.165 36.7524 116.001 37.5401C116.838 38.3279 117.939 38.7738 119.088 38.7898H120.042C120.589 38.7981 121.131 38.6911 121.634 38.4759C122.137 38.2606 122.589 37.9419 122.961 37.5405C123.333 37.1391 123.616 36.6639 123.792 36.1459C123.968 35.6278 124.033 35.0785 123.983 34.5337L123.625 29.8691Z" fill="#DC0E51"/>
<path d="M119.999 39.1558H119.046C117.803 39.1384 116.611 38.6574 115.704 37.8072C114.797 36.9569 114.24 35.7986 114.143 34.5592L113.828 29.8946C113.822 29.7859 113.859 29.6793 113.93 29.5967C113.968 29.5588 114.013 29.5288 114.063 29.5083C114.112 29.4879 114.166 29.4774 114.219 29.4775H123.583C123.682 29.4793 123.776 29.5177 123.849 29.5853C123.921 29.6529 123.966 29.7449 123.974 29.8436L124.289 34.5082C124.336 35.1039 124.259 35.703 124.062 36.2672C123.866 36.8315 123.553 37.3487 123.146 37.7858C122.738 38.2229 122.244 38.5705 121.695 38.8063C121.146 39.0422 120.554 39.1612 119.956 39.1558H119.999ZM114.628 30.2521L114.917 34.5082C115 35.5518 115.469 36.5271 116.232 37.2434C116.996 37.9596 117.999 38.3653 119.046 38.3812H119.999C120.49 38.3865 120.977 38.2891 121.428 38.0952C121.879 37.9014 122.285 37.6154 122.619 37.2555C122.954 36.8956 123.209 36.4699 123.369 36.0056C123.529 35.5412 123.59 35.0486 123.549 34.5592L123.259 30.2521H114.628Z" fill="#231F20"/>
<path d="M133.04 29.8691H123.625L108.278 11.5171H117.684L133.04 29.8691Z" fill="white"/>
<path d="M133.04 30.2521H123.625C123.569 30.2512 123.513 30.2386 123.462 30.2152C123.411 30.1918 123.365 30.158 123.327 30.1159L108.006 11.7639C107.958 11.7083 107.928 11.6399 107.919 11.5673C107.91 11.4947 107.922 11.421 107.955 11.3554C107.984 11.2874 108.033 11.2295 108.095 11.1887C108.157 11.1479 108.229 11.1259 108.304 11.1255H117.709C117.767 11.1245 117.824 11.1371 117.876 11.1623C117.927 11.1874 117.973 11.2244 118.007 11.2702L133.329 29.6137C133.374 29.6721 133.403 29.7417 133.412 29.8152C133.421 29.8887 133.41 29.9632 133.38 30.0308C133.349 30.0953 133.301 30.15 133.241 30.1891C133.181 30.2281 133.111 30.2499 133.04 30.2521ZM123.804 29.4775H132.205L117.505 11.9087H109.112L123.804 29.4775Z" fill="#231F20"/>
<path d="M133.04 29.8691H123.625L123.94 34.5337C124.025 35.6783 124.535 36.7497 125.37 37.5373C126.205 38.3249 127.304 38.7717 128.452 38.7898H129.405C129.952 38.7979 130.495 38.691 130.999 38.4758C131.502 38.2607 131.955 37.9421 132.327 37.5408C132.699 37.1396 132.983 36.6645 133.16 36.1465C133.337 35.6284 133.403 35.079 133.355 34.5337L133.04 29.8691Z" fill="white"/>
<path d="M129.405 39.1558H128.451C127.21 39.1346 126.02 38.6524 125.114 37.8029C124.208 36.9533 123.65 35.7972 123.549 34.5593L123.242 29.8947C123.238 29.8407 123.244 29.7863 123.262 29.735C123.279 29.6837 123.308 29.6367 123.344 29.5968C123.38 29.5583 123.424 29.5278 123.472 29.5073C123.52 29.4868 123.573 29.4766 123.625 29.4776H133.039C133.138 29.4795 133.231 29.5182 133.302 29.586C133.373 29.6538 133.416 29.7457 133.423 29.8436L133.737 34.5082C133.793 35.1057 133.721 35.7081 133.527 36.2759C133.334 36.8437 133.022 37.3641 132.613 37.803C132.204 38.2418 131.706 38.5893 131.153 38.8224C130.601 39.0555 130.005 39.1692 129.405 39.1558ZM124.042 30.2522L124.332 34.5082C124.412 35.5511 124.879 36.5263 125.641 37.2428C126.403 37.9592 127.406 38.3652 128.451 38.3812H129.405C129.897 38.3877 130.384 38.2912 130.837 38.0979C131.289 37.9046 131.696 37.6187 132.031 37.2587C132.366 36.8987 132.622 36.4726 132.783 36.0077C132.943 35.5428 133.004 35.0494 132.963 34.5593L132.673 30.2522H124.042Z" fill="#231F20"/>
<path d="M33.0229 11.5171L34.2317 29.8691H48.3446L33.0229 11.5171Z" fill="#231F20"/>
<path d="M48.3447 30.2439H34.2317C34.1372 30.2421 34.0467 30.2055 33.9776 30.1411C33.9084 30.0767 33.8655 29.989 33.8572 29.8949L32.6485 11.5429C32.6444 11.4634 32.6651 11.3847 32.7078 11.3176C32.7505 11.2504 32.8131 11.1983 32.8868 11.1683C32.9603 11.1396 33.0411 11.1348 33.1175 11.1546C33.194 11.1745 33.2622 11.218 33.3124 11.279L48.6341 29.6225C48.679 29.6778 48.7075 29.7446 48.7165 29.8152C48.7256 29.8859 48.7147 29.9577 48.6852 30.0225C48.6557 30.0883 48.6079 30.1441 48.5475 30.1833C48.4871 30.2226 48.4167 30.2436 48.3447 30.2439ZM34.5637 29.4948H47.5275L33.4571 12.6409L34.5637 29.4948Z" fill="#231F20"/>
<path d="M179.813 74.336C179.739 74.3321 179.666 74.3118 179.601 74.2764C179.531 74.2344 179.474 74.174 179.437 74.102C179.399 74.0299 179.382 73.9489 179.388 73.8678C179.294 72.7527 176.945 64.5811 174.791 64.7088C174.664 64.715 174.54 64.7495 174.428 64.8099C174.316 64.8703 174.219 64.955 174.144 65.0578C172.893 66.5134 173.097 71.5866 173.293 73.4167C173.303 73.5292 173.268 73.641 173.197 73.7284C173.125 73.8159 173.022 73.8719 172.91 73.8848C172.854 73.8907 172.798 73.8854 172.744 73.8693C172.69 73.8532 172.64 73.8266 172.596 73.791C172.553 73.7553 172.516 73.7114 172.49 73.6618C172.464 73.6122 172.447 73.5578 172.442 73.5018C172.442 73.2209 171.761 66.5304 173.506 64.5045C173.655 64.3147 173.843 64.1589 174.058 64.0473C174.272 63.9358 174.507 63.8711 174.749 63.8576C175.642 63.8066 176.536 64.496 177.396 65.8835C178.877 68.2924 180.486 73.6039 180.196 74.1147C180.159 74.1831 180.103 74.2399 180.036 74.279C179.968 74.318 179.891 74.3377 179.813 74.336Z" fill="#231F20"/>
<path d="M176.332 100.528C176.227 100.526 176.125 100.487 176.047 100.416C175.969 100.346 175.919 100.249 175.906 100.145L173.148 76.1663C173.142 76.1104 173.146 76.0537 173.161 75.9995C173.176 75.9453 173.202 75.8946 173.237 75.8503C173.272 75.8061 173.315 75.7691 173.364 75.7415C173.413 75.7139 173.467 75.6963 173.523 75.6896C173.579 75.6829 173.636 75.6872 173.69 75.7024C173.744 75.7176 173.795 75.7433 173.839 75.7781C173.883 75.8129 173.92 75.8561 173.948 75.9051C173.975 75.9542 173.993 76.0082 174 76.0641L176.715 100.051C176.722 100.107 176.718 100.163 176.703 100.217C176.688 100.271 176.662 100.321 176.627 100.365C176.592 100.408 176.549 100.444 176.499 100.471C176.45 100.498 176.396 100.514 176.34 100.519L176.332 100.528Z" fill="#D1D3D4"/>
<path d="M163.53 103.013C163.368 102.664 164.815 74.6938 164.815 74.6938L181.456 76.6942L185.116 102.528L163.53 103.013Z" fill="white"/>
<path d="M163.53 103.439C163.449 103.438 163.371 103.414 163.303 103.37C163.236 103.326 163.181 103.265 163.147 103.192C163.087 103.065 162.942 102.741 164.39 74.6684C164.392 74.6095 164.408 74.5518 164.434 74.4991C164.46 74.4463 164.497 74.3996 164.543 74.3619C164.587 74.3238 164.638 74.2956 164.694 74.2794C164.75 74.2633 164.809 74.2595 164.866 74.2683L181.507 76.2686C181.601 76.2806 181.688 76.3228 181.756 76.3888C181.824 76.4549 181.868 76.5412 181.882 76.6347L185.542 102.469C185.551 102.528 185.546 102.589 185.529 102.646C185.511 102.704 185.481 102.757 185.44 102.801C185.401 102.847 185.353 102.884 185.299 102.91C185.244 102.937 185.185 102.952 185.125 102.954L163.538 103.439H163.53ZM165.232 75.1706C164.713 85.3851 163.989 100.017 163.964 102.571L184.648 102.111L181.099 77.0773L165.232 75.1706Z" fill="#D1D3D4"/>
<path d="M164.815 74.6937L167.198 71.689L185.67 72.0805L181.456 76.6941L164.815 74.6937Z" fill="#D1D3D4"/>
<path d="M181.456 77.1197H181.405L164.798 75.1109C164.724 75.102 164.653 75.0737 164.594 75.0288C164.534 74.984 164.487 74.9242 164.458 74.8555C164.429 74.7842 164.419 74.7067 164.43 74.6306C164.44 74.5545 164.47 74.4824 164.517 74.4214L166.901 71.4252C166.94 71.3729 166.992 71.3308 167.051 71.3027C167.11 71.2745 167.175 71.2611 167.241 71.2634L185.712 71.655C185.794 71.66 185.873 71.6873 185.94 71.7338C186.008 71.7803 186.061 71.8442 186.095 71.9189C186.126 71.9937 186.135 72.0756 186.121 72.1554C186.108 72.2351 186.072 72.3094 186.019 72.37L181.771 76.975C181.731 77.0195 181.683 77.0553 181.629 77.0802C181.575 77.1051 181.516 77.1185 181.456 77.1197ZM165.649 74.3618L181.32 76.243L184.725 72.4892L167.403 72.1232L165.649 74.3618Z" fill="#D1D3D4"/>
<path d="M185.67 72.0806L189.968 99.8469L185.116 102.528L181.456 76.6941L185.67 72.0806Z" fill="white"/>
<path d="M185.116 102.953C185.051 102.952 184.986 102.935 184.929 102.902C184.867 102.874 184.813 102.83 184.773 102.775C184.733 102.72 184.708 102.655 184.699 102.587L181.039 76.7534C181.029 76.6906 181.034 76.6264 181.053 76.5658C181.072 76.5052 181.105 76.45 181.15 76.4044L185.355 71.7994C185.408 71.7394 185.477 71.6956 185.553 71.6731C185.63 71.6505 185.712 71.65 185.789 71.6717C185.866 71.6962 185.935 71.7419 185.988 71.8036C186.04 71.8653 186.075 71.9405 186.087 72.0207L190.385 99.787C190.397 99.8723 190.383 99.9591 190.345 100.036C190.307 100.114 190.247 100.178 190.173 100.221L185.329 102.894C185.264 102.93 185.191 102.951 185.116 102.953ZM181.907 76.83L185.457 101.855L189.483 99.6168L185.363 73.0251L181.907 76.83Z" fill="#D1D3D4"/>
<path d="M176.757 79.1366C176.701 79.1333 176.647 79.1191 176.596 79.0946C176.546 79.0701 176.501 79.036 176.464 78.9941C176.427 78.9522 176.398 78.9033 176.38 78.8503C176.362 78.7974 176.354 78.7413 176.357 78.6854C176.638 73.6633 176.17 65.6024 173.736 65.3811C173.537 65.3673 173.337 65.395 173.15 65.4624C172.962 65.5298 172.791 65.6355 172.646 65.7726C170.527 67.5942 169.616 74.7614 169.437 77.3746C169.428 77.486 169.376 77.5895 169.292 77.6628C169.207 77.7361 169.097 77.7732 168.986 77.7661C168.93 77.7629 168.876 77.7486 168.826 77.724C168.776 77.6995 168.731 77.6652 168.695 77.6231C168.659 77.5811 168.631 77.5322 168.614 77.4792C168.596 77.4263 168.59 77.3705 168.594 77.315C168.594 76.9149 169.267 67.5432 172.093 65.1257C172.322 64.9174 172.591 64.7579 172.884 64.657C173.176 64.556 173.486 64.5156 173.795 64.5384C177.838 64.8959 177.268 77.3065 177.2 78.7365C177.191 78.8471 177.141 78.9502 177.058 79.0246C176.976 79.099 176.868 79.1391 176.757 79.1366Z" fill="#231F20"/>
<path d="M175.013 74.2938C174.928 74.2946 174.846 74.2697 174.776 74.2226C174.706 74.1755 174.652 74.1084 174.621 74.03C174.502 73.7406 171.633 66.7777 172.842 64.0453C172.94 63.8007 173.088 63.5795 173.277 63.3962C173.467 63.2128 173.692 63.0714 173.94 62.9813C174.876 62.6408 176.034 63.0835 177.387 64.2922C179.83 66.4542 183.184 71.6296 183.056 72.1828C183.056 72.2957 183.012 72.404 182.932 72.4838C182.852 72.5636 182.744 72.6085 182.631 72.6085C182.518 72.6085 182.41 72.5636 182.33 72.4838C182.25 72.404 182.205 72.2957 182.205 72.1828C181.848 71.3316 176.655 62.9047 174.212 63.79C174.073 63.842 173.947 63.9238 173.843 64.0296C173.738 64.1355 173.658 64.2629 173.608 64.4028C172.757 66.3861 174.595 71.7998 175.396 73.715C175.416 73.767 175.427 73.8225 175.426 73.8785C175.425 73.9344 175.413 73.9897 175.391 74.0411C175.369 74.0925 175.337 74.139 175.297 74.178C175.257 74.217 175.209 74.2477 175.157 74.2683C175.111 74.287 175.062 74.2957 175.013 74.2938Z" fill="#231F20"/>
<path d="M187.398 101.813C187.315 101.812 187.234 101.788 187.165 101.742C187.095 101.697 187.04 101.633 187.006 101.557L176.264 76.6597C176.241 76.6083 176.229 76.553 176.228 76.4969C176.227 76.4408 176.238 76.3851 176.258 76.333C176.279 76.2808 176.309 76.2332 176.348 76.1929C176.387 76.1525 176.434 76.1203 176.485 76.0979C176.537 76.0755 176.592 76.0635 176.648 76.0626C176.704 76.0616 176.76 76.0717 176.812 76.0922C176.864 76.1128 176.912 76.1434 176.952 76.1823C176.992 76.2213 177.025 76.2678 177.047 76.3192L187.781 101.217C187.803 101.268 187.815 101.324 187.816 101.38C187.817 101.436 187.807 101.492 187.787 101.544C187.766 101.596 187.736 101.644 187.697 101.684C187.657 101.724 187.611 101.757 187.559 101.779C187.509 101.802 187.453 101.813 187.398 101.813Z" fill="#D1D3D4"/>
<path d="M174.578 108.674C174.297 108.35 166.773 77.8007 166.773 77.8007L185.321 74.5576L197.638 101.141L174.578 108.674Z" fill="white"/>
<path d="M174.578 109.099C174.519 109.098 174.46 109.085 174.406 109.06C174.351 109.035 174.303 108.999 174.263 108.954C174.178 108.852 173.906 108.554 166.356 77.9024C166.341 77.8461 166.339 77.7873 166.35 77.73C166.36 77.6728 166.382 77.6184 166.415 77.5705C166.447 77.5214 166.488 77.4794 166.536 77.4471C166.584 77.4149 166.639 77.3931 166.696 77.3832L185.253 74.1316C185.344 74.1179 185.438 74.1346 185.52 74.1792C185.601 74.2238 185.666 74.2937 185.704 74.3785L197.995 100.962C198.02 101.016 198.033 101.076 198.033 101.136C198.033 101.196 198.02 101.256 197.995 101.311C197.944 101.42 197.852 101.505 197.74 101.549L174.681 109.074C174.648 109.087 174.614 109.096 174.578 109.099ZM167.292 78.1408C170.05 89.3341 174.102 105.516 174.851 108.137L197.05 100.885L185.074 75.0254L167.292 78.1408Z" fill="#D1D3D4"/>
<path d="M166.773 77.8002L168.365 73.7995L188.351 68.2241L185.321 74.5571L166.773 77.8002Z" fill="#D1D3D4"/>
<path d="M166.773 78.2263C166.709 78.2254 166.646 78.2104 166.589 78.1825C166.531 78.1545 166.481 78.1143 166.441 78.0646C166.395 78.0049 166.365 77.9348 166.353 77.8604C166.341 77.7861 166.348 77.71 166.373 77.639L167.973 73.6468C167.994 73.5839 168.031 73.5275 168.08 73.4828C168.13 73.4381 168.189 73.4067 168.254 73.3914L188.24 67.8161C188.318 67.7954 188.4 67.7972 188.477 67.8213C188.554 67.8454 188.622 67.8908 188.674 67.9522C188.729 68.0144 188.763 68.0912 188.774 68.173C188.784 68.2549 188.771 68.338 188.734 68.4119L185.704 74.7364C185.676 74.7979 185.633 74.8518 185.58 74.8934C185.526 74.9349 185.464 74.9628 185.397 74.9747L166.841 78.2178L166.773 78.2263ZM168.68 74.1575L167.445 77.2474L185.031 74.1746L187.585 68.8886L168.68 74.1575Z" fill="#D1D3D4"/>
<path d="M188.351 68.2241L201.979 96.6969L197.638 101.14L185.321 74.5571L188.351 68.2241Z" fill="white"/>
<path d="M197.637 101.566H197.569C197.501 101.554 197.436 101.525 197.381 101.482C197.326 101.439 197.283 101.383 197.254 101.319L184.937 74.736C184.91 74.6788 184.896 74.6163 184.896 74.553C184.896 74.4897 184.91 74.4272 184.937 74.37L187.968 68.0455C188.007 67.9784 188.062 67.9226 188.13 67.8839C188.197 67.8451 188.273 67.8247 188.351 67.8247C188.428 67.8247 188.505 67.8451 188.572 67.8839C188.639 67.9226 188.695 67.9784 188.734 68.0455L202.353 96.5098C202.391 96.5896 202.403 96.6791 202.388 96.766C202.373 96.8529 202.331 96.933 202.268 96.995L197.927 101.438C197.85 101.516 197.747 101.561 197.637 101.566ZM185.789 74.5573L197.765 100.408L201.468 96.612L188.351 69.2117L185.789 74.5573Z" fill="#D1D3D4"/>
<path d="M172.127 79.7246C172.03 79.725 171.936 79.6923 171.86 79.632C171.784 79.5716 171.731 79.4872 171.71 79.3926C171.608 78.9585 169.267 68.693 171.514 65.1945C171.687 64.8968 171.92 64.6384 172.198 64.4361C172.477 64.2338 172.795 64.092 173.131 64.0198C177.558 63.1176 180.954 76.6092 181.328 78.1498C181.342 78.2041 181.345 78.2606 181.337 78.3159C181.328 78.3713 181.309 78.4244 181.279 78.472C181.25 78.5197 181.211 78.561 181.166 78.5933C181.12 78.6257 181.068 78.6486 181.014 78.6606C180.905 78.6864 180.791 78.6689 180.696 78.6116C180.6 78.5543 180.531 78.4619 180.503 78.3541C179.166 72.8298 176.034 64.2922 173.302 64.854C173.078 64.908 172.868 65.0068 172.683 65.1443C172.499 65.2818 172.345 65.4552 172.229 65.6541C170.527 68.3099 171.872 76.3368 172.536 79.2053C172.549 79.2596 172.552 79.3161 172.544 79.3714C172.535 79.4268 172.516 79.4799 172.486 79.5275C172.457 79.5752 172.418 79.6165 172.373 79.6488C172.327 79.6812 172.275 79.7041 172.221 79.7161L172.127 79.7246Z" fill="#231F20"/>
<path d="M134.231 78.8392C133.627 76.5664 134.087 74.3448 136.896 73.8681C141.152 73.1701 145.799 76.3026 149.715 77.5879C151.085 78.039 158.448 79.8266 158.448 79.8266C158.448 79.8266 159.589 77.7581 159.938 76.958C160.704 75.1534 161.402 73.3148 162.091 71.4762C163.521 67.6713 164.602 64.0197 166.977 60.683C167.466 59.9915 167.992 59.3266 168.552 58.6911C170.025 56.9317 171.932 55.5879 174.085 54.7926C174.149 54.7655 174.219 54.7515 174.289 54.7515C174.359 54.7515 174.429 54.7655 174.493 54.7926C174.766 54.9543 174.536 55.3714 174.289 55.5757L171.437 58.0442C172.224 57.3115 173.109 56.6926 174.068 56.2056C174.51 55.9758 175.855 55.082 176.323 55.5502C176.979 56.2056 175.472 56.7674 175.149 57.0313C174.357 57.6527 173.6 58.3421 172.782 58.938C173.835 58.1797 174.979 57.5563 176.187 57.0824C176.758 56.861 177.626 56.81 177.762 57.4143C177.847 57.8059 177.507 58.1464 177.2 58.4017L174.757 60.4446C175.438 59.8828 176.681 60.9894 176.919 61.5682C177.09 62.0412 177.139 62.5495 177.062 63.0463C176.984 63.5432 176.783 64.0125 176.477 64.4112C176.338 64.6035 176.154 64.7585 175.94 64.8624C175.832 64.9101 175.714 64.9297 175.596 64.9193C175.479 64.9089 175.366 64.8688 175.268 64.8028C174.502 64.2155 175.336 62.7854 174.102 62.4535C173.846 62.4056 173.581 62.4526 173.357 62.5858C173.133 62.7189 172.965 62.9291 172.885 63.177C172.812 63.4276 172.807 63.6932 172.872 63.9461C172.936 64.199 173.067 64.4301 173.251 64.6155C173.531 64.922 173.957 65.1943 173.949 65.6114C173.938 65.7344 173.898 65.8531 173.833 65.958C173.768 66.063 173.679 66.1512 173.574 66.2158C173.421 66.3124 173.251 66.3773 173.072 66.4065C172.894 66.4357 172.711 66.4286 172.536 66.3857C172.36 66.3428 172.195 66.2649 172.05 66.1568C171.905 66.0486 171.784 65.9123 171.693 65.7561C171.531 65.4412 171.352 64.9815 171.012 65.0667C170.892 65.1072 170.789 65.1885 170.722 65.2965C170.297 65.7987 168.79 74.3618 168.441 77.2134C167.973 81.0949 167.207 89.4026 162.33 90.4837C162.175 90.5147 162.019 90.5374 161.861 90.5517C157.248 91.0114 152.498 89.7686 148.174 88.2961C144.565 87.0788 140.42 86.0914 137.33 83.7762C135.811 82.4906 134.729 80.7657 134.231 78.8392Z" fill="white"/>
<path d="M159.836 90.986C155.665 90.986 151.562 89.8113 148.021 88.6196C147.323 88.3813 146.608 88.1514 145.884 87.9216C142.803 86.9512 139.619 85.9383 137.074 84.0401C135.502 82.7076 134.376 80.9251 133.848 78.9329C133.63 78.2999 133.548 77.6283 133.605 76.9613C133.662 76.2943 133.858 75.6466 134.18 75.0599C134.483 74.621 134.877 74.2529 135.335 73.981C135.794 73.7092 136.306 73.54 136.836 73.4852C139.926 72.9744 143.143 74.396 146.259 75.7664C147.519 76.3197 148.702 76.8474 149.834 77.222C150.966 77.5965 156.882 79.0436 158.252 79.3755C158.567 78.7967 159.316 77.4092 159.58 76.8219C160.363 74.9833 161.07 73.1106 161.734 71.3572C161.983 70.6932 162.222 70.0378 162.449 69.3909C163.589 66.2414 164.662 63.2792 166.662 60.4702C167.207 59.7042 167.735 59.0487 168.254 58.4529C169.773 56.6365 171.743 55.251 173.966 54.4352C174.079 54.382 174.202 54.3545 174.327 54.3545C174.452 54.3545 174.576 54.382 174.689 54.4352C174.776 54.4849 174.849 54.5551 174.903 54.6397C174.956 54.7243 174.988 54.8206 174.996 54.9204C175.006 55.0384 174.991 55.1573 174.953 55.2694C175.549 54.997 176.196 54.8353 176.596 55.2694C176.694 55.359 176.77 55.4704 176.817 55.5945C176.864 55.7187 176.882 55.8522 176.868 55.9844C176.823 56.2106 176.707 56.4164 176.536 56.5717C176.902 56.4876 177.285 56.5265 177.626 56.6824C177.75 56.7442 177.859 56.834 177.943 56.9447C178.027 57.0555 178.085 57.1842 178.111 57.3208C178.264 57.9932 177.651 58.504 177.421 58.6912L175.813 60.0361C176.43 60.3221 176.936 60.8038 177.251 61.4066C177.447 61.9438 177.505 62.5217 177.418 63.0871C177.332 63.6524 177.105 64.1868 176.757 64.6411C176.581 64.8877 176.343 65.0842 176.068 65.2115C175.894 65.2802 175.705 65.3022 175.52 65.2754C175.335 65.2485 175.16 65.1736 175.013 65.0582C174.827 64.8834 174.682 64.6701 174.588 64.4334C174.494 64.1966 174.453 63.9421 174.468 63.6878C174.425 63.1005 174.383 62.8877 173.991 62.777C173.83 62.7562 173.667 62.7914 173.529 62.8767C173.391 62.9619 173.287 63.092 173.234 63.2452C173.185 63.4304 173.185 63.625 173.235 63.81C173.284 63.995 173.38 64.1641 173.514 64.3007L173.71 64.4879C173.883 64.6142 174.028 64.7759 174.133 64.9623C174.239 65.1487 174.304 65.3555 174.323 65.569C174.313 65.7547 174.258 65.9352 174.163 66.0952C174.068 66.2553 173.936 66.3901 173.778 66.4883C173.581 66.6213 173.358 66.7116 173.124 66.7533C172.89 66.7949 172.649 66.787 172.418 66.7301C172.187 66.6731 171.971 66.5684 171.783 66.4227C171.595 66.2769 171.44 66.0934 171.327 65.8839L171.259 65.7477C171.204 65.6197 171.132 65.4996 171.046 65.3902C171.046 65.3902 171.046 65.4668 170.995 65.4924C170.629 66.1222 169.173 74.2513 168.816 77.1709L168.748 77.7412C168.245 81.9206 167.318 89.6581 162.398 90.7732C162.227 90.7732 162.057 90.8413 161.887 90.8583C161.197 90.9604 160.542 90.986 159.836 90.986ZM138.172 74.1576C137.768 74.1589 137.364 74.1902 136.964 74.2513C136.541 74.2914 136.131 74.4216 135.763 74.633C135.394 74.8444 135.075 75.1322 134.827 75.477C134.575 75.9781 134.425 76.5248 134.387 77.0847C134.349 77.6446 134.423 78.2064 134.606 78.7371C135.089 80.5565 136.109 82.188 137.534 83.4187C139.977 85.2403 143.101 86.2277 146.123 87.1811C146.846 87.4109 147.57 87.6407 148.268 87.8791C152.311 89.2495 157.078 90.5774 161.802 90.1177C161.942 90.1033 162.081 90.0806 162.219 90.0496C166.603 89.0793 167.488 81.6653 167.965 77.6816L168.033 77.1113C168.288 74.9833 169.829 65.7052 170.399 65.0242C170.523 64.8568 170.695 64.7318 170.893 64.6667C171.497 64.5305 171.795 65.1178 171.948 65.4413L172.008 65.5519C172.068 65.6643 172.153 65.7617 172.256 65.8368C172.359 65.912 172.478 65.963 172.604 65.986C172.72 66.0249 172.843 66.0382 172.965 66.025C173.087 66.0118 173.205 65.9724 173.31 65.9094C173.364 65.8774 173.409 65.8341 173.445 65.7827C173.48 65.7313 173.504 65.6729 173.514 65.6115C173.514 65.4583 173.344 65.2881 173.148 65.1093C173.07 65.0399 172.997 64.966 172.927 64.888C172.695 64.6514 172.529 64.3571 172.449 64.0354C172.368 63.7137 172.374 63.3763 172.467 63.0579C172.583 62.7155 172.82 62.4274 173.134 62.2485C173.448 62.0695 173.816 62.0123 174.17 62.0875C175.132 62.3429 175.191 63.16 175.234 63.6963C175.234 64.1049 175.293 64.3602 175.472 64.505C175.515 64.5281 175.564 64.5401 175.613 64.5401C175.662 64.5401 175.71 64.5281 175.753 64.505C175.909 64.4351 176.041 64.323 176.136 64.1815C176.401 63.8364 176.575 63.4307 176.644 63.0012C176.712 62.5716 176.672 62.1317 176.528 61.7215C176.26 61.2489 175.831 60.8891 175.319 60.7086C175.089 60.649 175.004 60.7086 174.97 60.7086C174.931 60.7415 174.886 60.7663 174.837 60.7816C174.789 60.7968 174.738 60.8022 174.687 60.7975C174.636 60.7927 174.587 60.7779 174.542 60.7539C174.497 60.7298 174.457 60.6971 174.425 60.6575C174.361 60.578 174.33 60.4765 174.34 60.3747C174.349 60.2729 174.398 60.1789 174.476 60.1127L176.919 58.0698C177.234 57.806 177.379 57.6017 177.345 57.4655C177.343 57.4398 177.333 57.4153 177.318 57.3943C177.304 57.3734 177.283 57.3568 177.26 57.3463C176.942 57.2485 176.599 57.2728 176.298 57.4144C175.136 57.8674 174.038 58.4682 173.029 59.2019C172.988 59.2326 172.94 59.2545 172.89 59.2665C172.84 59.2784 172.788 59.28 172.737 59.2713C172.686 59.2625 172.637 59.2436 172.594 59.2156C172.551 59.1876 172.513 59.1511 172.484 59.1083C172.455 59.0676 172.433 59.0213 172.422 58.9723C172.41 58.9232 172.408 58.8723 172.416 58.8225C172.424 58.7727 172.441 58.7249 172.468 58.6819C172.494 58.6389 172.529 58.6016 172.57 58.572C173.046 58.2316 173.514 57.84 173.966 57.457C174.272 57.2016 174.578 56.9462 174.893 56.6994C175.02 56.6134 175.15 56.5338 175.285 56.4611C175.472 56.3504 176.06 56.0269 176.085 55.8567C176.085 55.8567 176.085 55.8567 176.034 55.7971C175.983 55.7375 175.753 55.6694 174.51 56.3674L174.229 56.5206C173.553 56.8646 172.914 57.2783 172.323 57.7549L171.676 58.3082C171.603 58.3789 171.505 58.4184 171.403 58.4184C171.302 58.4184 171.204 58.3789 171.131 58.3082C171.062 58.2342 171.024 58.1368 171.024 58.0358C171.024 57.9347 171.062 57.8374 171.131 57.7634C171.344 57.5676 171.565 57.3719 171.795 57.1931L174 55.2864L174.068 55.2183C172.018 55.9965 170.204 57.2893 168.799 58.9721C168.251 59.5974 167.737 60.2509 167.258 60.9299C165.317 63.6452 164.262 66.5734 163.138 69.6633C162.908 70.3187 162.662 70.9741 162.415 71.6381C161.751 73.4001 161.036 75.2812 160.253 77.1368C159.904 77.9881 158.797 79.9543 158.746 80.0395C158.705 80.113 158.642 80.1712 158.565 80.205C158.488 80.2389 158.402 80.2465 158.32 80.2267C158.014 80.1501 150.923 78.4307 149.544 77.9795C148.378 77.5965 147.178 77.0687 145.901 76.5069C143.356 75.3323 140.692 74.1576 138.172 74.1576Z" fill="#231F20"/>
<path d="M102.132 72.1143L87.8235 75.783L82.5971 56.4011C82.5971 56.4011 81.5927 51.7961 80.5542 51.0385C78.4773 49.5318 72.8423 50.5022 71.8549 53.0133C71.724 53.3707 71.655 53.7478 71.6506 54.1284C71.6484 55.1988 72.0637 56.2279 72.8083 56.9969C73.7531 57.9503 76.0769 57.8481 76.2812 58.8866C76.3833 59.4143 75.7279 60.3166 75.6683 60.8784C75.6442 61.6004 75.7013 62.3228 75.8386 63.032C76.2046 66.1389 76.6217 69.2372 77.1154 72.3271C77.5708 75.3871 78.1844 78.4215 78.954 81.418C79.3796 82.9842 79.8818 85.674 81.2778 86.738C81.4564 86.8982 81.6734 87.0096 81.9077 87.0615C86.002 87.6744 103.716 82.8055 103.716 82.8055" fill="white"/>
<path d="M82.7504 87.5042C82.4485 87.5087 82.1467 87.4888 81.8481 87.4446C81.5514 87.3874 81.2752 87.2522 81.048 87.053C79.7286 86.0486 79.1668 83.827 78.7582 82.2097C78.7015 81.9656 78.6419 81.7358 78.5795 81.5202C77.804 78.5102 77.1874 75.4615 76.7323 72.3868C76.2812 69.5608 75.8811 66.5134 75.4555 63.0746C75.4555 62.9043 75.4555 62.7341 75.3874 62.5638C75.279 62.0033 75.2447 61.4309 75.2853 60.8614C75.3412 60.5229 75.4504 60.1954 75.6088 59.8911C75.764 59.6124 75.8624 59.3057 75.8982 58.9888C75.8301 58.6228 75.1746 58.427 74.4852 58.2227C73.7667 58.0777 73.0946 57.7592 72.5274 57.2949C71.7088 56.4556 71.2558 55.3263 71.2676 54.1539C71.2622 53.7267 71.3373 53.3022 71.4889 52.9027C71.923 51.7961 73.1913 50.8683 74.9448 50.349C77.1665 49.7021 79.5669 49.8553 80.7841 50.7406C82.0013 51.6259 82.8014 55.5414 82.9802 56.3415L88.0874 75.3234L102.03 71.7569C102.079 71.7442 102.131 71.7414 102.181 71.7486C102.231 71.7559 102.28 71.7731 102.323 71.7993C102.367 71.8254 102.405 71.86 102.435 71.9009C102.465 71.9418 102.486 71.9884 102.498 72.0378C102.512 72.087 102.516 72.1385 102.509 72.1892C102.503 72.24 102.485 72.2887 102.459 72.3326C102.433 72.3765 102.398 72.4145 102.356 72.4443C102.315 72.4741 102.267 72.4951 102.217 72.5059L87.9172 76.1235C87.819 76.1495 87.7145 76.1354 87.6267 76.0843C87.5389 76.0332 87.475 75.9494 87.449 75.8512L82.2311 56.5458C81.8481 54.8434 81.0054 51.8812 80.333 51.4386C79.3115 50.698 77.1409 50.5874 75.1661 51.1662C73.6425 51.6088 72.57 52.3664 72.221 53.2431C72.1037 53.556 72.046 53.888 72.0507 54.222C72.0531 55.1772 72.4289 56.0937 73.0977 56.7756C73.5744 57.139 74.1274 57.3893 74.715 57.5077C75.5662 57.763 76.511 58.0354 76.6728 58.8696C76.6887 59.3465 76.5708 59.8183 76.3323 60.2315C76.2153 60.468 76.124 60.7162 76.0599 60.9721C76.0313 61.4851 76.0656 61.9996 76.162 62.5043L76.2387 63.032C76.6387 66.4368 77.0899 69.5012 77.5069 72.3187C77.9596 75.3645 78.5705 78.3846 79.337 81.367C79.3966 81.5798 79.4562 81.8181 79.5158 82.0735C79.8988 83.5801 80.4181 85.64 81.5246 86.4827C81.6513 86.5979 81.8027 86.6824 81.9673 86.7296C85.9424 87.3169 103.443 82.4735 103.613 82.4735C103.713 82.4445 103.82 82.4559 103.91 82.5054C104.001 82.5548 104.069 82.6382 104.099 82.7374C104.125 82.8378 104.111 82.9446 104.061 83.0351C104.01 83.1256 103.926 83.1929 103.826 83.2226C103.137 83.3418 88.0108 87.5042 82.7504 87.5042Z" fill="#231F20"/>
<path d="M129.388 63.1597L135.423 62.5979C135.423 62.5979 133.193 60.2826 133.576 58.3419C133.959 56.4011 135.227 56.316 133.082 53.0133C131.848 51.1236 130.29 49.6681 129.805 47.4124C129.252 44.7992 127.617 43.6075 124.817 44.331C123.969 44.6018 123.097 44.79 122.212 44.8928C121.361 44.8928 120.586 44.7566 119.778 44.7481C118.64 44.7495 117.524 45.0568 116.546 45.6379C115.568 46.2189 114.765 47.0523 114.219 48.0508C113.785 48.902 114.041 49.966 113.641 50.6044C113.241 51.2428 112.108 51.5152 111.589 51.9238C110.982 52.3466 110.522 52.9493 110.274 53.6471C110.027 54.3449 110.005 55.1026 110.21 55.8138C110.781 58.9292 113.7 60.4699 110.789 62.3C107.878 64.1301 107.75 66.224 107.75 66.224L129.388 63.1597Z" fill="white"/>
<path d="M107.767 66.6415C107.719 66.6428 107.67 66.6345 107.625 66.6169C107.58 66.5994 107.539 66.573 107.503 66.5393C107.46 66.5019 107.425 66.4547 107.403 66.4014C107.381 66.3482 107.371 66.2904 107.376 66.2329C107.376 66.1393 107.555 63.9176 110.602 61.9769C112.185 60.981 111.785 60.2745 110.993 58.7678C110.456 57.8808 110.068 56.9118 109.844 55.8993C109.633 55.1191 109.666 54.2932 109.939 53.5323C110.211 52.7715 110.71 52.1123 111.368 51.6432C111.636 51.4511 111.921 51.283 112.219 51.141C112.63 50.9757 113.003 50.7297 113.317 50.4175C113.465 50.0944 113.541 49.7429 113.539 49.3875C113.555 48.8709 113.67 48.3622 113.879 47.8894C114.457 46.8268 115.311 45.9396 116.35 45.321C117.39 44.7024 118.577 44.3752 119.786 44.3739C120.152 44.3739 120.51 44.4165 120.876 44.4505C121.316 44.5067 121.76 44.5295 122.204 44.5186C122.863 44.4605 123.514 44.3292 124.145 44.1271L124.732 43.9739C125.314 43.7389 125.943 43.6447 126.568 43.699C127.194 43.7534 127.797 43.9547 128.33 44.2866C128.863 44.6186 129.31 45.0716 129.634 45.609C129.958 46.1463 130.151 46.7527 130.197 47.3787C130.599 48.8345 131.323 50.1813 132.316 51.3198C132.682 51.805 133.057 52.3157 133.414 52.8519C135.04 55.3545 134.827 56.1972 134.342 57.3548C134.18 57.7131 134.055 58.0866 133.967 58.4699C133.687 59.8744 135.125 61.747 135.712 62.3514C135.763 62.4032 135.798 62.4683 135.813 62.5391C135.828 62.6099 135.823 62.6836 135.798 62.7515C135.771 62.8205 135.726 62.881 135.668 62.9261C135.609 62.9711 135.539 62.9991 135.466 63.0068L129.439 63.5771L107.767 66.6415ZM119.684 45.1656C118.636 45.1859 117.613 45.4823 116.716 46.0248C115.819 46.5673 115.081 47.3367 114.577 48.2554C114.416 48.6413 114.329 49.0544 114.322 49.4727C114.319 49.9501 114.202 50.4199 113.981 50.8431C113.603 51.2889 113.121 51.6341 112.577 51.8475C112.321 51.965 112.076 52.1046 111.845 52.2646C111.296 52.6467 110.881 53.1919 110.66 53.8229C110.438 54.454 110.421 55.1387 110.61 55.7801C110.823 56.7131 111.182 57.6066 111.674 58.4273C112.466 59.8914 113.215 61.2789 111.01 62.6834C109.756 63.3698 108.783 64.4757 108.261 65.8073L129.345 62.794L134.64 62.2918C133.967 61.4406 132.895 59.7978 133.201 58.3082C133.294 57.8715 133.434 57.4462 133.618 57.0399C134.01 56.1121 134.24 55.5503 132.767 53.269C132.435 52.7498 132.061 52.2561 131.703 51.7709C130.637 50.5416 129.862 49.0865 129.439 47.5149C129.411 46.9958 129.257 46.4913 128.991 46.0443C128.726 45.5974 128.356 45.2212 127.914 44.9479C127.472 44.6745 126.97 44.5121 126.452 44.4744C125.933 44.4367 125.413 44.5249 124.936 44.7314L124.357 44.8847C123.672 45.1026 122.963 45.2425 122.246 45.3018C121.766 45.3177 121.285 45.2949 120.808 45.2337C120.467 45.2337 120.127 45.1656 119.786 45.1656H119.684Z" fill="#231F20"/>
<path d="M63.8706 68.8546C63.7919 68.8528 63.7153 68.8292 63.6493 68.7865C63.5541 68.7282 63.4856 68.6349 63.4585 68.5267C63.4314 68.4184 63.448 68.3038 63.5046 68.2076C65.6496 64.6922 72.7657 53.2179 74.6639 52.9711C74.7629 52.9565 74.864 52.9641 74.9598 52.9936C75.0555 53.0231 75.1434 53.0735 75.2171 53.1413C76.5195 54.3926 72.9019 62.6067 71.2846 66.0881C71.2611 66.139 71.2279 66.1847 71.1867 66.2227C71.1456 66.2608 71.0973 66.2903 71.0448 66.3096C70.9922 66.329 70.9363 66.3378 70.8803 66.3356C70.8244 66.3334 70.7694 66.3202 70.7185 66.2967C70.6677 66.2732 70.6219 66.24 70.5839 66.1988C70.5459 66.1577 70.5164 66.1094 70.497 66.0569C70.4777 66.0043 70.4688 65.9484 70.4711 65.8925C70.4733 65.8365 70.4865 65.7815 70.51 65.7306C72.8423 60.717 75.0299 54.9033 74.6724 53.8138C73.4211 54.4011 68.4586 61.6789 64.2366 68.6162C64.2021 68.6848 64.1501 68.7429 64.0858 68.7848C64.0215 68.8266 63.9472 68.8507 63.8706 68.8546Z" fill="#231F20"/>
<path d="M62.1936 67.2797L41.2539 94.297L44.514 96.8506L45.8674 102.469L71.676 92.9435L76.5874 66.1816L62.1936 67.2797Z" fill="white"/>
<path d="M45.8675 102.894C45.8029 102.907 45.7364 102.907 45.6718 102.894C45.618 102.866 45.571 102.826 45.5343 102.777C45.4975 102.729 45.4718 102.673 45.459 102.613L44.1311 97.1399L40.9901 94.68C40.9024 94.6097 40.8461 94.5077 40.8333 94.3961C40.8206 94.2845 40.8525 94.1723 40.922 94.0841L61.8617 67.0669C61.8969 67.0201 61.9417 66.9815 61.9931 66.9536C62.0445 66.9257 62.1013 66.9092 62.1596 66.9051L76.5535 65.7986C76.6188 65.7948 76.6841 65.8059 76.7446 65.831C76.805 65.856 76.859 65.8944 76.9025 65.9433C76.946 65.9909 76.9779 66.048 76.9956 66.11C77.0133 66.172 77.0164 66.2373 77.0046 66.3008L72.0932 93.0627C72.0815 93.135 72.051 93.203 72.0046 93.2598C71.9583 93.3166 71.8978 93.3601 71.8293 93.3861L46.0208 102.911C45.9691 102.914 45.9174 102.908 45.8675 102.894ZM41.8499 94.2288L44.778 96.5526C44.8175 96.5788 44.8514 96.6127 44.8777 96.6521C44.904 96.6916 44.9222 96.7359 44.9312 96.7824L46.1825 101.941L71.3101 92.6626L76.0768 66.6838L62.4575 67.7308L41.8499 94.2288Z" fill="#D1D3D4"/>
<path d="M64.7897 71.8333L61.2913 67.2624L72.9443 62.4956L75.6 65.4152L64.7897 71.8333Z" fill="#D1D3D4"/>
<path d="M64.7901 72.2594C64.7261 72.2597 64.6628 72.2453 64.6052 72.2173C64.5477 72.1892 64.4973 72.1483 64.4581 72.0977L60.9512 67.5182C60.9102 67.4677 60.8819 67.4081 60.8685 67.3444C60.8552 67.2808 60.8573 67.2149 60.8746 67.1522C60.8919 67.0885 60.924 67.0298 60.9684 66.981C61.0128 66.9321 61.0682 66.8945 61.1299 66.8713L72.7914 62.096C72.8726 62.0632 72.962 62.0562 73.0473 62.076C73.1326 62.0958 73.2097 62.1414 73.2681 62.2067L75.9154 65.1263C75.9576 65.1732 75.9894 65.2286 76.0085 65.2888C76.0275 65.349 76.0335 65.4126 76.026 65.4753C76.0154 65.5379 75.9918 65.5975 75.9566 65.6503C75.9214 65.7031 75.8754 65.7479 75.8217 65.7817L65.0114 72.1998C64.9448 72.2404 64.868 72.2611 64.7901 72.2594ZM61.9641 67.4416L64.9008 71.272L74.9365 65.3136L72.868 62.9983L61.9641 67.4416Z" fill="#D1D3D4"/>
<path d="M70.6719 70.9652H70.6123C70.5015 70.9463 70.4023 70.8852 70.3356 70.7947C70.2689 70.7042 70.2399 70.5914 70.2548 70.48C70.2548 70.4374 70.8932 66.1814 71.7614 61.9679C73.5745 53.1409 74.6385 53.0899 75.1662 53.0643C75.2935 53.0572 75.4208 53.0787 75.5387 53.1273C75.6565 53.1759 75.762 53.2504 75.8472 53.3452C77.4304 54.9285 76.9027 65.4579 76.7835 67.5518C76.7728 67.6632 76.7203 67.7664 76.6366 67.8406C76.5529 67.9148 76.4442 67.9546 76.3324 67.9519C76.2765 67.9487 76.2217 67.9344 76.1713 67.9099C76.1209 67.8855 76.0758 67.8513 76.0387 67.8094C76.0015 67.7675 75.973 67.7187 75.9547 67.6657C75.9365 67.6127 75.9289 67.5567 75.9323 67.5008C76.3409 60.4443 76.0089 54.2135 75.2003 53.8815C74.1618 54.2049 72.2636 62.8021 71.1145 70.5821C71.1018 70.6897 71.0493 70.7886 70.9674 70.8595C70.8856 70.9304 70.7801 70.9681 70.6719 70.9652Z" fill="#231F20"/>
<path d="M67.4371 70.9567L60.4402 100.766L67.2839 105.362L79.2518 96.2034L80.6819 67.7051L67.4371 70.9567Z" fill="white"/>
<path d="M67.284 105.788C67.1998 105.787 67.1174 105.764 67.0457 105.72L60.236 101.115C60.1619 101.069 60.1046 101 60.0724 100.919C60.0403 100.837 60.035 100.748 60.0573 100.664L67.0542 70.8714C67.0711 70.7934 67.1096 70.7217 67.1652 70.6645C67.2209 70.6073 67.2916 70.5669 67.3691 70.548L80.6139 67.2964C80.6786 67.2802 80.7463 67.2795 80.8113 67.2943C80.8764 67.3091 80.937 67.3389 80.9884 67.3815C81.0399 67.4233 81.0806 67.4768 81.1072 67.5375C81.1339 67.5982 81.1457 67.6643 81.1416 67.7305L79.6776 96.2203C79.6766 96.2817 79.6615 96.3421 79.6334 96.3967C79.6054 96.4513 79.5652 96.4987 79.5158 96.5353L67.5394 105.703C67.4667 105.76 67.3764 105.79 67.284 105.788ZM60.9511 100.578L67.3011 104.835L78.8264 95.982L80.2138 68.2497L67.7607 71.3055L60.9511 100.578Z" fill="#D1D3D4"/>
<path d="M66.7136 70.6589L71.4208 72.9997L80.6819 67.7052L77.7623 64.8877L66.7136 70.6589Z" fill="#D1D3D4"/>
<path d="M71.4209 73.4254C71.3558 73.4277 71.2912 73.4131 71.2336 73.3828L66.5179 71.0165C66.4491 70.9788 66.3915 70.9234 66.3511 70.8561C66.3107 70.7888 66.289 70.7119 66.2881 70.6335C66.2881 70.5548 66.3095 70.4776 66.3499 70.4101C66.3904 70.3426 66.4485 70.2874 66.5179 70.2504L77.5836 64.4878C77.6626 64.4458 77.7528 64.4298 77.8414 64.442C77.9301 64.4542 78.0126 64.494 78.0773 64.5558L80.9969 67.3733C81.045 67.4186 81.0816 67.4746 81.1038 67.5367C81.126 67.5989 81.1331 67.6654 81.1246 67.7308C81.1142 67.7957 81.0897 67.8574 81.053 67.9118C81.0162 67.9662 80.968 68.0119 80.9118 68.0458L71.6507 73.3488C71.5829 73.3956 71.5032 73.4222 71.4209 73.4254ZM67.65 70.6505L71.4123 72.5231L79.9755 67.6117L77.6857 65.4071L67.65 70.6505Z" fill="#D1D3D4"/>
<path d="M47.4934 99.5488C47.4094 99.5471 47.3273 99.5236 47.2551 99.4807C47.1612 99.4167 47.0961 99.3185 47.0739 99.2071C47.0516 99.0957 47.0739 98.98 47.1359 98.8848L63.9046 73.3487C63.9671 73.2554 64.0638 73.1905 64.1738 73.1682C64.2838 73.1458 64.3982 73.1679 64.492 73.2295C64.5391 73.2596 64.5796 73.2989 64.6112 73.345C64.6429 73.3911 64.6649 73.4431 64.676 73.4979C64.6871 73.5527 64.6871 73.6092 64.676 73.6639C64.6648 73.7187 64.6428 73.7707 64.6112 73.8168L47.8509 99.353C47.8119 99.4124 47.7589 99.4613 47.6966 99.4954C47.6342 99.5296 47.5645 99.5479 47.4934 99.5488Z" fill="#D1D3D4"/>
<path d="M68.4245 103.72H68.3649C68.2533 103.705 68.152 103.646 68.0834 103.557C68.0148 103.468 67.9844 103.355 67.9989 103.243L71.7017 75.8343C71.7089 75.7784 71.7271 75.7245 71.7552 75.6756C71.7833 75.6268 71.8208 75.5839 71.8654 75.5496C71.9101 75.5152 71.9611 75.4899 72.0155 75.4753C72.0699 75.4606 72.1267 75.4568 72.1826 75.464C72.2385 75.4713 72.2924 75.4895 72.3412 75.5176C72.3901 75.5457 72.4329 75.5831 72.4673 75.6278C72.5017 75.6725 72.527 75.7235 72.5416 75.7779C72.5563 75.8323 72.5601 75.8891 72.5529 75.945L68.8416 103.362C68.8255 103.462 68.7748 103.552 68.6985 103.617C68.6221 103.683 68.5251 103.719 68.4245 103.72Z" fill="#D1D3D4"/>
<path d="M74.3917 74.5146C74.2788 74.5146 74.1705 74.4698 74.0907 74.39C74.0109 74.3102 73.9661 74.2019 73.9661 74.089C74.0256 64.8194 74.4428 53.7367 76.1196 53.5835C77.473 53.5835 78.7328 59.9505 79.8564 72.5058C79.8611 72.5617 79.8546 72.618 79.8374 72.6714C79.8202 72.7249 79.7927 72.7744 79.7563 72.8171C79.7199 72.8598 79.6754 72.8949 79.6254 72.9204C79.5754 72.9458 79.5208 72.9611 79.4649 72.9654C79.4094 72.9713 79.3533 72.966 79.2999 72.9498C79.2465 72.9335 79.1969 72.9068 79.1541 72.8711C79.1112 72.8354 79.076 72.7914 79.0504 72.7418C79.0248 72.6922 79.0095 72.638 79.0052 72.5824C78.2817 64.4704 77.0389 55.7456 76.1537 54.5198C75.362 55.8818 74.8343 65.3386 74.7832 74.0975C74.7815 74.2033 74.7404 74.3046 74.668 74.3817C74.5956 74.4588 74.4971 74.5062 74.3917 74.5146Z" fill="#231F20"/>
<path d="M105.265 131.929L99.3915 149.225L78.1965 138.832C78.1965 138.832 70.3824 149.149 71.7954 149.438C73.2084 149.727 78.1454 148.383 78.1454 148.383C78.1454 148.383 101.792 165.228 104.635 162.734C107.478 160.24 117.131 135.172 117.131 135.172" fill="white"/>
<path d="M103.775 163.372C102.149 163.372 98.5997 162.104 90.1557 156.826C84.4952 153.302 79.0901 149.489 78.1027 148.808C77.1068 149.072 73.0976 150.102 71.7442 149.821C71.6458 149.801 71.5543 149.756 71.4783 149.69C71.4023 149.625 71.3444 149.541 71.31 149.446C70.8334 148.161 75.7704 141.436 77.9154 138.602C77.9697 138.529 78.0479 138.477 78.1365 138.455C78.2251 138.433 78.3185 138.443 78.4006 138.483L99.2041 148.697L104.933 131.818C104.966 131.72 105.036 131.639 105.129 131.593C105.221 131.546 105.328 131.539 105.426 131.571C105.521 131.607 105.599 131.679 105.643 131.771C105.688 131.862 105.695 131.968 105.665 132.065L99.7659 149.327C99.7255 149.43 99.6458 149.513 99.5445 149.557C99.4937 149.58 99.4386 149.592 99.3828 149.592C99.327 149.592 99.2719 149.58 99.2211 149.557L78.307 139.342C75.2086 143.462 72.1357 148.05 72.008 149.097C73.2423 149.233 76.7493 148.382 78.0431 148.025C78.0996 148.012 78.1581 148.01 78.2152 148.02C78.2723 148.031 78.3267 148.052 78.3751 148.084C87.4149 154.528 102.473 164.13 104.379 162.453C106.575 160.529 113.445 143.684 116.773 135.052C116.791 135.004 116.818 134.961 116.853 134.923C116.888 134.886 116.931 134.856 116.977 134.836C117.024 134.815 117.075 134.804 117.126 134.803C117.177 134.802 117.228 134.812 117.275 134.831C117.37 134.869 117.447 134.943 117.489 135.037C117.53 135.131 117.533 135.237 117.496 135.333C117.105 136.355 107.784 160.512 104.899 163.04C104.579 163.288 104.178 163.407 103.775 163.372Z" fill="#231F20"/>
<path d="M142.556 130.005L163.045 169.16C163.045 169.16 174.263 165.134 173.429 166.309C172.595 167.483 156.899 176.949 156.899 176.949L128.29 132.414" fill="white"/>
<path d="M156.899 177.417C156.833 177.416 156.769 177.399 156.711 177.368C156.653 177.337 156.604 177.293 156.567 177.238L127.966 132.703C127.937 132.661 127.917 132.613 127.907 132.562C127.897 132.511 127.898 132.459 127.909 132.409C127.92 132.359 127.942 132.311 127.972 132.27C128.002 132.228 128.041 132.193 128.086 132.167C128.128 132.138 128.175 132.119 128.225 132.109C128.276 132.099 128.327 132.099 128.377 132.109C128.427 132.12 128.474 132.14 128.516 132.169C128.558 132.198 128.594 132.235 128.622 132.278L157.018 176.498C162.364 173.272 170.365 168.309 172.561 166.641C169.392 167.468 166.266 168.457 163.198 169.603C163.111 169.636 163.016 169.636 162.929 169.603C162.843 169.57 162.772 169.507 162.73 169.424L142.233 130.218C142.2 130.128 142.201 130.03 142.236 129.941C142.27 129.853 142.336 129.78 142.42 129.736C142.505 129.692 142.602 129.681 142.695 129.703C142.787 129.726 142.868 129.782 142.922 129.86L163.257 168.76C173.191 165.211 173.6 165.738 173.795 166.002C173.864 166.09 173.902 166.198 173.902 166.309C173.902 166.42 173.864 166.528 173.795 166.615C172.944 167.824 158.763 176.387 157.146 177.357C157.075 177.409 156.986 177.431 156.899 177.417Z" fill="#231F20"/>
<path d="M112.023 70.3097C106.55 75.7319 107.98 85.7676 107.648 94.2797L134.665 98.3995C134.665 98.3995 136.138 74.3615 132.299 70.6843C128.46 67.0071 117.505 64.8876 112.023 70.3097Z" fill="#231F20"/>
<path d="M134.665 98.774H134.606L107.597 94.6542C107.506 94.6399 107.423 94.5933 107.364 94.5229C107.304 94.4526 107.272 94.3632 107.273 94.2711C107.342 92.5687 107.333 90.7386 107.333 88.9767C107.333 81.8521 107.282 74.5062 111.759 70.0373C117.207 64.6492 128.409 66.4367 132.554 70.4119C136.478 74.1742 135.108 97.4376 135.04 98.425C135.036 98.4769 135.022 98.5274 134.997 98.5729C134.972 98.6185 134.937 98.6581 134.895 98.6889C134.832 98.7455 134.75 98.776 134.665 98.774ZM108.04 93.9988L134.308 97.9994C134.478 94.8244 135.44 74.2508 132.044 70.9907C128.647 67.7306 117.786 65.1684 112.287 70.6076C108.031 74.8637 108.031 82.0393 108.082 89.0107C108.091 90.5939 108.091 92.2963 108.04 93.9988Z" fill="#231F20"/>
<path d="M131.873 84.3461L143.237 87.3764L146.225 74.9573L130.46 69.3394L131.873 84.3461Z" fill="#231F20"/>
<path d="M143.237 87.7514H143.135L131.78 84.7297C131.706 84.7099 131.64 84.6685 131.59 84.6109C131.54 84.5532 131.508 84.482 131.499 84.4062L130.094 69.3995C130.086 69.337 130.094 69.2734 130.118 69.2151C130.142 69.1568 130.181 69.1059 130.231 69.0675C130.28 69.0274 130.339 69.0008 130.401 68.9903C130.464 68.9799 130.528 68.9859 130.588 69.0079L146.352 74.6173C146.439 74.65 146.511 74.7127 146.554 74.7941C146.598 74.8754 146.611 74.9699 146.591 75.06L143.595 87.4791C143.585 87.5287 143.565 87.5758 143.536 87.6169C143.506 87.6581 143.468 87.6924 143.424 87.7174C143.366 87.744 143.301 87.7557 143.237 87.7514ZM132.222 84.0572L142.956 86.9173L145.782 75.1962L130.895 69.8932L132.222 84.0572Z" fill="#231F20"/>
<path d="M118.569 66.5049L97.0762 72.2165L100.873 85.2144L120.935 81.5882L118.637 67.8583" fill="#231F20"/>
<path d="M100.872 85.5888C100.792 85.5901 100.714 85.565 100.649 85.5173C100.585 85.4697 100.537 85.4021 100.515 85.3249L96.7016 72.3185C96.6685 72.2249 96.6685 72.1228 96.7016 72.0291C96.753 71.9428 96.8351 71.879 96.9314 71.8504L118.424 66.1473C118.52 66.1213 118.623 66.1345 118.709 66.184C118.795 66.2335 118.858 66.3152 118.884 66.4112C118.91 66.5071 118.897 66.6094 118.847 66.6956C118.798 66.7818 118.716 66.8448 118.62 66.8708L97.5528 72.4803L101.145 84.7887L120.535 81.2902L118.297 67.9263C118.288 67.8777 118.29 67.8279 118.3 67.7797C118.311 67.7316 118.332 67.6861 118.36 67.6458C118.388 67.6055 118.425 67.5712 118.466 67.5448C118.508 67.5185 118.554 67.5006 118.603 67.4922C118.652 67.4838 118.702 67.4851 118.75 67.4959C118.798 67.5068 118.843 67.527 118.884 67.5555C118.924 67.584 118.958 67.6201 118.985 67.6618C119.011 67.7035 119.029 67.75 119.037 67.7986L121.335 81.5286C121.35 81.6265 121.327 81.7264 121.27 81.8074C121.213 81.8883 121.126 81.944 121.029 81.9627L100.958 85.5888H100.872Z" fill="#231F20"/>
<path d="M126.273 63.5767L126.8 68.8371C126.8 68.8371 126.545 71.8333 123.251 71.2375C122.277 71.0496 121.357 70.6464 120.559 70.0573C119.76 69.4682 119.104 68.7081 118.637 67.8327C118.546 67.3876 118.523 66.9312 118.569 66.4793L118.399 63.3979C118.314 61.8402 118.101 60.2399 118.144 58.6822C118.186 57.1245 118.143 55.4987 118.203 53.8899C118.201 53.7962 118.228 53.7042 118.28 53.6261C118.337 53.572 118.413 53.5416 118.493 53.5409C118.933 53.4474 119.388 53.4474 119.829 53.5409C119.855 52.4472 119.726 51.3553 119.446 50.2979C120.375 50.9906 121.094 51.9276 121.523 53.0047C122.615 52.9519 123.71 53.0061 124.791 53.1664C124.933 52.4131 124.829 51.634 124.493 50.9448C124.953 51.5149 125.374 52.1149 125.753 52.7408C126.258 52.906 126.789 52.9753 127.319 52.9451C127.575 52.7238 127.49 51.2427 127.524 50.8426C128.271 51.7855 128.779 52.8953 129.005 54.0772C129.205 56.2957 129.282 58.5236 129.235 60.7507C129.283 61.1453 129.238 61.5458 129.104 61.9201C128.97 62.2944 128.75 62.6322 128.462 62.9067C128.175 63.1811 127.827 63.3846 127.447 63.5009C127.067 63.6173 126.665 63.6432 126.273 63.5767Z" fill="white"/>
<path d="M124.076 71.7058C123.791 71.7028 123.506 71.6743 123.225 71.6206C122.195 71.4199 121.222 70.9938 120.376 70.3728C119.529 69.7517 118.831 68.9512 118.331 68.0286C118.211 67.661 118.17 67.2723 118.212 66.8879C118.22 66.7689 118.22 66.6495 118.212 66.5304L117.982 63.4406C117.982 62.9298 117.905 62.4106 117.863 61.8914C117.757 60.8307 117.712 59.7651 117.726 58.6993C117.726 57.9389 117.726 57.1814 117.726 56.4266C117.726 55.5754 117.726 54.7242 117.726 53.873C117.716 53.6833 117.78 53.4971 117.905 53.3538C118.019 53.2402 118.17 53.1709 118.331 53.158C118.669 53.1066 119.014 53.1066 119.352 53.158C119.333 52.2498 119.208 51.347 118.978 50.4682C118.957 50.3914 118.96 50.3099 118.988 50.2352C119.015 50.1604 119.065 50.0961 119.131 50.0511C119.197 50.0057 119.276 49.9814 119.356 49.9814C119.437 49.9814 119.515 50.0057 119.582 50.0511C120.498 50.728 121.223 51.6314 121.684 52.6728C122.58 52.6443 123.476 52.6842 124.366 52.792C124.403 52.2374 124.294 51.6829 124.051 51.1832C124.015 51.0976 124.012 51.0022 124.04 50.914C124.068 50.8258 124.127 50.7505 124.206 50.7015C124.284 50.6525 124.378 50.633 124.469 50.6464C124.561 50.6597 124.645 50.7052 124.706 50.7746C125.15 51.3138 125.557 51.8826 125.923 52.477C126.274 52.5532 126.63 52.6016 126.987 52.6217C126.987 52.3664 127.03 51.6769 127.03 51.362C127.03 51.047 127.03 50.9534 127.03 50.8512C127.034 50.7737 127.061 50.6991 127.108 50.6374C127.156 50.5757 127.22 50.5298 127.294 50.5058C127.368 50.4818 127.447 50.4808 127.522 50.503C127.596 50.5252 127.662 50.5694 127.711 50.6299C128.509 51.6162 129.048 52.7868 129.277 54.0347C129.497 56.0982 129.577 58.1743 129.516 60.2485V60.8018C129.53 61.2683 129.444 61.7323 129.263 62.1625C129.082 62.5928 128.811 62.9793 128.469 63.2959C127.949 63.7451 127.283 63.9901 126.596 63.9853L127.073 68.7946C127.037 69.2398 126.912 69.6732 126.706 70.0694C126.5 70.4656 126.216 70.8165 125.872 71.1014C125.354 71.4897 124.724 71.7015 124.076 71.7058ZM118.595 53.9411C118.595 54.7923 118.595 55.6435 118.595 56.4266C118.595 57.2097 118.595 57.9588 118.595 58.7249C118.585 59.7594 118.63 60.7936 118.731 61.8233C118.773 62.351 118.824 62.8788 118.85 63.398L119.012 66.4879C119.02 66.6296 119.02 66.7717 119.012 66.9135C118.984 67.1751 118.999 67.4394 119.054 67.6966C119.5 68.5076 120.118 69.2108 120.865 69.7565C121.612 70.3022 122.47 70.677 123.378 70.8546C123.747 70.9544 124.133 70.9741 124.511 70.9124C124.888 70.8508 125.248 70.7092 125.566 70.4971C126.074 70.0663 126.397 69.4568 126.468 68.7946L125.94 63.6023C125.936 63.5439 125.945 63.4853 125.966 63.4306C125.987 63.376 126.02 63.3266 126.062 63.286C126.104 63.2454 126.155 63.2146 126.211 63.1957C126.266 63.1768 126.325 63.1703 126.383 63.1767C126.684 63.2268 126.992 63.2108 127.286 63.13C127.58 63.0491 127.853 62.9053 128.085 62.7085C128.343 62.4645 128.546 62.168 128.679 61.8391C128.813 61.5102 128.875 61.1565 128.86 60.8018V60.2571C128.905 58.2399 128.831 56.2219 128.639 54.2135C128.483 53.4878 128.237 52.7844 127.907 52.1195C127.907 52.7664 127.796 53.1069 127.6 53.2857C127.251 53.6006 125.685 53.1921 125.677 53.1835C125.581 53.141 125.499 53.0734 125.438 52.9878L125.259 52.7069C125.254 52.9014 125.231 53.0951 125.191 53.2857C125.175 53.3846 125.12 53.4729 125.039 53.5318C124.957 53.5907 124.856 53.6154 124.757 53.6006C123.7 53.449 122.632 53.3949 121.565 53.4389C121.484 53.4462 121.403 53.4269 121.334 53.3839C121.265 53.3409 121.211 53.2765 121.182 53.2006C120.922 52.558 120.554 51.9649 120.093 51.4471C120.205 52.1592 120.253 52.8799 120.237 53.6006C120.237 53.6584 120.223 53.7153 120.197 53.767C120.171 53.8187 120.134 53.8638 120.088 53.899C120.042 53.9343 119.989 53.9586 119.932 53.9703C119.875 53.982 119.817 53.9808 119.761 53.9666C119.378 53.8793 118.981 53.8706 118.595 53.9411Z" fill="#231F20"/>
<path d="M126.494 66.165C125.196 66.3083 123.892 65.9488 122.851 65.1605C122.426 64.8336 122.078 64.4185 121.829 63.9438C121.581 63.4691 121.439 62.9462 121.412 62.4111C122.914 63.1944 124.587 63.5949 126.281 63.5773L126.494 66.165Z" fill="#231F20"/>
<path d="M125.941 66.5733C124.731 66.5988 123.551 66.2014 122.604 65.4497C122.134 65.0865 121.749 64.6247 121.477 64.0967C121.205 63.5687 121.052 62.9874 121.029 62.3939C121.032 62.3302 121.052 62.2684 121.086 62.2146C121.121 62.1609 121.168 62.117 121.225 62.0875C121.279 62.0561 121.341 62.0396 121.404 62.0396C121.466 62.0396 121.528 62.0561 121.582 62.0875C123.024 62.8333 124.624 63.2188 126.247 63.211C126.296 63.2064 126.345 63.2116 126.392 63.2263C126.438 63.241 126.482 63.2649 126.519 63.2967C126.556 63.3284 126.587 63.3673 126.609 63.4111C126.631 63.4549 126.644 63.5026 126.647 63.5515L126.86 66.1051C126.867 66.2015 126.838 66.2971 126.778 66.3729C126.718 66.4487 126.632 66.499 126.536 66.5137C126.339 66.5442 126.14 66.5641 125.941 66.5733ZM121.872 63.0493C122.084 63.768 122.508 64.4059 123.089 64.8794C123.943 65.5342 125.002 65.8658 126.077 65.8157L125.923 63.9601C124.524 63.9401 123.145 63.6299 121.872 63.0493Z" fill="#231F20"/>
<path d="M124.553 59.7039C124.369 59.7197 124.184 59.7197 124 59.7039C123.902 59.6892 123.813 59.6361 123.754 59.5563C123.695 59.4765 123.67 59.3765 123.685 59.2783C123.701 59.1794 123.756 59.0911 123.838 59.0322C123.919 58.9733 124.02 58.9486 124.119 58.9634C124.502 59.0229 125.132 58.9634 125.277 58.8187C124.865 57.9542 124.338 57.1495 123.71 56.4268C123.679 56.3888 123.655 56.345 123.641 56.2979C123.627 56.2508 123.622 56.2013 123.626 56.1523C123.631 56.1033 123.645 56.0557 123.669 56.0122C123.692 55.9688 123.723 55.9303 123.761 55.899C123.84 55.8373 123.94 55.8082 124.04 55.8177C124.139 55.8272 124.232 55.8746 124.298 55.9501C126.417 58.5548 126 59.091 125.872 59.2698C125.697 59.4336 125.488 59.5573 125.261 59.6323C125.033 59.7073 124.791 59.7317 124.553 59.7039Z" fill="#231F20"/>
<path d="M119.684 55.8393C119.424 55.1981 119.032 54.6183 118.535 54.1368C118.282 53.9011 117.963 53.7479 117.621 53.6977C117.279 53.6475 116.93 53.7027 116.62 53.8559C116.327 54.0977 116.105 54.415 115.979 54.7736C115.853 55.1321 115.827 55.5183 115.905 55.8903C116.005 56.7505 116.241 57.5894 116.603 58.3759C116.773 58.86 117.066 59.2913 117.454 59.6271C117.651 59.7905 117.895 59.8848 118.151 59.8956C118.406 59.9063 118.658 59.8329 118.867 59.6867" fill="white"/>
<path d="M118.22 60.2998C117.842 60.2932 117.476 60.1682 117.173 59.9423C116.736 59.5655 116.405 59.0815 116.211 58.5378C115.835 57.7302 115.588 56.8685 115.479 55.9842C115.388 55.5385 115.424 55.0759 115.583 54.6498C115.743 54.2237 116.02 53.8512 116.381 53.5753C116.761 53.3805 117.191 53.3063 117.614 53.3625C118.037 53.4188 118.432 53.6029 118.748 53.8903C119.287 54.4004 119.713 55.018 119.999 55.7033C120.027 55.7496 120.046 55.8012 120.053 55.8549C120.06 55.9086 120.056 55.9632 120.041 56.0153C120.026 56.0673 120 56.1157 119.966 56.1574C119.931 56.199 119.888 56.2331 119.84 56.2573C119.791 56.2815 119.738 56.2954 119.684 56.2981C119.63 56.3008 119.576 56.2923 119.525 56.273C119.475 56.2538 119.429 56.2242 119.39 56.1862C119.351 56.1482 119.321 56.1026 119.301 56.0523C119.061 55.4654 118.705 54.9327 118.254 54.4861C118.062 54.3038 117.821 54.1829 117.56 54.1389C117.299 54.0949 117.031 54.1299 116.79 54.2393C116.186 54.6138 116.228 55.6097 116.254 55.9417C116.351 56.7612 116.578 57.56 116.926 58.308C117.069 58.7278 117.318 59.1033 117.65 59.3976C117.774 59.5072 117.931 59.5738 118.097 59.5876C118.262 59.6014 118.428 59.5616 118.569 59.4742C118.65 59.4094 118.753 59.3785 118.856 59.388C118.959 59.3975 119.055 59.4467 119.122 59.5252C119.187 59.6047 119.217 59.7062 119.208 59.808C119.198 59.9098 119.149 60.0038 119.071 60.07C118.823 60.2426 118.522 60.3238 118.22 60.2998Z" fill="#231F20"/>
<path d="M155.869 175.629C155.929 175.706 164.109 170.326 164.109 170.326C164.109 170.326 163.879 167.866 164.534 167.356C165.19 166.845 174.613 164.045 175.396 165.372C176.179 166.7 157.205 179.179 157.205 179.179L155.869 175.629Z" fill="#231F20"/>
<path d="M157.205 179.553H157.095C157.04 179.536 156.99 179.506 156.949 179.466C156.907 179.426 156.876 179.378 156.856 179.324L155.52 175.783C155.486 175.698 155.485 175.605 155.517 175.52C155.548 175.435 155.61 175.365 155.69 175.323H155.758C156.243 175.076 160.687 172.182 163.717 170.216C163.657 169.416 163.623 167.662 164.304 167.134C164.985 166.607 172.518 164.325 174.893 164.776C175.062 164.79 175.226 164.841 175.373 164.925C175.52 165.008 175.647 165.123 175.744 165.262C176.008 165.713 176.408 166.385 166.832 173.161C162.244 176.412 157.469 179.536 157.469 179.57C157.381 179.59 157.29 179.584 157.205 179.553ZM156.354 175.774L157.418 178.609C165.7 173.161 174.476 166.836 175.012 165.5C174.935 165.462 174.851 165.436 174.766 165.423C172.663 164.989 165.326 167.211 164.755 167.628C164.458 167.858 164.372 169.177 164.475 170.267C164.482 170.334 164.47 170.402 164.442 170.464C164.413 170.525 164.369 170.578 164.313 170.616C159.24 174.012 157.205 175.314 156.329 175.774H156.354Z" fill="#231F20"/>
<path d="M80.3841 139.496L74.8342 147.625L76.477 149.651C76.477 149.651 69.361 153.907 68.1182 152.885C66.8754 151.864 77.124 137.657 77.124 137.657L80.3841 139.496Z" fill="#231F20"/>
<path d="M68.6799 153.404C68.3943 153.426 68.1105 153.344 67.8798 153.175C66.6285 152.153 72.0337 144.05 76.7919 137.444C76.8439 137.368 76.9228 137.314 77.0128 137.294C77.1028 137.273 77.1971 137.288 77.2771 137.334L80.5713 139.164C80.6599 139.217 80.7241 139.302 80.75 139.402C80.7632 139.453 80.7655 139.505 80.7567 139.557C80.7479 139.608 80.7282 139.657 80.6989 139.7L75.3023 147.625L76.7664 149.429C76.8018 149.471 76.8271 149.52 76.8403 149.574C76.8536 149.627 76.8545 149.682 76.843 149.736C76.8342 149.788 76.8146 149.838 76.7852 149.882C76.7559 149.926 76.7175 149.963 76.6727 149.991C75.1916 150.859 70.7569 153.404 68.6799 153.404ZM77.192 138.151C72.5869 144.577 68.0755 151.685 68.382 152.621C68.9608 153.081 72.638 151.421 75.9066 149.523L74.5362 147.82C74.4892 147.756 74.4638 147.679 74.4638 147.599C74.4638 147.52 74.4892 147.442 74.5362 147.378L79.8477 139.589L77.192 138.151Z" fill="#231F20"/>
<path d="M124.545 61.653H124.315C123.302 61.5509 122.408 60.8018 121.676 59.3292C121.652 59.2852 121.638 59.2369 121.633 59.1872C121.629 59.1375 121.634 59.0874 121.649 59.0398C121.664 58.9922 121.689 58.9481 121.721 58.9101C121.753 58.8721 121.793 58.841 121.838 58.8185C121.927 58.7733 122.031 58.765 122.126 58.7952C122.221 58.8254 122.301 58.8919 122.348 58.9802C122.953 60.1804 123.642 60.8273 124.391 60.9039C124.802 60.8816 125.203 60.7712 125.567 60.5803C125.931 60.3894 126.25 60.1224 126.502 59.7974C126.533 59.7587 126.571 59.7265 126.614 59.7025C126.657 59.6786 126.705 59.6634 126.754 59.6579C126.803 59.6523 126.852 59.6565 126.9 59.6702C126.947 59.684 126.992 59.7069 127.03 59.7378C127.069 59.7678 127.102 59.8054 127.127 59.8482C127.152 59.8911 127.168 59.9384 127.174 59.9875C127.18 60.0365 127.177 60.0864 127.164 60.1341C127.151 60.1818 127.129 60.2265 127.098 60.2655C126.786 60.6553 126.4 60.9788 125.961 61.2171C125.523 61.4553 125.041 61.6035 124.545 61.653Z" fill="#231F20"/>
<path d="M121.293 55.3289C121.214 55.3271 121.138 55.3035 121.072 55.2608C120.992 55.2013 120.938 55.1128 120.922 55.0142C120.906 54.9157 120.929 54.8148 120.987 54.7331C121.063 54.6309 121.719 53.7542 122.476 53.8393C122.689 53.8718 122.889 53.9632 123.053 54.103C123.217 54.2429 123.338 54.4257 123.404 54.6309C123.43 54.7192 123.423 54.8139 123.384 54.8975C123.346 54.9811 123.279 55.0481 123.195 55.0863C123.112 55.1246 123.017 55.1314 122.929 55.1056C122.841 55.0798 122.764 55.0231 122.715 54.9459C122.663 54.8182 122.544 54.6054 122.4 54.5884C122.255 54.5713 121.795 54.9118 121.599 55.1757C121.564 55.2238 121.518 55.2628 121.465 55.2894C121.411 55.316 121.353 55.3296 121.293 55.3289Z" fill="#231F20"/>
<path d="M127.183 55.4055C127.112 55.405 127.043 55.3849 126.983 55.3473C126.923 55.3097 126.874 55.2562 126.843 55.1927C126.775 55.048 126.494 54.6054 126.179 54.5373C125.864 54.4692 125.813 54.9459 125.813 54.9544C125.783 55.0491 125.718 55.1284 125.63 55.1747C125.542 55.2209 125.439 55.2305 125.345 55.2012C125.297 55.1876 125.252 55.1645 125.214 55.1335C125.175 55.1025 125.143 55.0641 125.119 55.0205C125.095 54.977 125.08 54.9291 125.075 54.8798C125.07 54.8304 125.075 54.7806 125.089 54.7331C125.14 54.4454 125.298 54.1879 125.533 54.0137C125.767 53.8395 126.059 53.7619 126.349 53.7967C126.608 53.8861 126.845 54.0274 127.047 54.2118C127.249 54.3962 127.411 54.6199 127.524 54.8693C127.545 54.9139 127.558 54.9624 127.56 55.0119C127.563 55.0614 127.556 55.111 127.539 55.1577C127.523 55.2044 127.497 55.2474 127.464 55.2841C127.43 55.3208 127.39 55.3505 127.345 55.3715C127.295 55.3956 127.239 55.4073 127.183 55.4055Z" fill="#231F20"/>
<path d="M106.916 90.9604C106.916 90.9604 104.601 106.12 95.6121 143.82C95.6121 143.82 96.7101 150.017 115.752 150.366C134.793 150.715 151.153 137.121 151.153 137.121L136.01 93.9397L106.916 90.9604Z" fill="#DC0E51"/>
<path d="M113.913 98.2123L113.649 67.4838L116.858 66.4453L116.935 98.7486L113.913 98.2123Z" fill="#DC0E51"/>
<path d="M128.852 67.5859L128.401 96.9696L131.209 97.8718L131.899 68.5733L128.852 67.5859Z" fill="#DC0E51"/>
<path d="M78.6221 52.5114C78.3101 52.1426 77.9176 51.8503 77.4749 51.657C77.0322 51.4636 76.5511 51.3745 76.0685 51.3963C75.1109 51.4447 74.1664 51.6399 73.268 51.9751C73.0893 52.0347 72.8679 52.1454 72.8765 52.3326C72.885 52.5199 73.0552 52.588 73.2084 52.6476C74.2296 53.0507 75.3197 53.2502 76.4175 53.2349C76.1595 53.5498 75.9852 53.9249 75.9108 54.3251C75.8364 54.7254 75.8643 55.138 75.9919 55.5246C76.1722 56.6076 76.7228 57.5944 77.5496 58.3166C77.966 58.6679 78.4785 58.8858 79.0205 58.942C79.5624 58.9981 80.1087 58.89 80.5884 58.6315" fill="white"/>
<path d="M79.3797 59.3549C78.6329 59.3492 77.91 59.0912 77.3283 58.6229C76.4351 57.8409 75.8347 56.7782 75.6259 55.6096C75.4559 54.9485 75.4885 54.2516 75.7195 53.6093C74.8156 53.5405 73.9265 53.3398 73.0808 53.0134C72.9295 52.9752 72.7933 52.8921 72.69 52.7752C72.5867 52.6582 72.5212 52.5128 72.502 52.358C72.502 52.1963 72.5019 51.8047 73.1744 51.6004C74.1033 51.2576 75.0794 51.0595 76.0685 51.0131C76.6069 50.9935 77.1427 51.0968 77.6353 51.3151C78.1279 51.5333 78.5643 51.8609 78.9115 52.2729C78.9495 52.3129 78.9787 52.3605 78.997 52.4125C79.0153 52.4646 79.0225 52.5199 79.0179 52.5749C79.0134 52.6299 78.9972 52.6833 78.9706 52.7316C78.9439 52.78 78.9074 52.8221 78.8633 52.8553C78.8192 52.8885 78.7686 52.9121 78.7148 52.9243C78.661 52.9366 78.6052 52.9374 78.5511 52.9266C78.497 52.9158 78.4458 52.8937 78.4008 52.8617C78.3558 52.8297 78.3181 52.7886 78.2901 52.741C78.017 52.4233 77.6748 52.1723 77.2897 52.0071C76.9047 51.8418 76.487 51.7668 76.0685 51.7877C75.1785 51.8363 74.3006 52.017 73.4638 52.3239C74.4105 52.6905 75.4195 52.8698 76.4345 52.8517C76.5128 52.8535 76.5888 52.8777 76.6537 52.9214C76.7186 52.9652 76.7696 53.0267 76.8005 53.0985C76.829 53.1714 76.8345 53.2513 76.8162 53.3274C76.798 53.4035 76.7568 53.4721 76.6984 53.5241C76.4989 53.7977 76.3665 54.1144 76.3118 54.4485C76.2571 54.7826 76.2816 55.1249 76.3834 55.4479C76.5538 56.4357 77.0551 57.3362 77.805 58.0015C78.155 58.2955 78.5839 58.4798 79.0381 58.5313C79.4923 58.5828 79.9517 58.4992 80.3586 58.2909C80.4448 58.2502 80.5429 58.2424 80.6344 58.2689C80.726 58.2954 80.8047 58.3544 80.8559 58.4348C80.9071 58.5152 80.9271 58.6116 80.9124 58.7057C80.8976 58.7999 80.849 58.8854 80.7757 58.9463C80.3578 59.2106 79.8741 59.3522 79.3797 59.3549Z" fill="#231F20"/>
<path d="M123.881 109.959H123.336C114.015 109.653 113.496 99.1916 113.487 99.0895C113.487 98.9734 113.529 98.8611 113.607 98.7746C113.647 98.7319 113.696 98.6984 113.75 98.6764C113.805 98.6544 113.863 98.6443 113.922 98.6469L133.235 98.8341C133.339 98.8375 133.438 98.878 133.515 98.9483C133.592 99.0186 133.64 99.114 133.652 99.2172C133.847 100.635 133.738 102.077 133.333 103.449C132.928 104.821 132.236 106.092 131.303 107.176C129.575 109.015 127.081 109.959 123.881 109.959ZM114.381 99.4981C114.552 101.066 114.977 102.596 115.641 104.026C116.282 105.544 117.356 106.838 118.73 107.746C120.103 108.655 121.715 109.138 123.361 109.134C126.562 109.227 129.03 108.393 130.682 106.58C131.482 105.629 132.084 104.527 132.454 103.341C132.823 102.154 132.953 100.906 132.835 99.6683L114.381 99.4981Z" fill="#231F20"/>
<path d="M55.8437 138.083C55.7287 138.082 55.6185 138.036 55.5373 137.955C55.4977 137.916 55.4662 137.87 55.4447 137.819C55.4232 137.767 55.4121 137.713 55.4121 137.657C55.4121 137.602 55.4232 137.547 55.4447 137.495C55.4662 137.444 55.4977 137.398 55.5373 137.359L91.5944 102.17C91.6328 102.126 91.68 102.09 91.733 102.065C91.786 102.04 91.8436 102.026 91.9022 102.024C91.9608 102.022 92.0192 102.033 92.0737 102.054C92.1281 102.076 92.1775 102.109 92.2186 102.151C92.2598 102.192 92.2919 102.242 92.3129 102.297C92.3339 102.352 92.3434 102.41 92.3407 102.469C92.3381 102.527 92.3233 102.585 92.2974 102.637C92.2715 102.69 92.235 102.737 92.1902 102.775L56.1927 137.963C56.1476 138.009 56.0926 138.043 56.0321 138.064C55.9716 138.084 55.9071 138.091 55.8437 138.083Z" fill="#D1D3D4"/>
<path d="M90.8538 53.8137C90.7918 53.8144 90.7304 53.801 90.6744 53.7744C90.6183 53.7479 90.5691 53.7089 90.5303 53.6605C90.4938 53.6184 90.4661 53.5693 90.4489 53.5163C90.4316 53.4633 90.4252 53.4074 90.43 53.3518C90.4348 53.2963 90.4506 53.2422 90.4766 53.1929C90.5026 53.1436 90.5382 53.1 90.5814 53.0647L101.57 43.8206C101.613 43.7841 101.662 43.7564 101.715 43.7392C101.768 43.7219 101.824 43.7155 101.879 43.7203C101.935 43.725 101.989 43.7409 102.038 43.7669C102.087 43.7929 102.131 43.8285 102.166 43.8717C102.238 43.9591 102.273 44.0713 102.264 44.1842C102.254 44.2972 102.201 44.4019 102.115 44.476L91.1261 53.7116C91.0505 53.7772 90.9539 53.8135 90.8538 53.8137Z" fill="#D1D3D4"/>
<path d="M58.9166 120.488C58.8312 120.487 58.748 120.461 58.678 120.412C58.608 120.363 58.5543 120.294 58.524 120.214C58.4937 120.134 58.4881 120.047 58.5081 119.964C58.528 119.88 58.5725 119.805 58.6357 119.748L70.3909 109.21C70.4755 109.134 70.5868 109.095 70.7001 109.102C70.8134 109.108 70.9196 109.159 70.9952 109.244C71.0709 109.329 71.1097 109.44 71.1034 109.553C71.097 109.667 71.0458 109.773 70.9612 109.848L59.2486 120.386C59.1555 120.462 59.0364 120.499 58.9166 120.488Z" fill="#D1D3D4"/>
<path d="M10.9768 181.162C14.8505 181.162 17.9908 180.671 17.9908 180.064C17.9908 179.458 14.8505 178.966 10.9768 178.966C7.10313 178.966 3.96289 179.458 3.96289 180.064C3.96289 180.671 7.10313 181.162 10.9768 181.162Z" fill="#D1D3D4"/>
<path d="M12.3046 148.187C12.3691 147.202 12.16 146.218 11.7002 145.344C11.2443 144.767 10.8181 144.168 10.4234 143.548C9.88717 142.399 10.2617 140.994 10.134 139.768C10.0246 138.706 9.55623 137.712 8.80614 136.951C8.1422 136.287 7.29099 135.827 6.6611 135.129C5.62263 133.98 5.32471 132.371 4.73738 130.941C3.89739 128.921 2.4445 127.215 0.583495 126.064C1.7156 128.337 -0.855042 131.231 0.31111 133.486C0.677128 134.201 1.38362 134.721 1.65601 135.487C2.31144 137.317 0.132352 139.3 0.804804 141.113C1.1538 142.016 2.12417 142.543 2.57531 143.403C3.17967 144.561 2.70299 145.957 2.75407 147.276C2.94988 149.092 3.83311 150.764 5.22256 151.949C6.07377 152.732 6.92497 153.405 7.82725 154.103C8.87423 154.954 9.31686 155.805 10.2447 154.477C11.5236 152.623 12.239 150.438 12.3046 148.187Z" fill="#D1D3D4"/>
<path d="M13.4707 149.216C13.016 147.834 13.016 146.343 13.4707 144.96C14.1176 143.471 15.7179 142.407 15.9136 140.806C16.0328 139.751 15.4965 138.678 15.7093 137.631C15.9222 136.584 16.7734 135.878 17.4713 135.078C19.0889 133.298 20.0499 131.018 20.1952 128.617C21.2784 129.893 22.1571 131.328 22.7999 132.873C23.1119 133.656 23.2397 134.5 23.1733 135.34C23.1069 136.179 22.848 136.993 22.4168 137.717C22.1458 138.042 21.9249 138.407 21.7614 138.798C21.4465 139.819 22.3232 140.781 22.7829 141.76C23.0521 142.317 23.1642 142.938 23.1072 143.554C23.0502 144.17 22.8263 144.76 22.4594 145.258C21.5316 146.407 19.7526 146.859 19.3014 148.263C19.1874 148.786 19.1332 149.32 19.1397 149.855C19.0413 150.788 18.6637 151.67 18.0563 152.385C17.4489 153.1 16.6398 153.616 15.7349 153.864C14.6453 154.128 14.6709 153.694 14.4751 152.774C14.2453 151.642 13.7686 150.451 13.4707 149.216Z" fill="#D1D3D4"/>
<path d="M9.99767 139.173C9.22307 136.492 8.90813 133.683 8.09097 131.018C7.39434 128.928 6.5407 126.894 5.53735 124.932L8.86556 126.337C9.92957 126.788 11.0872 127.316 11.5894 128.354C12.4406 130.176 10.8914 132.499 11.8192 134.312C12.217 134.896 12.655 135.45 13.1301 135.972C14.109 137.343 13.9813 139.241 13.428 140.841C13.1897 141.531 12.1853 145.097 11.283 144.101C10.9255 143.701 10.8914 142.229 10.7382 141.684C10.5254 140.816 10.236 140.007 9.99767 139.173Z" fill="#D1D3D4"/>
<path d="M11.8194 174.863C11.1555 170.471 9.07851 155.013 9.05298 154.86L9.62328 154.783C9.62328 154.936 11.7258 170.394 12.3897 174.778L11.8194 174.863Z" fill="#D1D3D4"/>
<path d="M12.594 178.966H12.0237C12.0237 173.757 14.2283 153.856 15.4881 152.485L15.9137 152.877C15.0795 153.779 12.6536 171.833 12.594 178.966Z" fill="#D1D3D4"/>
<path d="M13.726 177.979H13.1472C13.6494 166.752 11.266 143.165 11.2405 142.926L11.8108 142.867C11.8363 143.08 14.2282 166.709 13.726 177.979Z" fill="#D1D3D4"/>
<path d="M6.11621 164.257H18.5098L17.6586 176.804C17.5852 177.85 17.1172 178.83 16.3492 179.544C15.5811 180.258 14.5705 180.654 13.5217 180.652H11.1298C10.0819 180.654 9.07224 180.258 8.30561 179.543C7.53899 178.829 7.07277 177.85 7.00147 176.804L6.11621 164.257Z" fill="white"/>
<path d="M13.5047 181.077H11.1128C9.95613 181.076 8.84302 180.636 7.99793 179.846C7.15283 179.056 6.63859 177.975 6.55889 176.821L5.70769 164.274C5.70396 164.217 5.71184 164.16 5.73085 164.106C5.74987 164.052 5.77963 164.002 5.81835 163.96C5.85818 163.916 5.90686 163.881 5.96116 163.858C6.01546 163.834 6.07414 163.822 6.13329 163.823H18.5268C18.5848 163.822 18.6424 163.833 18.6954 163.857C18.7484 163.881 18.7955 163.916 18.8333 163.96C18.8738 164.001 18.9047 164.05 18.9239 164.105C18.943 164.159 18.9498 164.217 18.9439 164.274L18.0927 176.821C18.0087 177.98 17.4885 179.063 16.637 179.853C15.7855 180.643 14.6662 181.08 13.5047 181.077ZM6.56741 164.649L7.41861 176.736C7.48732 177.674 7.90794 178.551 8.59618 179.192C9.28442 179.833 10.1894 180.19 11.1299 180.192H13.5218C14.4622 180.19 15.3672 179.833 16.0554 179.192C16.7437 178.551 17.1643 177.674 17.233 176.736L18.0842 164.649H6.56741Z" fill="#D1D3D4"/>
</svg>
