<svg width="220" height="158" viewBox="0 0 220 158" fill="none" xmlns="http://www.w3.org/2000/svg">
<path d="M219.248 131.027H0.321744C0.236412 131.027 0.154576 130.993 0.0942372 130.933C0.0338983 130.873 0 130.791 0 130.706C0.00178527 130.621 0.0362554 130.54 0.0962116 130.48C0.156168 130.42 0.236972 130.386 0.321744 130.384H219.248C219.333 130.386 219.414 130.42 219.474 130.48C219.534 130.54 219.568 130.621 219.57 130.706C219.57 130.791 219.536 130.873 219.476 130.933C219.415 130.993 219.334 131.027 219.248 131.027Z" fill="#D1D3D4"/>
<path d="M203.308 0.343262H20.4657C18.3913 0.343262 16.7097 2.02489 16.7097 4.09928V112.926C16.7097 115 18.3913 116.682 20.4657 116.682H203.308C205.382 116.682 207.064 115 207.064 112.926V4.09928C207.064 2.02489 205.382 0.343262 203.308 0.343262Z" fill="white"/>
<path d="M203.301 117.031H20.4659C19.3763 117.029 18.332 116.595 17.5622 115.824C16.7924 115.053 16.3601 114.008 16.3601 112.918V4.09875C16.362 3.01105 16.7953 1.96854 17.5651 1.20007C18.3349 0.431608 19.3782 -1.57835e-06 20.4659 0H203.301C204.39 0 205.434 0.432569 206.204 1.20255C206.974 1.97252 207.407 3.01683 207.407 4.10574V112.918C207.407 114.008 206.974 115.053 206.205 115.824C205.435 116.595 204.39 117.029 203.301 117.031ZM20.4659 0.699445C19.5624 0.699445 18.696 1.05832 18.0572 1.69713C17.4184 2.33593 17.0596 3.20234 17.0596 4.10574V112.918C17.0596 113.823 17.4182 114.69 18.0568 115.33C18.6954 115.969 19.5618 116.33 20.4659 116.332H203.301C204.205 116.33 205.071 115.969 205.71 115.33C206.349 114.69 206.707 113.823 206.707 112.918V4.09875C206.705 3.19656 206.346 2.33195 205.707 1.69465C205.068 1.05736 204.203 0.699444 203.301 0.699445H20.4659Z" fill="#231F20"/>
<path d="M101.217 83.7031H27.6911C27.6058 83.7031 27.524 83.6692 27.4636 83.6088C27.4033 83.5485 27.3694 83.4667 27.3694 83.3813C27.3712 83.2965 27.4056 83.2157 27.4656 83.1558C27.5256 83.0958 27.6064 83.0614 27.6911 83.0596H101.217C101.302 83.0614 101.382 83.0958 101.442 83.1558C101.502 83.2157 101.537 83.2965 101.539 83.3813C101.539 83.4236 101.53 83.4654 101.514 83.5044C101.498 83.5435 101.474 83.5789 101.444 83.6088C101.414 83.6387 101.379 83.6624 101.34 83.6786C101.301 83.6947 101.259 83.7031 101.217 83.7031Z" fill="#D1D3D4"/>
<path d="M67.3426 110.75C67.2573 110.75 67.1755 110.716 67.1151 110.656C67.0548 110.595 67.0209 110.514 67.0209 110.428V83.2339C67.0209 83.1485 67.0548 83.0667 67.1151 83.0063C67.1755 82.946 67.2573 82.9121 67.3426 82.9121C67.4274 82.9139 67.5082 82.9484 67.5681 83.0083C67.6281 83.0683 67.6626 83.1491 67.6644 83.2339V110.414C67.6653 110.457 67.6577 110.5 67.642 110.541C67.6264 110.581 67.6029 110.618 67.573 110.649C67.5432 110.68 67.5074 110.705 67.4679 110.722C67.4284 110.74 67.3858 110.749 67.3426 110.75Z" fill="#D1D3D4"/>
<path d="M194.166 65.5869H109.617C109.532 65.5869 109.45 65.553 109.39 65.4927C109.329 65.4323 109.295 65.3505 109.295 65.2652C109.294 65.2227 109.302 65.1804 109.318 65.1409C109.334 65.1015 109.357 65.0656 109.387 65.0355C109.418 65.0055 109.453 64.9818 109.493 64.966C109.532 64.9501 109.575 64.9425 109.617 64.9434H194.166C194.209 64.9425 194.251 64.9501 194.29 64.966C194.33 64.9818 194.366 65.0055 194.396 65.0355C194.426 65.0656 194.449 65.1015 194.465 65.1409C194.481 65.1804 194.489 65.2227 194.488 65.2652C194.488 65.3505 194.454 65.4323 194.394 65.4927C194.333 65.553 194.251 65.5869 194.166 65.5869Z" fill="#D1D3D4"/>
<path d="M194.166 73.8549H109.617C109.575 73.8559 109.532 73.8482 109.493 73.8324C109.453 73.8165 109.418 73.7929 109.387 73.7628C109.357 73.7327 109.334 73.6969 109.318 73.6574C109.302 73.6179 109.294 73.5757 109.295 73.5332C109.295 73.4478 109.329 73.366 109.39 73.3057C109.45 73.2453 109.532 73.2114 109.617 73.2114H194.166C194.251 73.2114 194.333 73.2453 194.394 73.3057C194.454 73.366 194.488 73.4478 194.488 73.5332C194.489 73.5757 194.481 73.6179 194.465 73.6574C194.449 73.6969 194.426 73.7327 194.396 73.7628C194.366 73.7929 194.33 73.8165 194.29 73.8324C194.251 73.8482 194.209 73.8559 194.166 73.8549Z" fill="#D1D3D4"/>
<path d="M194.166 82.1288H109.617C109.532 82.1288 109.45 82.0949 109.39 82.0346C109.329 81.9743 109.295 81.8924 109.295 81.8071C109.295 81.7218 109.329 81.6399 109.39 81.5796C109.45 81.5193 109.532 81.4854 109.617 81.4854H194.166C194.208 81.4854 194.25 81.4937 194.289 81.5098C194.328 81.526 194.364 81.5497 194.394 81.5796C194.424 81.6095 194.447 81.6449 194.463 81.684C194.48 81.723 194.488 81.7648 194.488 81.8071C194.488 81.8494 194.48 81.8912 194.463 81.9302C194.447 81.9693 194.424 82.0047 194.394 82.0346C194.364 82.0645 194.328 82.0882 194.289 82.1043C194.25 82.1205 194.208 82.1288 194.166 82.1288Z" fill="#D1D3D4"/>
<path d="M194.166 90.4029H109.617C109.539 90.3914 109.468 90.3523 109.416 90.2926C109.365 90.2329 109.336 90.1566 109.336 90.0777C109.336 89.9988 109.365 89.9225 109.416 89.8628C109.468 89.8031 109.539 89.7639 109.617 89.7524H194.166C194.244 89.7639 194.315 89.8031 194.367 89.8628C194.419 89.9225 194.447 89.9988 194.447 90.0777C194.447 90.1566 194.419 90.2329 194.367 90.2926C194.315 90.3523 194.244 90.3914 194.166 90.4029Z" fill="#D1D3D4"/>
<path d="M194.166 98.6713H109.617C109.532 98.6713 109.45 98.6374 109.39 98.5771C109.329 98.5168 109.295 98.4349 109.295 98.3496C109.295 98.2642 109.329 98.1824 109.39 98.1221C109.45 98.0617 109.532 98.0278 109.617 98.0278H194.166C194.208 98.0278 194.25 98.0362 194.289 98.0523C194.328 98.0685 194.364 98.0922 194.394 98.1221C194.424 98.1519 194.447 98.1874 194.463 98.2265C194.48 98.2655 194.488 98.3073 194.488 98.3496C194.488 98.3918 194.48 98.4337 194.463 98.4727C194.447 98.5117 194.424 98.5472 194.394 98.5771C194.364 98.607 194.328 98.6307 194.289 98.6468C194.25 98.663 194.208 98.6713 194.166 98.6713Z" fill="#D1D3D4"/>
<path d="M198.503 54.4243H100.818C100.733 54.4243 100.651 54.3904 100.591 54.33C100.53 54.2697 100.496 54.1878 100.496 54.1025C100.498 54.0177 100.533 53.9369 100.593 53.877C100.653 53.817 100.733 53.7825 100.818 53.7808H198.503C198.587 53.7825 198.668 53.817 198.728 53.877C198.788 53.9369 198.823 54.0177 198.824 54.1025C198.824 54.1878 198.79 54.2697 198.73 54.33C198.67 54.3904 198.588 54.4243 198.503 54.4243Z" fill="#D1D3D4"/>
<path d="M141.505 23.7744H110.806C110.003 23.7744 109.351 24.4258 109.351 25.2293V45.1635C109.351 45.9669 110.003 46.6183 110.806 46.6183H141.505C142.308 46.6183 142.96 45.9669 142.96 45.1635V25.2293C142.96 24.4258 142.308 23.7744 141.505 23.7744Z" fill="#DC0E51"/>
<path d="M101.084 110.093C101.041 110.093 100.999 110.086 100.96 110.07C100.92 110.054 100.884 110.03 100.854 110C100.824 109.97 100.801 109.935 100.785 109.895C100.769 109.856 100.761 109.813 100.762 109.771V17.1782C100.762 17.0929 100.796 17.011 100.856 16.9507C100.917 16.8903 100.999 16.8564 101.084 16.8564C101.169 16.8582 101.249 16.8927 101.309 16.9527C101.369 17.0126 101.404 17.0934 101.406 17.1782V109.771C101.406 109.813 101.397 109.855 101.381 109.894C101.365 109.933 101.341 109.968 101.311 109.998C101.282 110.028 101.246 110.052 101.207 110.068C101.168 110.084 101.126 110.093 101.084 110.093Z" fill="#D1D3D4"/>
<path d="M199.153 17.2695H24.2917C24.2064 17.2695 24.1245 17.2356 24.0642 17.1752C24.0039 17.1149 23.97 17.0331 23.97 16.9477C23.9718 16.863 24.0062 16.7821 24.0662 16.7222C24.1261 16.6622 24.2069 16.6278 24.2917 16.626H199.153C199.239 16.626 199.322 16.6596 199.383 16.7198C199.445 16.7799 199.48 16.8618 199.482 16.9477C199.482 16.9906 199.473 17.033 199.457 17.0725C199.44 17.112 199.416 17.1478 199.385 17.1777C199.355 17.2077 199.318 17.2313 199.278 17.247C199.239 17.2628 199.196 17.2704 199.153 17.2695Z" fill="#D1D3D4"/>
<path d="M195.551 110.988H28.2156C27.1261 110.988 26.0811 110.556 25.31 109.786C24.5389 109.016 24.1048 107.972 24.1029 106.882V10.142C24.1048 9.05184 24.5387 8.00682 25.3095 7.23593C26.0804 6.46504 27.1254 6.03115 28.2156 6.0293H195.551C196.641 6.03115 197.686 6.46504 198.457 7.23593C199.228 8.00682 199.662 9.05184 199.664 10.142V106.882C199.662 107.972 199.228 109.016 198.457 109.786C197.686 110.556 196.641 110.988 195.551 110.988ZM28.2156 6.72874C27.3109 6.73059 26.4438 7.0908 25.8041 7.73052C25.1644 8.37023 24.8042 9.23734 24.8024 10.142V106.882C24.8042 107.786 25.1646 108.653 25.8045 109.291C26.4445 109.93 27.3116 110.289 28.2156 110.289H195.551C196.455 110.289 197.322 109.93 197.962 109.291C198.602 108.653 198.962 107.786 198.964 106.882V10.142C198.962 9.23734 198.602 8.37023 197.962 7.73052C197.323 7.0908 196.456 6.73059 195.551 6.72874H28.2156Z" fill="#231F20"/>
<path d="M131.258 116.716L111.184 116.667L91.1167 116.716C91.1167 116.716 89.3471 134.902 77.8273 142.687H144.561C133.028 134.923 131.258 116.716 131.258 116.716Z" fill="white"/>
<path d="M144.554 143.036H77.8133C77.7395 143.036 77.6676 143.012 77.6084 142.968C77.5491 142.924 77.5057 142.862 77.4846 142.791C77.4605 142.72 77.4612 142.642 77.4866 142.571C77.512 142.5 77.5606 142.44 77.6245 142.4C88.8786 134.818 90.7461 116.863 90.7671 116.681C90.7758 116.595 90.8164 116.514 90.8811 116.456C90.9458 116.398 91.0298 116.366 91.1168 116.366L111.184 116.317L131.258 116.366C131.345 116.367 131.428 116.4 131.492 116.458C131.556 116.516 131.598 116.595 131.608 116.681C131.608 116.863 133.496 134.818 144.75 142.4C144.812 142.442 144.858 142.503 144.883 142.573C144.908 142.643 144.911 142.72 144.89 142.791C144.868 142.863 144.823 142.925 144.763 142.969C144.702 143.013 144.629 143.037 144.554 143.036ZM78.9115 142.337H143.463C133.531 134.86 131.244 119.458 130.95 117.066L111.184 117.017L91.4246 117.066C91.1238 119.458 88.8436 134.86 78.9115 142.337Z" fill="#231F20"/>
<path d="M149.611 142.687H72.7633C70.8859 142.687 69.364 144.209 69.364 146.086V146.212C69.364 148.09 70.8859 149.612 72.7633 149.612H149.611C151.489 149.612 153.011 148.09 153.011 146.212V146.086C153.011 144.209 151.489 142.687 149.611 142.687Z" fill="white"/>
<path d="M149.611 149.968H72.7633C71.7696 149.967 70.8171 149.571 70.1144 148.868C69.4117 148.166 69.0161 147.213 69.0143 146.219V146.086C69.0161 145.093 69.4117 144.14 70.1144 143.438C70.8171 142.735 71.7696 142.339 72.7633 142.337H149.611C150.605 142.339 151.558 142.735 152.26 143.438C152.963 144.14 153.359 145.093 153.36 146.086V146.219C153.359 147.213 152.963 148.166 152.26 148.868C151.558 149.571 150.605 149.967 149.611 149.968ZM72.7633 143.037C71.9551 143.039 71.1805 143.361 70.609 143.932C70.0375 144.504 69.7156 145.278 69.7137 146.086V146.219C69.7156 147.028 70.0375 147.802 70.609 148.374C71.1805 148.945 71.9551 149.267 72.7633 149.269H149.611C150.42 149.267 151.194 148.945 151.766 148.374C152.337 147.802 152.659 147.028 152.661 146.219V146.086C152.659 145.278 152.337 144.504 151.766 143.932C151.194 143.361 150.42 143.039 149.611 143.037H72.7633Z" fill="#231F20"/>
<path d="M35.4129 14.3458C36.622 14.3458 37.6022 13.3656 37.6022 12.1566C37.6022 10.9475 36.622 9.96729 35.4129 9.96729C34.2038 9.96729 33.2236 10.9475 33.2236 12.1566C33.2236 13.3656 34.2038 14.3458 35.4129 14.3458Z" fill="#DC0E51"/>
<path d="M43.9671 14.3458C45.1762 14.3458 46.1564 13.3656 46.1564 12.1566C46.1564 10.9475 45.1762 9.96729 43.9671 9.96729C42.758 9.96729 41.7778 10.9475 41.7778 12.1566C41.7778 13.3656 42.758 14.3458 43.9671 14.3458Z" fill="#231F20"/>
<path d="M52.5284 14.3458C53.7375 14.3458 54.7176 13.3656 54.7176 12.1566C54.7176 10.9475 53.7375 9.96729 52.5284 9.96729C51.3193 9.96729 50.3391 10.9475 50.3391 12.1566C50.3391 13.3656 51.3193 14.3458 52.5284 14.3458Z" fill="#231F20"/>
<path d="M39.4138 126.201L45.1213 147.15C45.1213 147.15 55.1373 149.479 54.9135 150.122C54.6897 150.766 39.141 152.871 39.141 152.871L32.5312 128.698" fill="white"/>
<path d="M39.1409 153.22C39.0643 153.22 38.99 153.194 38.9294 153.148C38.8687 153.101 38.8251 153.036 38.8052 152.962L32.1954 128.761C32.1828 128.717 32.1791 128.671 32.1846 128.625C32.1901 128.579 32.2048 128.536 32.2276 128.496C32.2504 128.456 32.281 128.421 32.3175 128.393C32.3541 128.366 32.3958 128.345 32.4402 128.334C32.5293 128.311 32.624 128.323 32.7039 128.369C32.7838 128.415 32.8423 128.49 32.8669 128.579L39.3997 152.479C44.5336 151.78 52.3185 150.611 54.2629 150.052C51.2436 149.016 48.1652 148.162 45.0442 147.492C44.9831 147.478 44.9269 147.448 44.8813 147.405C44.8358 147.362 44.8027 147.307 44.7854 147.247L39.078 126.264C39.0539 126.171 39.0676 126.073 39.1161 125.99C39.1646 125.907 39.244 125.847 39.3368 125.823C39.4295 125.799 39.5281 125.813 39.6107 125.861C39.6933 125.91 39.7533 125.989 39.7774 126.082L45.4359 146.883C49.0171 147.723 54.8365 149.178 55.2282 149.912C55.2776 150.022 55.2899 150.144 55.2631 150.262C55.1792 150.514 54.9764 151.115 39.1759 153.241L39.1409 153.22Z" fill="#231F20"/>
<path d="M21.6549 119.228L20.0112 150.982C20.0112 150.982 35.6578 154.375 35.7138 153.969C35.7697 153.563 27.3204 147.527 27.3204 147.527L29.7755 124.963" fill="white"/>
<path d="M35.5738 154.325C34.8044 154.325 31.9087 153.927 19.9062 151.325C19.8242 151.307 19.7512 151.26 19.7001 151.194C19.6489 151.127 19.6228 151.045 19.6264 150.961L21.2701 119.213C21.2748 119.12 21.3161 119.033 21.3849 118.971C21.4538 118.909 21.5446 118.876 21.6373 118.881C21.7301 118.885 21.8172 118.927 21.8795 118.996C21.9418 119.064 21.9742 119.155 21.9696 119.248L20.3399 150.723C25.18 151.772 32.4193 153.269 34.8184 153.605C33.4195 152.409 29.5655 149.625 27.0475 147.834C26.998 147.798 26.9589 147.749 26.9343 147.692C26.9098 147.636 26.9006 147.574 26.9077 147.513L29.3487 124.928C29.3531 124.882 29.3665 124.837 29.3883 124.796C29.41 124.755 29.4397 124.719 29.4754 124.69C29.5112 124.661 29.5524 124.639 29.5967 124.626C29.641 124.612 29.6875 124.608 29.7334 124.613C29.8269 124.623 29.9125 124.67 29.9715 124.744C30.0304 124.817 30.058 124.911 30.0482 125.004L27.6141 147.387C36.1124 153.43 36.0564 153.787 36.0074 154.045C35.9886 154.143 35.9337 154.231 35.8536 154.29C35.8536 154.29 35.7906 154.325 35.5738 154.325Z" fill="#231F20"/>
<path d="M48.4297 146.961L46.3313 150.178L38.0779 151.151L38.8892 154.312C38.8892 154.312 57.0748 152.039 57.4595 150.381C57.8442 148.724 48.4297 146.961 48.4297 146.961Z" fill="#231F20"/>
<path d="M18.5214 151.71L18.997 148.464L28.5514 151.08L30.4119 148.625C30.4119 148.625 37.4064 153.703 36.4552 154.794C35.5039 155.885 25.1521 153.913 18.5214 151.71Z" fill="#231F20"/>
<path d="M15.3178 41.6938C16.2448 41.4199 17.2399 41.4945 18.1156 41.9037C18.6707 40.5965 19.5392 39.4462 20.6445 38.5544C21.7497 37.6627 23.0576 37.0569 24.4526 36.7907C25.4238 36.6319 26.4061 36.5501 27.3903 36.5459C28.8591 36.5459 30.4398 36.6368 31.5869 37.5391C32.2456 38.1295 32.7258 38.8925 32.9731 39.7418C33.2203 40.5911 33.2247 41.4926 32.9858 42.3443C32.1325 45.8415 29.4886 46.7018 27.0895 48.6813C25.9255 49.704 24.9924 50.9626 24.3521 52.3735C23.7117 53.7844 23.3788 55.3154 23.3754 56.8648C23.3754 63.7613 25.5577 71.3853 17.9967 75.526C13.1775 78.1559 6.6447 76.1205 3.41326 71.679C2.68617 70.7171 2.14963 69.625 1.83251 68.4616C1.04214 65.3211 2.41305 62.0337 4.13369 59.2919C5.85433 56.55 7.63092 54.067 9.07177 51.2552C10.3168 48.8072 10.4707 45.8555 12.2752 43.6593C13.0587 42.7018 14.1229 42.0144 15.3178 41.6938Z" fill="white"/>
<path d="M13.2964 77.0439C11.327 77.0255 9.38878 76.5496 7.63477 75.6538C5.88076 74.7579 4.35895 73.4667 3.18946 71.882C2.43696 70.8839 1.88149 69.7516 1.55275 68.5456C0.853308 65.8108 1.62969 62.7193 3.8959 59.1031C4.3925 58.3128 4.9031 57.5364 5.4067 56.76C6.64538 54.9341 7.78479 53.0429 8.81999 51.0945C9.27913 50.1149 9.65807 49.0997 9.9531 48.0589C10.3479 46.3969 11.0604 44.827 12.0514 43.4355C12.8644 42.4276 13.9684 41.6948 15.2129 41.3372C16.1175 41.0709 17.0837 41.1028 17.9687 41.4281C18.5741 40.1412 19.4784 39.0176 20.6064 38.1513C21.7343 37.285 23.053 36.701 24.4526 36.4481C25.4425 36.2869 26.4433 36.2027 27.4462 36.1963C28.929 36.1963 30.6077 36.2802 31.8807 37.2594C32.5993 37.8877 33.1258 38.7064 33.3993 39.6209C33.6728 40.5354 33.6822 41.5087 33.4265 42.4284C32.727 45.2261 31.0204 46.3942 29.2298 47.6462C28.6423 48.0519 28.0338 48.4716 27.4462 48.9472C26.3211 49.9357 25.4193 51.1524 24.8006 52.5163C24.182 53.8802 23.8607 55.3602 23.8581 56.8579C23.8581 58.1099 23.935 59.4109 24.005 60.6699C24.3337 66.4053 24.7044 72.3436 18.2975 75.8269C16.7616 76.6526 15.04 77.0716 13.2964 77.0439ZM15.3948 42.0297C14.2954 42.3448 13.319 42.9892 12.597 43.8762C11.6614 45.1972 10.9893 46.6862 10.6176 48.2617C10.3156 49.3422 9.92246 50.3952 9.4425 51.4092C8.39772 53.3798 7.2466 55.2921 5.99423 57.1377C5.49063 57.9141 4.98004 58.6905 4.49042 59.4738C2.32914 62.9221 1.59472 65.8318 2.23122 68.3778C2.53883 69.4957 3.05629 70.5448 3.75601 71.4693C7.0504 76.0017 13.3944 77.6804 17.8918 75.2183C23.8791 71.938 23.5713 66.4823 23.2356 60.7049C23.1656 59.4389 23.0887 58.1309 23.0887 56.8649C23.091 55.2628 23.4354 53.6796 24.0989 52.2213C24.7623 50.763 25.7294 49.4631 26.9356 48.4086C27.5441 47.912 28.1597 47.4853 28.7612 47.0727C30.5518 45.8416 32.0975 44.7785 32.7061 42.2675C33.0628 40.8196 32.797 38.8822 31.4191 37.812C30.3209 36.9657 28.7752 36.8748 27.4252 36.8957C26.4595 36.8959 25.4955 36.9778 24.5435 37.1405C23.2066 37.3935 21.9528 37.9728 20.8937 38.8269C19.8345 39.6811 19.0028 40.7837 18.4723 42.0367C18.4303 42.1208 18.3577 42.1858 18.2695 42.2185C18.1813 42.25 18.0849 42.25 17.9967 42.2185C17.187 41.8382 16.2652 41.771 15.4088 42.0297H15.3948Z" fill="#231F20"/>
<path d="M38.1758 64.6432C36.623 65.2377 34.0701 65.7903 33.4056 63.636C33.3031 63.2533 33.27 62.8553 33.3077 62.4609C33.3706 61.8805 33.4758 61.3054 33.6224 60.7403C34.0389 59.1587 34.5863 57.6146 35.2591 56.1239C35.42 55.7462 35.7417 55.2916 36.1334 55.4245C36.5251 55.5574 36.5111 55.9701 36.5041 56.3198C36.5041 57.292 36.3433 58.2782 36.3642 59.2505C38.4206 58.7259 39.7146 56.5506 41.673 56.082C42.2256 55.9561 42.8971 55.9141 42.96 56.6275C43.03 57.5088 41.4352 58.2013 40.9036 58.6559C41.5 58.1441 42.1851 57.7458 42.925 57.4809C43.1317 57.3907 43.358 57.3546 43.5825 57.3759C43.6957 57.3916 43.8007 57.4438 43.8815 57.5246C43.9623 57.6054 44.0145 57.7104 44.0302 57.8236C44.0243 57.9157 44.0003 58.0058 43.9595 58.0887C43.9187 58.1715 43.8619 58.2454 43.7924 58.3062C43.4877 58.6505 43.1504 58.9644 42.7851 59.2435C43.145 58.8144 43.637 58.5168 44.184 58.3971C44.32 58.3488 44.4676 58.3436 44.6066 58.3825C44.7456 58.4213 44.8692 58.5021 44.9604 58.614C45.1912 58.9847 44.7506 59.4043 44.3729 59.6212C44.6725 59.3508 45.04 59.167 45.436 59.0896C45.6339 59.0561 45.8371 59.0998 46.0037 59.2117C46.1703 59.3237 46.2876 59.4952 46.3313 59.6911C46.3236 59.8475 46.2821 60.0004 46.2097 60.1393C46.1372 60.2782 46.0356 60.3997 45.9117 60.4955C43.9113 62.4889 40.7777 63.65 38.1758 64.6432Z" fill="white"/>
<path d="M35.6927 65.5236C35.2112 65.5379 34.7328 65.4422 34.2938 65.2439C33.9935 65.0951 33.7284 64.884 33.5161 64.6247C33.3038 64.3654 33.1493 64.0638 33.0628 63.7401C32.9409 63.3155 32.9005 62.8717 32.9439 62.4321C33.0073 61.8328 33.1148 61.239 33.2656 60.6555C33.6918 59.0443 34.2534 57.4719 34.9443 55.9552C35.252 55.2558 35.7486 54.8921 36.2522 55.0669C36.539 55.1649 36.8817 55.4586 36.8608 56.2979C36.8608 56.7176 36.8608 57.1373 36.7908 57.557C36.7209 57.9766 36.7349 58.3473 36.7209 58.739C37.4868 58.3811 38.1942 57.9094 38.8192 57.3401C39.6021 56.605 40.5387 56.0531 41.561 55.7244C41.7788 55.6484 42.01 55.6184 42.24 55.6365C42.47 55.6546 42.6937 55.7202 42.897 55.8293C43.0118 55.918 43.1053 56.0312 43.1706 56.1607C43.236 56.2902 43.2715 56.4327 43.2747 56.5777C43.2866 56.7241 43.27 56.8714 43.2257 57.0114C43.3554 56.9904 43.4877 56.9904 43.6174 57.0114C43.801 57.0479 43.968 57.1423 44.0939 57.2808C44.2198 57.4193 44.298 57.5946 44.3168 57.7808C44.3244 57.8552 44.3244 57.9302 44.3168 58.0046C44.4944 57.9775 44.676 58.0012 44.8406 58.073C45.0052 58.1448 45.1462 58.2617 45.2471 58.4103C45.3067 58.5033 45.3449 58.6084 45.359 58.718C45.6905 58.6853 46.0218 58.7832 46.2823 58.9908C46.382 59.0701 46.4649 59.1684 46.5262 59.2801C46.5874 59.3918 46.6258 59.5146 46.639 59.6413C46.6368 59.8485 46.5886 60.0526 46.4979 60.2389C46.4071 60.4252 46.2762 60.589 46.1144 60.7184C44.128 62.6769 41.1763 63.81 38.5814 64.8102L38.2317 64.9501C37.4231 65.2811 36.565 65.475 35.6927 65.5236ZM35.9934 55.7314C35.8815 55.7314 35.7067 55.9482 35.5808 56.235C34.9117 57.7257 34.3689 59.2699 33.9581 60.8513C33.8161 61.4002 33.7155 61.959 33.6573 62.523C33.6244 62.875 33.6528 63.2299 33.7412 63.5722C33.8014 63.8028 33.9098 64.0181 34.0593 64.2038C34.2088 64.3895 34.396 64.5413 34.6085 64.6493C35.6367 65.1459 37.2035 64.6493 38.0498 64.3486L38.3995 64.2157C40.9315 63.2364 43.8063 62.1173 45.6948 60.2778C45.8346 60.1379 46.0235 59.9281 46.0095 59.7602C46.0009 59.6914 45.9658 59.6286 45.9116 59.5853C45.7952 59.4979 45.6511 59.4557 45.5059 59.4664C45.2989 59.5003 45.1026 59.5817 44.9324 59.7042C44.8223 59.8 44.7027 59.8844 44.5756 59.9561C44.4977 59.9994 44.4063 60.0119 44.3196 59.9912C44.2328 59.9704 44.157 59.918 44.107 59.8441C44.0592 59.7699 44.0414 59.6803 44.0569 59.5933C44.0725 59.5064 44.1204 59.4286 44.1909 59.3755L44.5057 59.1447C44.5935 59.078 44.6612 58.9885 44.7015 58.8859C44.6596 58.767 44.4917 58.732 44.2749 58.774C44.0437 58.8223 43.8217 58.9073 43.6174 59.0258C43.4197 59.2141 43.2119 59.3915 42.9949 59.5574C42.9268 59.6135 42.84 59.6419 42.7519 59.6367C42.6638 59.6316 42.5809 59.5933 42.5198 59.5296C42.4587 59.4659 42.424 59.3814 42.4226 59.2932C42.4212 59.2049 42.4533 59.1194 42.5123 59.0538C42.7142 58.8235 42.9501 58.6254 43.2117 58.4662C43.3306 58.3543 43.4425 58.2354 43.5544 58.1095C43.6664 57.9836 43.7013 57.9137 43.7013 57.8717C43.7013 57.8297 43.6314 57.7738 43.5405 57.7598C43.3775 57.7493 43.2144 57.7781 43.0648 57.8437C42.806 57.9363 42.5536 58.0461 42.3094 58.1725C42.1066 58.3193 41.8968 58.4522 41.7009 58.5781C41.5115 58.6927 41.3292 58.8188 41.1554 58.9558C41.1213 58.9885 41.081 59.014 41.0368 59.0307C40.9927 59.0474 40.9456 59.055 40.8984 59.053C40.8513 59.0511 40.805 59.0395 40.7624 59.0192C40.7198 58.9989 40.6817 58.9701 40.6505 58.9347C40.6194 58.8992 40.5957 58.8578 40.5809 58.813C40.5661 58.7681 40.5606 58.7208 40.5646 58.6737C40.5687 58.6267 40.5822 58.581 40.6044 58.5393C40.6266 58.4976 40.657 58.4609 40.6937 58.4313C41.0704 58.1083 41.4808 57.8269 41.9177 57.5919C42.3094 57.3051 42.6172 56.9834 42.6172 56.6966C42.6172 56.5218 42.5403 56.4728 42.5193 56.4588C42.4983 56.4448 42.2605 56.3469 41.7639 56.4588C40.8427 56.7675 40.0001 57.2735 39.2948 57.9416C38.4947 58.6971 37.5401 59.2698 36.497 59.6203C36.446 59.6344 36.3923 59.6367 36.3402 59.627C36.2881 59.6173 36.2389 59.5959 36.1963 59.5644C36.1549 59.5315 36.1209 59.4902 36.0968 59.4431C36.0727 59.3961 36.0589 59.3444 36.0564 59.2916C36.0564 58.711 36.0564 58.1305 36.1263 57.5639C36.1613 57.1583 36.1893 56.7526 36.1963 56.3469C36.2033 55.9412 36.1333 55.8153 36.0564 55.7943L35.9934 55.7314Z" fill="#231F20"/>
<path d="M36.4622 59.3413C36.9315 59.9086 37.1934 60.619 37.2049 61.3551C37.2163 62.0913 36.9766 62.8095 36.5251 63.3911H36.728" fill="white"/>
<path d="M36.525 63.7409C36.4596 63.7402 36.3957 63.7216 36.3402 63.687C36.2847 63.6525 36.2397 63.6034 36.2102 63.545C36.1809 63.4845 36.1693 63.417 36.1767 63.3501C36.1842 63.2833 36.2103 63.2199 36.2522 63.1673C36.6518 62.6505 36.8639 62.0132 36.8537 61.36C36.8435 60.7067 36.6117 60.0763 36.1963 59.5722C36.136 59.5017 36.1062 59.4101 36.1134 59.3176C36.1206 59.2252 36.1642 59.1394 36.2347 59.0791C36.3052 59.0188 36.3968 58.989 36.4892 58.9962C36.5817 59.0034 36.6675 59.047 36.7278 59.1175C37.2045 59.6876 37.4917 60.3921 37.5494 61.133C37.607 61.8739 37.4323 62.6143 37.0496 63.2513C37.0527 63.2862 37.0527 63.3213 37.0496 63.3562C37.0524 63.4021 37.0462 63.4482 37.0312 63.4917C37.0162 63.5352 36.9927 63.5753 36.9622 63.6098C36.9316 63.6442 36.8946 63.6723 36.8532 63.6924C36.8118 63.7125 36.7668 63.7242 36.7208 63.7269H36.518L36.525 63.7409Z" fill="#231F20"/>
<path d="M85.738 36.4976H39.2179C37.9276 36.4976 36.8817 37.5435 36.8817 38.8337V58.4532C36.8817 59.7434 37.9276 60.7893 39.2179 60.7893H85.738C87.0282 60.7893 88.0741 59.7434 88.0741 58.4532V38.8337C88.0741 37.5435 87.0282 36.4976 85.738 36.4976Z" fill="white"/>
<path d="M85.738 61.1383H39.2179C38.8651 61.1383 38.5159 61.0689 38.19 60.9339C37.8642 60.7989 37.5681 60.6011 37.3187 60.3517C37.0692 60.1023 36.8714 59.8062 36.7364 59.4803C36.6015 59.1544 36.532 58.8052 36.532 58.4525V38.868C36.532 38.1557 36.815 37.4725 37.3187 36.9688C37.8224 36.4651 38.5055 36.1821 39.2179 36.1821H85.738C86.4503 36.1821 87.1335 36.4651 87.6372 36.9688C88.1409 37.4725 88.4239 38.1557 88.4239 38.868V58.4874C88.4147 59.1937 88.1276 59.8679 87.6249 60.3641C87.1222 60.8602 86.4443 61.1384 85.738 61.1383ZM39.2179 36.8466C38.691 36.8466 38.1858 37.0559 37.8132 37.4284C37.4407 37.8009 37.2314 38.3062 37.2314 38.833V58.4525C37.2314 58.9793 37.4407 59.4846 37.8132 59.8571C38.1858 60.2296 38.691 60.4389 39.2179 60.4389H85.738C86.2648 60.4389 86.7701 60.2296 87.1426 59.8571C87.5151 59.4846 87.7244 58.9793 87.7244 58.4525V38.868C87.7244 38.3412 87.5151 37.8359 87.1426 37.4634C86.7701 37.0909 86.2648 36.8816 85.738 36.8816L39.2179 36.8466Z" fill="#231F20"/>
<path d="M48.6814 55.1446C52.2701 55.1446 55.1793 52.2354 55.1793 48.6468C55.1793 45.0581 52.2701 42.1489 48.6814 42.1489C45.0928 42.1489 42.1836 45.0581 42.1836 48.6468C42.1836 52.2354 45.0928 55.1446 48.6814 55.1446Z" fill="#231F20"/>
<path d="M82.4646 45.5481H61.824C61.7312 45.5481 61.6423 45.5112 61.5767 45.4456C61.5111 45.3801 61.4742 45.2911 61.4742 45.1984C61.4742 45.1056 61.5111 45.0166 61.5767 44.9511C61.6423 44.8855 61.7312 44.8486 61.824 44.8486H82.4646C82.5574 44.8486 82.6463 44.8855 82.7119 44.9511C82.7775 45.0166 82.8143 45.1056 82.8143 45.1984C82.8143 45.2911 82.7775 45.3801 82.7119 45.4456C82.6463 45.5112 82.5574 45.5481 82.4646 45.5481Z" fill="#231F20"/>
<path d="M82.4646 48.9963H61.824C61.7312 48.9963 61.6423 48.9595 61.5767 48.8939C61.5111 48.8283 61.4742 48.7393 61.4742 48.6466C61.4742 48.5538 61.5111 48.4649 61.5767 48.3993C61.6423 48.3337 61.7312 48.2969 61.824 48.2969H82.4646C82.5574 48.2969 82.6463 48.3337 82.7119 48.3993C82.7775 48.4649 82.8143 48.5538 82.8143 48.6466C82.8143 48.7393 82.7775 48.8283 82.7119 48.8939C82.6463 48.9595 82.5574 48.9963 82.4646 48.9963Z" fill="#231F20"/>
<path d="M75.2953 52.4582H61.824C61.7312 52.4582 61.6423 52.4214 61.5767 52.3558C61.5111 52.2902 61.4742 52.2013 61.4742 52.1085C61.4742 52.0158 61.5111 51.9268 61.5767 51.8612C61.6423 51.7956 61.7312 51.7588 61.824 51.7588H75.2953C75.388 51.7588 75.477 51.7956 75.5426 51.8612C75.6082 51.9268 75.645 52.0158 75.645 52.1085C75.645 52.2013 75.6082 52.2902 75.5426 52.3558C75.477 52.4214 75.388 52.4582 75.2953 52.4582Z" fill="#231F20"/>
<path d="M37.742 64.3911C37.742 64.3911 46.0515 69.9307 49.2829 68.2661C52.5143 66.6014 59.1661 60.6981 59.1661 60.6981C59.1661 60.6981 60.7398 56.8161 62.1247 57.0889C63.5096 57.3617 62.2156 61.0618 62.2156 61.0618C62.2156 61.0618 70.4341 59.6629 70.3432 60.5092C70.2523 61.3555 65.9087 63.3699 63.9712 63.7407C62.0338 64.1114 55.0323 75.1976 50.3321 76.4915C45.6318 77.7855 40.9105 74.9178 35.8256 71.7773" fill="white"/>
<path d="M47.9121 77.1627C43.8623 77.1627 39.8475 74.6797 35.6368 72.0778C35.597 72.0541 35.5624 72.0227 35.535 71.9853C35.5077 71.948 35.4882 71.9055 35.4777 71.8604C35.4673 71.8153 35.4661 71.7685 35.4742 71.7229C35.4823 71.6773 35.4995 71.6339 35.5249 71.5951C35.5478 71.5555 35.5786 71.521 35.6154 71.4938C35.6521 71.4665 35.694 71.447 35.7386 71.4365C35.7831 71.4261 35.8293 71.4248 35.8744 71.4328C35.9194 71.4408 35.9624 71.458 36.0005 71.4832C40.9456 74.5328 45.6109 77.4215 50.2273 76.1555C52.9411 75.4071 56.5223 71.1965 59.411 67.8181C61.7191 65.1043 63.0691 63.5655 63.9294 63.3976C65.8319 63.0339 69.2662 61.3483 69.9166 60.5999C68.9864 60.446 65.4682 60.8517 62.2927 61.3902C62.2334 61.3997 62.1726 61.3938 62.1162 61.3729C62.0599 61.3521 62.0098 61.3171 61.9709 61.2713C61.9308 61.225 61.9037 61.1688 61.8927 61.1086C61.8816 61.0483 61.8869 60.9861 61.908 60.9286C62.2437 59.9564 62.6494 58.1938 62.2997 57.5852C62.2798 57.5405 62.2488 57.5016 62.2096 57.4722C62.1705 57.4428 62.1244 57.4239 62.0759 57.4174C61.3275 57.2635 60.1034 59.3478 59.5159 60.8027C59.4939 60.8521 59.4631 60.8972 59.425 60.9356C59.1452 61.1804 52.7033 66.8949 49.4649 68.5596C46.0935 70.2942 37.91 64.8875 37.5743 64.6566C37.5064 64.602 37.4614 64.524 37.4481 64.4378C37.4347 64.3517 37.454 64.2637 37.5021 64.1911C37.5503 64.1185 37.6238 64.0664 37.7083 64.0451C37.7928 64.0239 37.8822 64.0349 37.959 64.0761C40.2252 65.5869 46.6531 69.224 49.1501 67.937C52.1507 66.3983 58.2429 61.0615 58.9004 60.467C59.2501 59.6276 60.684 56.4242 62.2227 56.7249C62.3708 56.7529 62.5106 56.8141 62.6317 56.9037C62.7528 56.9933 62.8521 57.1091 62.9222 57.2425C63.3908 58.0609 63.0131 59.7255 62.7543 60.6068C65.643 60.1312 69.9586 59.5437 70.5811 60.1312C70.6332 60.183 70.6733 60.2455 70.6987 60.3143C70.724 60.3832 70.7341 60.4568 70.728 60.5299C70.5951 61.691 65.7689 63.7404 64.0693 64.0621C63.4118 64.188 61.6562 66.2514 59.9565 68.2588C57.0119 71.7071 53.3538 76.0086 50.4301 76.813C49.6105 77.0433 48.7634 77.161 47.9121 77.1627Z" fill="#231F20"/>
<path d="M34.5806 83.8213C35.28 88.6544 35.4269 90.5569 42.3164 130.111C42.3164 130.111 26.2292 133.895 20.0181 135.007C15.8215 126.355 13.926 118.57 11.0652 109.414C9.21169 103.476 7.8058 95.523 10.4707 89.9064C10.8973 89.0111 15.0101 80.2891 15.0101 80.2891C15.0101 80.2891 34.6086 83.9961 34.5806 83.8213Z" fill="#231F20"/>
<path d="M20.5356 61.8449C20.7804 56.564 19.7173 45.8555 19.7173 45.8555C19.7173 45.8555 26.4459 46.2402 28.7052 43.0088C31.5029 45.1771 32.0485 51.2902 31.5029 53.1228C30.5027 56.7319 25.8164 55.9206 25.8164 55.9206L26.411 62.5233L20.5356 61.8449Z" fill="white"/>
<path d="M26.4459 62.8872L20.5286 62.1877C20.4409 62.1772 20.3603 62.1339 20.3032 62.0664C20.2461 61.9989 20.2167 61.9123 20.2209 61.824C20.4657 56.6341 19.4165 45.9956 19.4025 45.8907C19.3987 45.8398 19.4055 45.7887 19.4223 45.7406C19.4392 45.6924 19.4658 45.6483 19.5004 45.6109C19.5362 45.5755 19.5789 45.5479 19.6258 45.5298C19.6728 45.5118 19.723 45.5036 19.7732 45.506C19.8362 45.506 26.334 45.8417 28.4533 42.8061C28.4804 42.7668 28.5153 42.7335 28.5557 42.7081C28.5961 42.6828 28.6413 42.666 28.6885 42.6588C28.7357 42.6516 28.7839 42.6541 28.83 42.6662C28.8762 42.6783 28.9194 42.6997 28.957 42.7292C31.8596 45.0024 32.4542 51.2764 31.9156 53.2208C31.0273 56.3963 27.5231 56.4313 26.2711 56.3334L26.8306 62.5165C26.8371 62.5681 26.8309 62.6205 26.8126 62.6693C26.7944 62.718 26.7645 62.7616 26.7257 62.7962C26.6885 62.8308 26.6442 62.8569 26.5959 62.8726C26.5475 62.8883 26.4964 62.8933 26.4459 62.8872ZM20.8993 61.5512L26.0612 62.1598L25.5017 55.9557C25.495 55.9013 25.5016 55.8461 25.5211 55.7949C25.5406 55.7437 25.5724 55.698 25.6136 55.6619C25.6527 55.6262 25.6996 55.6 25.7506 55.5854C25.8016 55.5708 25.8552 55.5683 25.9074 55.578C26.0892 55.578 30.2999 56.2774 31.2022 53.011C31.6358 51.4582 31.2022 45.7927 28.7611 43.4986C26.5718 46.1215 21.5778 46.2264 20.102 46.2054C20.2908 48.1638 21.0672 56.788 20.8993 61.5512Z" fill="#231F20"/>
<path d="M25.8514 55.9555C24.7922 55.8268 23.7884 55.4108 22.9487 54.7524C22.9487 54.7524 24.2287 57.9559 26.2012 58.4315L25.8514 55.9555Z" fill="#231F20"/>
<path d="M26.2013 58.7533H26.1244C24.026 58.2357 22.7111 55.0182 22.6271 54.8784C22.6002 54.8103 22.5973 54.735 22.619 54.6651C22.6406 54.5952 22.6854 54.5347 22.746 54.4937C22.8085 54.454 22.8825 54.4365 22.9562 54.4441C23.0298 54.4517 23.0987 54.484 23.1517 54.5356C24.019 55.4099 25.8446 55.6407 25.8586 55.6477C25.9291 55.655 25.9951 55.6859 26.0459 55.7355C26.0967 55.785 26.1293 55.8502 26.1383 55.9205L26.4881 58.3966C26.4973 58.4477 26.4931 58.5003 26.476 58.5494C26.4588 58.5984 26.4292 58.6421 26.3901 58.6763C26.3369 58.7214 26.2708 58.7483 26.2013 58.7533ZM23.7532 55.6617C24.2167 56.5879 24.9225 57.371 25.7956 57.9279L25.5508 56.2143C24.9302 56.109 24.3259 55.9232 23.7532 55.6617Z" fill="#231F20"/>
<path d="M30.9224 59.124L46.3102 67.5174L42.5961 78.2678C42.5961 78.2678 23.2845 68.049 23.1516 65.2791C23.0187 62.5093 30.9224 59.124 30.9224 59.124Z" fill="#DC0E51"/>
<path d="M34.8184 85.7171C35.7738 80.2975 35.8517 74.7595 35.0492 69.3151C34.4617 65.762 34.6925 63.2649 33.5104 61.3415C29.5585 54.8856 14.1568 56.8091 11.9185 61.2925C9.6803 65.7759 13.856 82.143 13.856 82.143L34.8184 85.7171Z" fill="#DC0E51"/>
<path d="M20.8155 49.6117C20.7296 49.1965 20.5316 48.8127 20.2431 48.502C19.9546 48.1913 19.5865 47.9655 19.1788 47.8491C18.9947 47.7924 18.8009 47.7743 18.6096 47.796C18.4182 47.8177 18.2334 47.8786 18.0667 47.975C17.8681 48.1441 17.7172 48.3621 17.6289 48.6075C17.5406 48.8529 17.5179 49.1171 17.5631 49.3739C17.6223 50.1768 17.9849 50.927 18.5772 51.4722C19.1678 52.0146 19.9438 52.31 20.7455 52.2976" fill="white"/>
<path d="M20.7035 52.6052C19.8286 52.6063 18.9851 52.2793 18.3394 51.689C17.6857 51.0838 17.2837 50.2548 17.2133 49.3668C17.1661 49.0539 17.202 48.7341 17.3174 48.4395C17.4328 48.1448 17.6236 47.8857 17.8708 47.6881C18.0777 47.5602 18.3098 47.4783 18.5512 47.4481C18.7926 47.418 19.0376 47.4402 19.2697 47.5133C19.7398 47.6464 20.1645 47.9058 20.4975 48.2635C20.8305 48.6211 21.059 49.0632 21.1582 49.5417C21.1747 49.6334 21.1546 49.7279 21.1024 49.805C21.0501 49.8821 20.9697 49.9357 20.8784 49.9543C20.7875 49.9707 20.6939 49.9504 20.6179 49.898C20.5419 49.8456 20.4897 49.7653 20.4727 49.6745C20.396 49.3237 20.2253 49.0004 19.9788 48.7392C19.7324 48.478 19.4196 48.2888 19.0738 48.1917C18.9403 48.1444 18.7982 48.1261 18.6571 48.1381C18.5159 48.1502 18.379 48.1923 18.2555 48.2617C18.1168 48.3955 18.012 48.5605 17.95 48.743C17.8879 48.9255 17.8704 49.1202 17.8988 49.3108C17.9491 50.0225 18.2693 50.688 18.7941 51.1714C19.3234 51.6445 20.015 51.895 20.7245 51.8708C20.8167 51.8726 20.9046 51.91 20.9698 51.9752C21.035 52.0404 21.0725 52.1283 21.0742 52.2205C21.0742 52.3133 21.0374 52.4022 20.9718 52.4678C20.9062 52.5334 20.8173 52.5703 20.7245 52.5703L20.7035 52.6052Z" fill="#231F20"/>
<path d="M29.0996 47.0243C29.2692 46.9713 29.3265 46.6713 29.2275 46.3542C29.1286 46.0371 28.9108 45.8229 28.7412 45.8758C28.5716 45.9288 28.5143 46.2288 28.6133 46.5459C28.7122 46.863 28.9299 47.0772 29.0996 47.0243Z" fill="#231F20"/>
<path d="M30.349 53.3817C29.9308 53.6502 29.4729 53.8508 28.9921 53.9762C28.6788 54.0945 28.3396 54.1264 28.0098 54.0686C27.68 54.0107 27.3718 53.8653 27.1176 53.6475C26.936 53.4245 26.8005 53.1678 26.7189 52.8921" fill="white"/>
<path d="M28.2506 54.431C27.9919 54.4459 27.7331 54.4048 27.4917 54.3107C27.2503 54.2165 27.032 54.0715 26.8517 53.8855C26.6383 53.6285 26.4789 53.3312 26.3831 53.0112C26.3663 52.9685 26.3583 52.9229 26.3595 52.8771C26.3607 52.8313 26.371 52.7862 26.3899 52.7445C26.4088 52.7028 26.4359 52.6652 26.4696 52.6342C26.5032 52.6031 26.5428 52.5791 26.5859 52.5635C26.6291 52.5467 26.6751 52.5386 26.7214 52.5396C26.7677 52.5407 26.8133 52.551 26.8556 52.5699C26.8979 52.5888 26.9361 52.6159 26.9678 52.6496C26.9995 52.6833 27.0243 52.723 27.0405 52.7664C27.1072 53.0023 27.2188 53.2232 27.3693 53.4168C27.7959 53.8855 28.6493 53.7106 28.9011 53.6407C29.3438 53.5205 29.7659 53.3342 30.1531 53.0881C30.231 53.0381 30.3256 53.0211 30.4161 53.0408C30.5065 53.0605 30.5855 53.1152 30.6357 53.193C30.6614 53.2313 30.6791 53.2744 30.6877 53.3197C30.6963 53.365 30.6957 53.4116 30.6859 53.4566C30.6761 53.5017 30.6573 53.5443 30.6307 53.582C30.604 53.6196 30.57 53.6514 30.5308 53.6756C30.0816 53.9632 29.5909 54.1803 29.0759 54.3191C28.8067 54.3912 28.5293 54.4288 28.2506 54.431Z" fill="#231F20"/>
<path d="M30.3909 47.0654C30.3909 47.0654 33.0907 50.143 32.4263 50.8075C31.7618 51.4719 30.202 51.1432 30.202 51.1432" fill="white"/>
<path d="M31.0623 51.5769C30.7478 51.5746 30.4342 51.5442 30.1251 51.4859C30.08 51.476 30.0373 51.4573 29.9995 51.4307C29.9616 51.4042 29.9294 51.3705 29.9047 51.3315C29.88 51.2925 29.8633 51.2489 29.8555 51.2034C29.8477 51.1579 29.849 51.1113 29.8593 51.0663C29.8684 51.0214 29.8864 50.9789 29.9122 50.9411C29.938 50.9033 29.9711 50.8711 30.0096 50.8463C30.048 50.8216 30.0911 50.8048 30.1361 50.7969C30.1812 50.789 30.2274 50.7902 30.272 50.8005C30.6567 50.8774 31.7478 50.9963 32.1815 50.5627C32.3283 50.2549 31.3491 48.6951 30.1251 47.2963C30.0606 47.2297 30.0245 47.1406 30.0245 47.0479C30.0245 46.9553 30.0606 46.8662 30.1251 46.7996C30.157 46.7671 30.1951 46.7412 30.2371 46.7235C30.2792 46.7059 30.3243 46.6968 30.3699 46.6968C30.4155 46.6968 30.4606 46.7059 30.5027 46.7235C30.5447 46.7412 30.5828 46.7671 30.6147 46.7996C31.7058 48.0377 33.4125 50.2409 32.6431 50.9963C32.2077 51.3814 31.6434 51.5886 31.0623 51.5769Z" fill="#231F20"/>
<path d="M42.5683 78.6456C42.5099 78.6451 42.4523 78.6307 42.4005 78.6036C42.2956 78.5477 31.678 72.8752 27.8031 70.7698C27.7628 70.7486 27.7272 70.7195 27.6983 70.6843C27.6694 70.6491 27.6478 70.6085 27.6348 70.5649C27.6218 70.5212 27.6176 70.4755 27.6224 70.4302C27.6273 70.3849 27.6412 70.3411 27.6632 70.3012C27.6845 70.2601 27.7138 70.2237 27.7494 70.194C27.7849 70.1643 27.826 70.142 27.8703 70.1284C27.9145 70.1147 27.961 70.11 28.0071 70.1144C28.0532 70.1189 28.098 70.1324 28.1388 70.1543C32.0067 72.2527 42.6243 77.9252 42.7292 77.9881C42.7701 78.0088 42.8064 78.0374 42.836 78.0723C42.8656 78.1073 42.8879 78.1478 42.9015 78.1914C42.9152 78.2351 42.92 78.2811 42.9157 78.3267C42.9113 78.3722 42.8978 78.4165 42.8761 78.4567C42.8468 78.5132 42.8027 78.5607 42.7485 78.594C42.6943 78.6272 42.632 78.6451 42.5683 78.6456Z" fill="#231F20"/>
<path d="M174.833 83.4647L176.127 83.4297C176.686 83.4066 177.239 83.5472 177.719 83.8342C178.198 84.1213 178.584 84.5423 178.827 85.0454L204.07 154.787C204.406 155.71 203.734 156.487 202.573 156.522L201.286 156.557C200.727 156.578 200.174 156.436 199.694 156.149C199.213 155.863 198.826 155.443 198.58 154.941L173.358 85.1923C173.029 84.269 173.693 83.4927 174.833 83.4647Z" fill="white"/>
<path d="M201.23 156.907C200.612 156.918 200.003 156.749 199.478 156.422C198.953 156.094 198.534 155.621 198.272 155.06L173.029 85.3326C172.939 85.1048 172.906 84.8587 172.931 84.6152C172.957 84.3717 173.041 84.138 173.176 83.9337C173.372 83.6794 173.626 83.4751 173.917 83.3377C174.207 83.2004 174.526 83.1337 174.847 83.1433L176.134 83.1084C176.765 83.0866 177.389 83.249 177.929 83.5756C178.47 83.9022 178.903 84.3791 179.177 84.9479L204.42 154.697C204.51 154.924 204.544 155.171 204.518 155.414C204.493 155.658 204.409 155.892 204.273 156.096C204.078 156.349 203.825 156.553 203.536 156.691C203.246 156.828 202.929 156.895 202.608 156.886L201.314 156.921L201.23 156.907ZM174.868 83.8148C174.658 83.803 174.448 83.8405 174.255 83.9243C174.062 84.0081 173.891 84.1359 173.756 84.2974C173.682 84.4113 173.637 84.5416 173.625 84.6769C173.613 84.8123 173.634 84.9485 173.686 85.0738L198.929 154.823C199.151 155.255 199.491 155.616 199.909 155.864C200.328 156.111 200.807 156.235 201.293 156.221L202.587 156.186C202.798 156.194 203.007 156.153 203.199 156.069C203.392 155.984 203.563 155.857 203.699 155.697C203.773 155.582 203.816 155.452 203.827 155.316C203.838 155.181 203.816 155.045 203.762 154.92L178.519 85.1717C178.302 84.7358 177.963 84.372 177.544 84.1238C177.124 83.8757 176.642 83.7538 176.155 83.7729L174.868 83.8078V83.8148Z" fill="#D1D3D4"/>
<path d="M176.232 88.9413L152.787 89.34C152.364 89.3544 151.945 89.2466 151.582 89.0296C151.219 88.8125 150.925 88.4953 150.737 88.116C150.486 87.4165 150.996 86.829 151.871 86.808L175.316 86.4093C175.739 86.3931 176.158 86.5002 176.522 86.7174C176.886 86.9347 177.179 87.2529 177.365 87.6333C177.631 88.3328 177.127 88.9203 176.232 88.9413Z" fill="white"/>
<path d="M152.745 89.69C152.259 89.6968 151.781 89.5631 151.369 89.305C150.957 89.047 150.629 88.6755 150.423 88.2352C150.348 88.0483 150.321 87.846 150.343 87.646C150.365 87.446 150.436 87.2545 150.549 87.0881C150.704 86.8851 150.906 86.7221 151.137 86.6126C151.368 86.5031 151.622 86.4503 151.878 86.4586L175.323 86.0319C175.82 86.0091 176.313 86.1353 176.738 86.3946C177.163 86.6538 177.501 87.0342 177.708 87.4868C177.782 87.6722 177.81 87.8729 177.79 88.0715C177.769 88.2701 177.7 88.4607 177.589 88.6269C177.435 88.8316 177.234 88.9963 177.002 89.107C176.771 89.2178 176.517 89.2714 176.26 89.2634L152.815 89.6621L152.745 89.69ZM175.386 86.7314H175.344L151.892 87.1301C151.747 87.121 151.602 87.146 151.468 87.2031C151.334 87.2601 151.216 87.3477 151.122 87.4588C151.075 87.5344 151.047 87.6202 151.039 87.709C151.032 87.7978 151.046 87.8871 151.08 87.9694C151.241 88.2817 151.488 88.5414 151.791 88.7175C152.095 88.8935 152.443 88.9786 152.794 88.9626L176.239 88.5639C176.384 88.573 176.529 88.548 176.663 88.4909C176.797 88.4338 176.915 88.3463 177.009 88.2352C177.058 88.1603 177.087 88.0743 177.094 87.9852C177.102 87.8961 177.087 87.8065 177.051 87.7246C176.893 87.4205 176.654 87.1664 176.36 86.9909C176.066 86.8155 175.728 86.7256 175.386 86.7314Z" fill="#D1D3D4"/>
<path d="M179.772 98.671L156.326 99.0697C155.903 99.0858 155.484 98.9788 155.12 98.7615C154.756 98.5443 154.463 98.2261 154.277 97.8456C154.025 97.1462 154.529 96.5586 155.41 96.5377L178.855 96.139C179.278 96.1246 179.697 96.2323 180.06 96.4494C180.424 96.6665 180.717 96.9837 180.905 97.363C181.128 98.0624 180.646 98.622 179.772 98.671Z" fill="white"/>
<path d="M156.263 99.4193C155.778 99.4255 155.302 99.2916 154.891 99.0335C154.48 98.7754 154.153 98.4042 153.948 97.9644C153.874 97.779 153.846 97.5783 153.867 97.3797C153.887 97.1811 153.956 96.9905 154.067 96.8243C154.222 96.619 154.425 96.4541 154.657 96.3433C154.89 96.2326 155.145 96.1793 155.403 96.1878L178.848 95.7891C179.344 95.7718 179.835 95.9004 180.259 96.159C180.683 96.4176 181.022 96.7948 181.233 97.244C181.307 97.4307 181.335 97.6324 181.314 97.832C181.293 98.0317 181.225 98.2234 181.114 98.3911C180.957 98.5938 180.754 98.7565 180.522 98.8658C180.29 98.9752 180.035 99.0283 179.778 99.0206L156.333 99.4193H156.263ZM178.911 96.5236H178.862L155.417 96.9222C155.272 96.9126 155.126 96.9373 154.993 96.9945C154.859 97.0516 154.741 97.1395 154.647 97.251C154.599 97.3259 154.569 97.4118 154.562 97.501C154.554 97.5901 154.569 97.6797 154.605 97.7616C154.765 98.0745 155.012 98.3346 155.316 98.5108C155.62 98.687 155.968 98.7717 156.319 98.7548L179.764 98.3561C179.91 98.3658 180.055 98.341 180.189 98.2839C180.322 98.2268 180.441 98.1389 180.534 98.0274C180.581 97.9517 180.609 97.866 180.617 97.7772C180.624 97.6883 180.61 97.5991 180.576 97.5168C180.417 97.2137 180.178 96.9605 179.884 96.7852C179.59 96.6099 179.253 96.5193 178.911 96.5236Z" fill="#D1D3D4"/>
<path d="M183.29 108.414L159.844 108.806C159.422 108.823 159.003 108.717 158.639 108.501C158.276 108.285 157.982 107.968 157.795 107.589C157.543 106.89 158.054 106.302 158.928 106.274L182.373 105.882C182.797 105.864 183.217 105.971 183.581 106.188C183.945 106.406 184.238 106.725 184.423 107.106C184.675 107.799 184.171 108.414 183.29 108.414Z" fill="white"/>
<path d="M159.788 109.156C159.302 109.162 158.825 109.029 158.413 108.771C158.001 108.512 157.672 108.141 157.466 107.701C157.391 107.514 157.363 107.311 157.385 107.111C157.407 106.911 157.478 106.72 157.592 106.554C157.748 106.351 157.95 106.187 158.18 106.077C158.411 105.966 158.665 105.911 158.921 105.917L182.366 105.525C182.863 105.503 183.356 105.63 183.781 105.889C184.205 106.148 184.543 106.528 184.751 106.98C184.826 107.166 184.854 107.366 184.833 107.565C184.812 107.764 184.743 107.954 184.633 108.12C184.477 108.324 184.275 108.487 184.044 108.598C183.814 108.709 183.56 108.763 183.304 108.757L159.858 109.149L159.788 109.156ZM182.429 106.225H182.387L158.935 106.617C158.79 106.611 158.646 106.637 158.513 106.694C158.38 106.751 158.261 106.837 158.166 106.945C158.118 107.022 158.09 107.109 158.084 107.2C158.077 107.29 158.094 107.38 158.131 107.463C158.289 107.775 158.534 108.034 158.837 108.21C159.14 108.385 159.488 108.468 159.837 108.449L183.283 108.057C183.427 108.065 183.572 108.039 183.705 107.982C183.839 107.925 183.957 107.838 184.052 107.729C184.101 107.654 184.13 107.568 184.138 107.479C184.145 107.39 184.13 107.3 184.094 107.218C183.936 106.914 183.697 106.66 183.403 106.484C183.109 106.309 182.772 106.219 182.429 106.225Z" fill="#D1D3D4"/>
<path d="M186.815 118.136L163.369 118.535C162.946 118.551 162.527 118.444 162.163 118.227C161.799 118.01 161.507 117.692 161.32 117.311C161.068 116.612 161.572 116.024 162.453 116.003L185.899 115.604C186.322 115.589 186.74 115.697 187.104 115.914C187.468 116.131 187.761 116.449 187.948 116.828C188.2 117.507 187.689 118.115 186.815 118.136Z" fill="white"/>
<path d="M163.307 118.906C162.822 118.912 162.345 118.778 161.934 118.52C161.524 118.262 161.196 117.891 160.991 117.451C160.918 117.264 160.89 117.063 160.911 116.863C160.932 116.663 161 116.472 161.11 116.304C161.267 116.101 161.47 115.938 161.703 115.828C161.935 115.719 162.19 115.666 162.446 115.674L185.892 115.276C186.389 115.255 186.881 115.382 187.305 115.641C187.73 115.9 188.068 116.279 188.277 116.731C188.351 116.916 188.379 117.117 188.358 117.315C188.337 117.514 188.269 117.704 188.158 117.871C188.002 118.075 187.799 118.24 187.567 118.351C187.335 118.462 187.079 118.515 186.822 118.507L163.377 118.906H163.307ZM185.955 115.975H185.906L162.46 116.374C162.315 116.364 162.17 116.389 162.036 116.446C161.903 116.503 161.784 116.591 161.691 116.703C161.642 116.777 161.613 116.863 161.605 116.953C161.598 117.042 161.613 117.131 161.649 117.213C161.809 117.525 162.056 117.785 162.36 117.961C162.664 118.137 163.012 118.222 163.363 118.206L186.808 117.808C186.953 117.817 187.098 117.793 187.232 117.735C187.366 117.678 187.484 117.59 187.577 117.479C187.625 117.403 187.653 117.318 187.66 117.229C187.668 117.14 187.654 117.051 187.619 116.968C187.464 116.661 187.226 116.403 186.932 116.224C186.638 116.044 186.299 115.951 185.955 115.954V115.975Z" fill="#D1D3D4"/>
<path d="M190.333 127.872L166.888 128.264C166.465 128.281 166.047 128.174 165.684 127.956C165.321 127.739 165.03 127.421 164.845 127.04C164.587 126.341 165.097 125.76 165.971 125.732L189.417 125.34C189.84 125.322 190.259 125.427 190.623 125.643C190.987 125.86 191.28 126.177 191.466 126.558C191.718 127.257 191.214 127.844 190.333 127.872Z" fill="white"/>
<path d="M166.832 128.614C166.346 128.622 165.87 128.488 165.459 128.23C165.048 127.972 164.721 127.6 164.517 127.16C164.439 126.975 164.41 126.774 164.431 126.574C164.451 126.375 164.522 126.184 164.635 126.02C164.79 125.815 164.992 125.651 165.223 125.54C165.454 125.429 165.708 125.376 165.964 125.383L189.41 124.991C189.906 124.969 190.398 125.094 190.823 125.352C191.247 125.61 191.586 125.988 191.795 126.439C191.869 126.626 191.897 126.828 191.876 127.027C191.856 127.227 191.787 127.419 191.676 127.586C191.519 127.788 191.318 127.951 191.087 128.062C190.856 128.172 190.603 128.227 190.347 128.223L166.902 128.614H166.832ZM189.473 125.684H189.431L165.978 126.075C165.834 126.07 165.69 126.096 165.557 126.153C165.423 126.21 165.305 126.296 165.209 126.404C165.163 126.48 165.136 126.566 165.13 126.655C165.124 126.744 165.139 126.833 165.174 126.915C165.333 127.227 165.578 127.487 165.881 127.663C166.184 127.839 166.531 127.924 166.881 127.908L190.326 127.516C190.471 127.524 190.616 127.498 190.749 127.441C190.882 127.384 191.001 127.297 191.095 127.188C191.144 127.111 191.174 127.024 191.181 126.934C191.188 126.844 191.173 126.753 191.137 126.67C190.979 126.367 190.739 126.115 190.445 125.94C190.151 125.766 189.814 125.677 189.473 125.684Z" fill="#D1D3D4"/>
<path d="M193.858 137.602L170.413 138C169.989 138.017 169.57 137.91 169.207 137.692C168.843 137.475 168.55 137.157 168.364 136.776C168.112 136.077 168.615 135.489 169.497 135.468L192.942 135.07C193.365 135.054 193.784 135.162 194.148 135.379C194.511 135.596 194.804 135.914 194.991 136.294C195.243 136.993 194.733 137.581 193.858 137.602Z" fill="white"/>
<path d="M170.35 138.35C169.865 138.357 169.388 138.223 168.978 137.964C168.567 137.706 168.239 137.335 168.035 136.895C167.961 136.709 167.933 136.507 167.953 136.307C167.974 136.108 168.043 135.916 168.154 135.748C168.311 135.545 168.514 135.382 168.746 135.273C168.978 135.163 169.233 135.111 169.489 135.119L192.935 134.72C193.432 134.701 193.923 134.829 194.347 135.088C194.771 135.346 195.11 135.725 195.32 136.175C195.394 136.36 195.422 136.561 195.401 136.76C195.381 136.958 195.312 137.149 195.201 137.315C195.045 137.52 194.843 137.685 194.61 137.795C194.378 137.906 194.122 137.96 193.865 137.952L170.42 138.35H170.35ZM193.019 135.42H192.97L169.524 135.818C169.379 135.809 169.234 135.833 169.1 135.89C168.967 135.948 168.848 136.035 168.755 136.147C168.706 136.222 168.677 136.308 168.67 136.397C168.662 136.486 168.677 136.576 168.713 136.658C168.873 136.97 169.12 137.231 169.424 137.407C169.728 137.583 170.076 137.668 170.427 137.651L193.872 137.252C194.017 137.261 194.162 137.235 194.296 137.178C194.429 137.121 194.548 137.034 194.642 136.923C194.689 136.848 194.717 136.762 194.724 136.673C194.732 136.584 194.718 136.495 194.684 136.413C194.525 136.109 194.286 135.856 193.992 135.68C193.698 135.505 193.361 135.415 193.019 135.42Z" fill="#D1D3D4"/>
<path d="M197.377 147.331L173.938 147.73C173.515 147.746 173.096 147.639 172.732 147.422C172.368 147.205 172.075 146.887 171.889 146.506C171.63 145.807 172.141 145.219 173.015 145.198L196.46 144.799C196.884 144.783 197.303 144.89 197.666 145.108C198.03 145.325 198.323 145.643 198.51 146.023C198.761 146.723 198.258 147.31 197.377 147.331Z" fill="white"/>
<path d="M173.875 148.079C173.39 148.087 172.913 147.953 172.502 147.695C172.091 147.437 171.764 147.065 171.56 146.625C171.484 146.44 171.455 146.239 171.476 146.04C171.497 145.841 171.566 145.65 171.679 145.484C171.833 145.279 172.034 145.114 172.265 145.004C172.497 144.893 172.751 144.839 173.008 144.848L196.453 144.449C196.95 144.429 197.442 144.557 197.866 144.816C198.29 145.075 198.629 145.453 198.838 145.904C198.912 146.091 198.94 146.293 198.92 146.492C198.899 146.692 198.83 146.884 198.719 147.051C198.563 147.254 198.362 147.417 198.131 147.526C197.9 147.635 197.646 147.688 197.39 147.681L173.945 148.079H173.875ZM196.516 145.149H196.474L173.022 145.547C172.877 145.538 172.732 145.563 172.598 145.62C172.464 145.678 172.346 145.765 172.252 145.876C172.206 145.952 172.179 146.038 172.173 146.127C172.167 146.216 172.182 146.305 172.217 146.387C172.375 146.7 172.621 146.96 172.923 147.136C173.226 147.313 173.574 147.397 173.924 147.38L197.369 146.981C197.515 146.992 197.66 146.968 197.794 146.911C197.928 146.853 198.046 146.765 198.139 146.653C198.188 146.578 198.217 146.492 198.224 146.403C198.232 146.313 198.217 146.224 198.181 146.142C198.023 145.838 197.784 145.584 197.49 145.408C197.196 145.233 196.859 145.143 196.516 145.149Z" fill="#D1D3D4"/>
<path d="M149.59 83.9336L150.877 83.8917C151.436 83.8707 151.99 84.0122 152.47 84.2989C152.95 84.5856 153.337 85.0054 153.584 85.5074L178.827 155.256C179.156 156.179 178.491 156.956 177.33 156.984H176.036C175.479 157.007 174.926 156.868 174.446 156.582C173.967 156.296 173.581 155.877 173.337 155.375L148.094 85.6263C147.758 84.717 148.429 83.9336 149.59 83.9336Z" fill="white"/>
<path d="M175.967 157.375C175.348 157.386 174.74 157.219 174.215 156.893C173.69 156.566 173.271 156.095 173.008 155.535L147.765 85.7587C147.675 85.531 147.641 85.2848 147.667 85.0412C147.692 84.7976 147.776 84.5638 147.912 84.3598C148.107 84.1069 148.36 83.9039 148.65 83.7678C148.939 83.6316 149.257 83.566 149.576 83.5764L150.87 83.5415C151.503 83.5124 152.129 83.6717 152.671 83.9992C153.213 84.3267 153.645 84.8076 153.913 85.381L179.156 155.13C179.246 155.358 179.279 155.604 179.254 155.847C179.228 156.091 179.144 156.324 179.009 156.529C178.813 156.783 178.559 156.987 178.268 157.125C177.978 157.262 177.659 157.329 177.337 157.319H176.05L175.967 157.375ZM149.597 84.2899C149.388 84.278 149.179 84.3156 148.987 84.3994C148.795 84.4832 148.626 84.611 148.492 84.7725C148.416 84.8856 148.37 85.016 148.358 85.1517C148.346 85.2874 148.368 85.424 148.422 85.5489L173.665 155.277C173.884 155.712 174.223 156.075 174.642 156.323C175.061 156.571 175.543 156.694 176.029 156.675H177.316C177.527 156.688 177.737 156.651 177.93 156.567C178.123 156.483 178.294 156.355 178.429 156.193C178.503 156.079 178.548 155.949 178.56 155.813C178.572 155.678 178.551 155.542 178.499 155.416L153.256 85.6678C153.039 85.2313 152.7 84.8669 152.28 84.6187C151.861 84.3705 151.378 84.249 150.891 84.2689L149.597 84.2899Z" fill="#D1D3D4"/>
<path d="M167.216 42.925C162.187 45.8417 156.368 48.1219 150.465 46.9748C145.457 46.0096 140.938 42.6662 139.162 37.826C138.805 36.8748 138.581 35.8746 138.203 34.9233C138.05 34.5456 137.812 34.126 137.406 34.091C136.749 34.035 136.525 34.9443 136.602 35.5948C136.665 36.1194 136.728 36.602 136.742 37.1196C136.742 37.4763 136.742 38.4066 137.056 38.6724L132.58 34.3358C132.374 34.1 132.108 33.9237 131.811 33.8252C131.661 33.7808 131.5 33.7961 131.362 33.8679C131.224 33.9396 131.119 34.0623 131.069 34.2099C131.058 34.3389 131.077 34.4687 131.123 34.5898C131.169 34.7108 131.241 34.82 131.335 34.9094L133.119 37.2105C132.328 36.5307 131.504 35.891 130.649 35.294C129.502 34.5037 129.146 35.6647 129.824 36.5391L131.636 38.8682C131.037 38.2544 130.392 37.6884 129.705 37.1756C129.502 37.0217 129.23 36.8748 129.006 37.0147C128.941 37.0705 128.896 37.1445 128.874 37.227C128.853 37.3094 128.858 37.3964 128.887 37.4763C128.947 37.6375 129.043 37.7833 129.167 37.903L130.852 39.8265C130.559 39.5327 129.104 38.1618 128.712 38.9102C128.488 39.3368 129.321 40.0153 129.572 40.2671C131.216 41.8758 132.881 43.4146 134.58 44.9324C139.148 49.0172 144.373 52.8012 150.535 54.1931C157.284 55.7248 164.698 53.9832 170.385 50.0873" fill="white"/>
<path d="M155.55 55.0604C153.83 55.065 152.115 54.8773 150.437 54.5009C143.624 52.9551 137.98 48.4297 134.349 45.1633C132.468 43.4776 130.852 41.9458 129.341 40.484L129.223 40.3791C128.796 39.9804 128.089 39.3229 128.411 38.7144C128.46 38.6082 128.536 38.516 128.63 38.4464C128.724 38.3767 128.834 38.3318 128.95 38.3157H129.09L128.908 38.1129C128.755 37.9542 128.636 37.7662 128.558 37.5603C128.507 37.4088 128.505 37.2453 128.551 37.0923C128.598 36.9394 128.69 36.8047 128.817 36.707C128.911 36.6421 129.019 36.6011 129.133 36.5877C129.246 36.5743 129.361 36.5888 129.467 36.6301C129.262 36.3945 129.142 36.0972 129.126 35.7854C129.109 35.4736 129.197 35.1652 129.376 34.9094C129.502 34.7765 129.978 34.3918 130.838 34.9864L131.104 35.1752L131.048 35.1053C130.931 34.9794 130.841 34.8304 130.784 34.6678C130.728 34.5052 130.705 34.3326 130.719 34.161C130.741 34.0535 130.785 33.9516 130.847 33.8614C130.91 33.7713 130.99 33.6947 131.083 33.6364C131.2 33.5604 131.33 33.5088 131.467 33.4847C131.604 33.4607 131.745 33.4647 131.88 33.4965C132.239 33.6101 132.56 33.8178 132.811 34.0981L136.406 37.5953V37.1686C136.392 36.7568 136.357 36.3459 136.301 35.9376L136.266 35.6718C136.224 35.3887 136.24 35.1 136.313 34.8233C136.386 34.5467 136.516 34.288 136.693 34.0631C136.789 33.9611 136.906 33.8824 137.037 33.8327C137.168 33.783 137.309 33.7637 137.448 33.7763C137.91 33.8183 138.28 34.175 138.539 34.8325C138.749 35.3501 138.91 35.8886 139.071 36.4062C139.232 36.9238 139.344 37.3015 139.504 37.7422C141.19 42.2466 145.436 45.6669 150.584 46.6671C155.417 47.6113 160.816 46.2964 167.091 42.6593C167.13 42.6305 167.175 42.6103 167.223 42.6001C167.271 42.5899 167.32 42.5898 167.368 42.5999C167.416 42.61 167.461 42.63 167.501 42.6587C167.541 42.6874 167.574 42.724 167.599 42.7663C167.623 42.8086 167.639 42.8556 167.644 42.9043C167.649 42.9529 167.644 43.0021 167.629 43.0487C167.614 43.0953 167.59 43.1383 167.557 43.1748C167.525 43.2114 167.485 43.2406 167.44 43.2608C161.012 46.9888 155.459 48.3248 150.451 47.3526C145.065 46.3104 140.616 42.7152 138.847 37.987C138.679 37.5323 138.539 37.0707 138.399 36.5881C138.259 36.1055 138.085 35.5599 137.889 35.0703C137.784 34.7975 137.609 34.4758 137.385 34.4548C137.349 34.4512 137.312 34.4563 137.278 34.4696C137.244 34.483 137.213 34.5043 137.189 34.5317C136.985 34.838 136.905 35.2107 136.965 35.5739V35.8327C137.014 36.2663 137.063 36.679 137.077 37.1197C137.077 38.1758 137.245 38.3927 137.28 38.4346C137.314 38.466 137.34 38.5039 137.358 38.546C137.377 38.5882 137.386 38.6335 137.386 38.6794C137.386 38.7253 137.377 38.7707 137.358 38.8128C137.34 38.8549 137.314 38.8928 137.28 38.9242C137.248 38.9568 137.21 38.9827 137.168 39.0003C137.126 39.018 137.081 39.0271 137.035 39.0271C136.99 39.0271 136.945 39.018 136.903 39.0003C136.861 38.9827 136.822 38.9568 136.791 38.9242L132.314 34.5947C132.15 34.4066 131.944 34.2603 131.713 34.168C131.621 34.1523 131.527 34.1696 131.447 34.217C131.433 34.2241 131.421 34.2341 131.411 34.2461C131.402 34.2581 131.395 34.272 131.391 34.2869C131.391 34.3848 131.517 34.5737 131.587 34.6646L133.377 36.9728C133.426 37.0415 133.448 37.1257 133.44 37.2096C133.432 37.2936 133.394 37.3717 133.332 37.4296C133.271 37.4875 133.191 37.5213 133.106 37.5248C133.022 37.5282 132.939 37.5011 132.874 37.4484C132.092 36.7738 131.274 36.1411 130.426 35.5529C130.139 35.3571 129.936 35.3221 129.873 35.385C129.81 35.448 129.761 35.8886 130.076 36.2943L131.887 38.6235C131.944 38.6938 131.971 38.7833 131.964 38.8732C131.956 38.9632 131.913 39.0466 131.845 39.1061C131.78 39.1666 131.694 39.2001 131.604 39.2001C131.515 39.2001 131.429 39.1666 131.363 39.1061C130.777 38.5056 130.146 37.9514 129.474 37.4484C129.395 37.3765 129.299 37.3259 129.195 37.3015C129.195 37.3015 129.195 37.3015 129.195 37.3715C129.244 37.4806 129.313 37.5801 129.397 37.6652L131.09 39.5887C131.152 39.6537 131.187 39.7402 131.187 39.83C131.187 39.9199 131.152 40.0063 131.09 40.0713C131.024 40.1338 130.936 40.1686 130.845 40.1686C130.754 40.1686 130.667 40.1338 130.6 40.0713C129.901 39.3719 129.257 39.0082 129.048 39.0431C129.006 39.1341 129.048 39.3369 129.684 39.8965L129.81 40.0224C131.293 41.4772 132.93 42.995 134.804 44.6737C138.399 47.8911 143.953 52.3676 150.605 53.8504C157.032 55.3122 164.349 53.7944 170.189 49.8006C170.227 49.7715 170.27 49.7504 170.316 49.7385C170.361 49.7266 170.409 49.7241 170.456 49.7313C170.503 49.7385 170.548 49.7552 170.588 49.7803C170.629 49.8054 170.663 49.8384 170.69 49.8774C170.718 49.9164 170.736 49.9604 170.746 50.0069C170.755 50.0534 170.755 50.1014 170.746 50.1478C170.736 50.1943 170.717 50.2383 170.69 50.2773C170.663 50.3162 170.628 50.3491 170.588 50.3742C166.155 53.4029 160.918 55.0351 155.55 55.0604Z" fill="#231F20"/>
<path d="M190.571 119.724L191.2 124.333C191.2 124.333 178.373 125.662 178.869 124.557C179.809 122.955 180.841 121.409 181.961 119.927" fill="white"/>
<path d="M181.576 125.341C179.988 125.341 178.827 125.222 178.596 124.893C178.546 124.825 178.514 124.744 178.506 124.659C178.497 124.574 178.511 124.488 178.547 124.411C179.499 122.786 180.545 121.219 181.681 119.717C181.738 119.645 181.82 119.597 181.912 119.584C182.003 119.571 182.096 119.594 182.171 119.647C182.245 119.703 182.294 119.786 182.307 119.878C182.32 119.97 182.296 120.063 182.24 120.137C182.24 120.172 179.911 123.292 179.275 124.516C180.338 124.837 185.752 124.516 190.809 124.026L190.221 119.766C190.209 119.674 190.234 119.58 190.291 119.506C190.348 119.432 190.433 119.383 190.525 119.371C190.618 119.359 190.712 119.384 190.786 119.441C190.86 119.498 190.909 119.583 190.921 119.675L191.557 124.285C191.564 124.331 191.561 124.379 191.549 124.425C191.537 124.47 191.516 124.513 191.487 124.551C191.426 124.625 191.338 124.673 191.242 124.683C188.417 124.977 184.339 125.341 181.576 125.341Z" fill="#231F20"/>
<path d="M172.595 102.042C172.595 102.042 175.274 105.406 174.784 106.022C174.295 106.637 160.096 107.337 160.705 105.861C161.313 104.385 165.118 101.245 165.118 101.245" fill="white"/>
<path d="M166.293 107.092C163.726 107.092 161.397 106.931 160.698 106.511C160.551 106.448 160.435 106.33 160.375 106.182C160.315 106.034 160.315 105.868 160.376 105.721C161.012 104.182 164.726 101.104 164.887 100.971C164.959 100.914 165.05 100.886 165.142 100.895C165.234 100.904 165.318 100.949 165.377 101.02C165.407 101.056 165.429 101.097 165.443 101.142C165.456 101.186 165.461 101.233 165.457 101.279C165.452 101.325 165.438 101.37 165.416 101.411C165.394 101.452 165.364 101.488 165.328 101.517C164.314 102.349 161.614 104.741 161.054 105.917C162.145 106.714 173.19 106.329 174.491 105.791C174.491 105.35 173.525 103.783 172.315 102.258C172.286 102.223 172.264 102.183 172.25 102.139C172.236 102.095 172.232 102.049 172.236 102.003C172.241 101.958 172.255 101.913 172.277 101.873C172.299 101.833 172.328 101.797 172.364 101.769C172.438 101.711 172.531 101.685 172.624 101.695C172.717 101.706 172.802 101.752 172.861 101.825C174.162 103.462 175.596 105.553 175.05 106.238C174.68 106.714 170.189 107.092 166.293 107.092Z" fill="#231F20"/>
<path d="M167.615 66.0205C167.615 66.0205 151.591 75.9666 151.794 81.3454C151.926 84.9965 163.139 103.336 163.139 103.336L173.889 102.741C173.889 102.741 164.097 87.7803 166.258 85.591C168.419 83.4017 180.429 77.3655 180.429 77.3655L180.646 120.374C180.646 120.374 191.62 119.605 191.62 118.983C191.62 118.36 193.991 67.8461 193.991 67.8461L167.615 66.0205Z" fill="#231F20"/>
<path d="M190.858 19.7944C190.808 19.1264 190.529 18.4963 190.067 18.0108C189.828 17.7826 189.515 17.6469 189.184 17.6277C188.854 17.6085 188.527 17.707 188.263 17.9058C188.347 16.7168 187.27 15.8075 186.22 15.213C184.911 14.4936 183.494 13.9928 182.024 13.7302C181.052 13.5721 180.07 13.4903 179.086 13.4854C177.61 13.4854 176.036 13.5763 174.889 14.4786C174.228 15.0669 173.746 15.8299 173.498 16.6799C173.251 17.5298 173.248 18.4323 173.49 19.2838C173.994 20.9888 174.963 22.5197 176.288 23.7043C177.785 25.2762 179.643 26.4577 181.702 27.1455C182.927 27.4899 184.193 27.6687 185.465 27.6771C187.5 27.747 188.382 26.7888 189.424 25.236C190.58 23.6723 191.093 21.7249 190.858 19.7944Z" fill="white"/>
<path d="M185.605 28.0334H185.402C184.099 28.0212 182.803 27.8378 181.548 27.4878C179.426 26.7961 177.504 25.5954 175.953 23.9906C174.578 22.7615 173.575 21.172 173.057 19.4022C172.8 18.4832 172.809 17.5104 173.081 16.5959C173.353 15.6814 173.878 14.8624 174.596 14.2333C175.869 13.2541 177.554 13.1422 179.037 13.1702C180.038 13.1727 181.037 13.257 182.024 13.422C183.541 13.6853 185.004 14.1982 186.353 14.9398C187.109 15.3524 188.291 16.1778 188.536 17.3668C188.837 17.2858 189.153 17.2818 189.456 17.3551C189.76 17.4284 190.039 17.5768 190.27 17.7865C190.793 18.3265 191.112 19.031 191.172 19.7799C191.445 21.6754 190.949 23.48 189.62 25.4594C188.668 26.9003 187.738 28.0334 185.605 28.0334ZM178.729 13.8276C177.44 13.7275 176.153 14.0517 175.064 14.7509C173.665 15.8211 173.421 17.7585 173.77 19.1994C174.261 20.8423 175.198 22.3169 176.477 23.459C177.935 24.99 179.746 26.1404 181.751 26.8094C182.946 27.1466 184.181 27.3207 185.423 27.3269C187.186 27.3899 187.983 26.6695 189.074 25.0398C190.21 23.5597 190.726 21.6964 190.515 19.8429C190.473 19.2525 190.226 18.6955 189.816 18.2691C189.642 18.0981 189.414 17.9932 189.171 17.9728C188.929 17.9523 188.686 18.0176 188.487 18.1572C188.438 18.2074 188.374 18.2405 188.305 18.2519C188.235 18.2632 188.164 18.2521 188.102 18.2202C188.038 18.1917 187.984 18.1442 187.948 18.0842C187.911 18.0241 187.894 17.9544 187.899 17.8844C187.976 16.7583 186.766 15.919 186.039 15.5203C184.758 14.8125 183.368 14.3232 181.926 14.0724C180.973 13.9158 180.009 13.8362 179.044 13.8346L178.729 13.8276Z" fill="#231F20"/>
<path d="M185.941 38.784C185.696 33.5032 186.766 22.7947 186.766 22.7947C186.766 22.7947 180.037 23.1794 177.771 19.9409C174.973 22.1162 174.435 28.2293 174.938 30.0549C175.946 33.671 180.632 32.8527 180.632 32.8527L180.03 39.4554L185.941 38.784Z" fill="white"/>
<path d="M180.03 39.8261C179.939 39.8252 179.852 39.7903 179.785 39.7282C179.75 39.6911 179.722 39.6472 179.704 39.5991C179.686 39.551 179.678 39.4997 179.681 39.4484L180.247 33.2653C178.995 33.3632 175.484 33.3282 174.603 30.1528C174.064 28.2153 174.659 21.9413 177.554 19.6611C177.633 19.6035 177.73 19.5784 177.827 19.5911C177.874 19.598 177.918 19.6147 177.958 19.64C177.998 19.6653 178.032 19.6987 178.058 19.738C180.156 22.7736 186.675 22.4379 186.745 22.4379C186.795 22.4331 186.846 22.4401 186.894 22.4583C186.941 22.4765 186.983 22.5055 187.018 22.5428C187.053 22.5797 187.079 22.624 187.095 22.6724C187.11 22.7208 187.115 22.7721 187.109 22.8226C187.109 22.9275 186.053 33.5661 186.29 38.7559C186.296 38.8446 186.267 38.9321 186.21 39C186.153 39.0679 186.071 39.1108 185.983 39.1196L180.072 39.8191L180.03 39.8261ZM180.632 32.5239C180.72 32.5239 180.804 32.5563 180.87 32.6148C180.908 32.6518 180.937 32.6965 180.957 32.746C180.976 32.7955 180.985 32.8485 180.982 32.9016L180.422 39.0777L185.584 38.4692C185.416 33.7269 186.192 25.1028 186.374 23.1583C184.912 23.1583 179.911 23.0744 177.722 20.4514C175.26 22.7386 174.847 28.4111 175.274 29.9639C176.183 33.2233 180.394 32.5588 180.576 32.5309L180.632 32.5239Z" fill="#231F20"/>
<path d="M180.632 32.8739C180.632 32.8739 182.569 32.6291 183.527 31.6709C183.527 31.6709 182.247 34.8744 180.275 35.35L180.632 32.8739Z" fill="#231F20"/>
<path d="M180.275 35.6719C180.236 35.6725 180.198 35.6653 180.162 35.6509C180.126 35.6365 180.093 35.6151 180.065 35.588C180.026 35.5533 179.997 35.5097 179.978 35.461C179.96 35.4123 179.954 35.3598 179.96 35.3082L180.317 32.8252C180.327 32.7571 180.359 32.6943 180.409 32.6463C180.458 32.5983 180.521 32.5678 180.59 32.5594C180.59 32.5594 182.436 32.3146 183.304 31.4472C183.357 31.3956 183.426 31.3634 183.499 31.3557C183.573 31.3481 183.647 31.3656 183.709 31.4053C183.77 31.4463 183.815 31.5068 183.836 31.5767C183.858 31.6467 183.855 31.7219 183.828 31.79C183.772 31.9299 182.464 35.1473 180.331 35.6579L180.275 35.6719ZM180.918 33.1539L180.667 34.8675C181.542 34.3111 182.25 33.5279 182.716 32.6013C182.142 32.8596 181.538 33.0452 180.918 33.1539Z" fill="#231F20"/>
<path d="M176.442 35.3711L161.089 43.7644L164.803 54.5569C164.803 54.5569 184.115 44.338 184.241 41.5752C184.367 38.8124 176.442 35.3711 176.442 35.3711Z" fill="#DC0E51"/>
<path d="M167.216 66.3143C167.216 66.3143 167.951 55.3261 169.315 46.9537C169.902 43.3935 169.678 40.9035 170.861 38.98C174.812 32.5171 190.214 34.4476 192.452 38.9311C194.691 43.4145 193.991 67.8461 193.991 67.8461L167.216 66.3143Z" fill="#DC0E51"/>
<path d="M185.668 26.5787C185.753 26.1642 185.951 25.7811 186.24 25.4715C186.529 25.1618 186.897 24.9375 187.305 24.8231C187.487 24.7644 187.68 24.7453 187.871 24.767C188.061 24.7887 188.245 24.8508 188.41 24.949C188.604 25.1141 188.753 25.326 188.842 25.5647C188.931 25.8034 188.958 26.061 188.92 26.313C188.862 27.1132 188.499 27.8607 187.908 28.4028C187.316 28.945 186.54 29.2407 185.738 29.2296" fill="white"/>
<path d="M185.78 29.5445H185.731C185.685 29.5436 185.639 29.5337 185.597 29.5153C185.555 29.4968 185.517 29.4703 185.485 29.4372C185.454 29.4041 185.429 29.365 185.412 29.3222C185.395 29.2794 185.387 29.2338 185.388 29.1878C185.388 29.1416 185.397 29.0959 185.415 29.0534C185.433 29.0108 185.46 28.9724 185.493 28.9404C185.527 28.9084 185.566 28.8834 185.609 28.8671C185.652 28.8507 185.699 28.8432 185.745 28.8451C186.453 28.875 187.144 28.6235 187.668 28.1457C188.195 27.6635 188.518 26.9978 188.57 26.2851C188.597 26.0945 188.579 25.9003 188.517 25.7181C188.455 25.5359 188.351 25.3708 188.214 25.236C188.09 25.167 187.953 25.1252 187.812 25.1131C187.671 25.1011 187.529 25.1191 187.395 25.166C187.049 25.2616 186.735 25.4505 186.489 25.7119C186.242 25.9733 186.072 26.2974 185.997 26.6488C185.978 26.7387 185.925 26.8179 185.85 26.87C185.774 26.9222 185.681 26.9431 185.591 26.9286C185.5 26.91 185.419 26.8564 185.367 26.7793C185.315 26.7022 185.295 26.6076 185.311 26.516C185.409 26.0369 185.637 25.594 185.97 25.2361C186.303 24.8783 186.729 24.6192 187.2 24.4876C187.431 24.4126 187.677 24.3894 187.918 24.4196C188.16 24.4498 188.392 24.5327 188.598 24.6624C188.845 24.8588 189.035 25.1169 189.149 25.4105C189.263 25.7042 189.298 26.0228 189.249 26.3341C189.185 27.2173 188.789 28.0434 188.14 28.6458C187.491 29.2481 186.637 29.5818 185.752 29.5795L185.78 29.5445Z" fill="#231F20"/>
<path d="M177.857 23.4803C177.956 23.1631 177.899 22.8631 177.729 22.8102C177.56 22.7573 177.342 22.9715 177.243 23.2886C177.144 23.6057 177.201 23.9057 177.371 23.9586C177.54 24.0116 177.758 23.7974 177.857 23.4803Z" fill="#231F20"/>
<path d="M176.127 30.3207C176.547 30.5865 177.005 30.787 177.484 30.9152C177.799 31.0333 178.139 31.0651 178.47 31.0073C178.801 30.9495 179.11 30.8042 179.366 30.5865C179.542 30.36 179.677 30.1043 179.765 29.8311" fill="white"/>
<path d="M178.233 31.3701C177.949 31.369 177.667 31.3314 177.393 31.2582C176.879 31.1166 176.389 30.8998 175.939 30.6147C175.861 30.5645 175.806 30.4856 175.786 30.3951C175.767 30.3046 175.784 30.21 175.834 30.1321C175.858 30.0928 175.89 30.0589 175.927 30.0322C175.965 30.0056 176.008 29.9868 176.053 29.977C176.098 29.9672 176.144 29.9666 176.19 29.9752C176.235 29.9838 176.278 30.0015 176.316 30.0272C176.706 30.2734 177.13 30.4596 177.575 30.5797C177.827 30.6427 178.68 30.8246 179.107 30.3559C179.252 30.1591 179.363 29.9392 179.436 29.7054C179.469 29.6196 179.534 29.5501 179.618 29.5121C179.702 29.4742 179.797 29.4707 179.883 29.5026C179.971 29.5342 180.042 29.599 180.081 29.683C180.12 29.7669 180.125 29.8631 180.093 29.9502C179.995 30.269 179.835 30.5659 179.625 30.8246C179.444 31.0079 179.226 31.1511 178.987 31.2451C178.747 31.3391 178.49 31.3817 178.233 31.3701Z" fill="#231F20"/>
<path d="M176.092 24.0054C176.092 24.0054 173.393 27.0829 174.05 27.7474C174.708 28.4119 176.281 28.0761 176.281 28.0761" fill="white"/>
<path d="M175.421 28.5162C174.835 28.556 174.256 28.3681 173.805 27.9916C173.029 27.2152 174.742 25.012 175.827 23.7949C175.893 23.7304 175.982 23.6943 176.075 23.6943C176.168 23.6943 176.257 23.7304 176.323 23.7949C176.356 23.8275 176.382 23.8661 176.4 23.9088C176.417 23.9514 176.427 23.9971 176.427 24.0432C176.427 24.0894 176.417 24.1351 176.4 24.1777C176.382 24.2204 176.356 24.259 176.323 24.2916C175.099 25.6904 174.127 27.2502 174.281 27.565C174.707 27.9846 175.799 27.8727 176.183 27.7958C176.276 27.7772 176.372 27.7963 176.451 27.8487C176.53 27.9012 176.584 27.9828 176.603 28.0756C176.622 28.1683 176.602 28.2646 176.55 28.3433C176.498 28.422 176.416 28.4767 176.323 28.4952C176.024 28.5335 175.722 28.5406 175.421 28.5162Z" fill="#231F20"/>
<path d="M164.803 54.8854C164.74 54.8863 164.678 54.8698 164.624 54.8377C164.57 54.8056 164.525 54.7592 164.496 54.7035C164.453 54.6215 164.443 54.5261 164.469 54.4374C164.496 54.3487 164.555 54.2735 164.636 54.2279C164.74 54.1719 175.365 48.4994 179.233 46.4011C179.273 46.3791 179.317 46.3652 179.362 46.3604C179.407 46.3555 179.453 46.3597 179.497 46.3727C179.54 46.3857 179.581 46.4073 179.616 46.4362C179.651 46.4651 179.68 46.5007 179.702 46.541C179.725 46.5811 179.739 46.6256 179.745 46.6716C179.75 46.7176 179.746 46.7642 179.733 46.8087C179.72 46.8532 179.698 46.8945 179.669 46.9302C179.639 46.966 179.603 46.9953 179.562 47.0166C175.694 49.1149 165.076 54.7874 164.964 54.8434C164.915 54.8712 164.86 54.8857 164.803 54.8854Z" fill="#231F20"/>
<path d="M71.0147 107.994C70.9677 107.994 70.9214 107.983 70.8792 107.962C70.8369 107.941 70.7996 107.912 70.7699 107.875C70.7427 107.843 70.7222 107.805 70.7095 107.765C70.6969 107.724 70.6924 107.682 70.6963 107.639C70.7002 107.597 70.7124 107.556 70.7323 107.518C70.7521 107.481 70.7792 107.448 70.8119 107.421L97.8944 85.2343C97.9609 85.1811 98.0454 85.1557 98.1302 85.1635C98.215 85.1713 98.2935 85.2118 98.3491 85.2763C98.3759 85.3093 98.396 85.3472 98.408 85.388C98.4201 85.4288 98.424 85.4715 98.4194 85.5138C98.4149 85.5561 98.402 85.597 98.3815 85.6343C98.361 85.6716 98.3334 85.7044 98.3001 85.7309L71.2595 107.917C71.1914 107.974 71.1033 108.002 71.0147 107.994Z" fill="#D1D3D4"/>
<path d="M98.0623 107.994C97.9878 107.993 97.9161 107.966 97.8595 107.917L70.8119 85.7309C70.7792 85.7039 70.7521 85.6707 70.7323 85.6332C70.7124 85.5957 70.7002 85.5546 70.6963 85.5123C70.6924 85.4701 70.6969 85.4275 70.7095 85.387C70.7222 85.3464 70.7427 85.3088 70.7699 85.2763C70.8255 85.2118 70.904 85.1713 70.9888 85.1635C71.0736 85.1557 71.1581 85.1811 71.2246 85.2343L98.2651 107.421C98.2984 107.447 98.326 107.48 98.3465 107.517C98.367 107.555 98.3799 107.596 98.3844 107.638C98.389 107.68 98.3851 107.723 98.3731 107.764C98.361 107.804 98.3409 107.842 98.3141 107.875C98.2831 107.912 98.2446 107.942 98.2011 107.962C98.1577 107.983 98.1103 107.994 98.0623 107.994Z" fill="#D1D3D4"/>
<path d="M180.429 77.7084C180.35 77.7126 180.272 77.6893 180.208 77.6425C180.145 77.5957 180.099 77.5284 180.079 77.4518C180.059 77.3752 180.067 77.2942 180.1 77.2224C180.133 77.1506 180.19 77.0925 180.261 77.0579C180.303 77.0579 183.947 75.0925 184.87 73.3369C184.892 73.2966 184.921 73.261 184.956 73.2321C184.991 73.2032 185.032 73.1816 185.075 73.1686C185.119 73.1556 185.165 73.1514 185.21 73.1563C185.255 73.1611 185.299 73.175 185.339 73.197C185.38 73.2176 185.416 73.2463 185.446 73.2812C185.475 73.3161 185.498 73.3566 185.511 73.4003C185.525 73.444 185.53 73.4899 185.526 73.5355C185.521 73.5811 185.508 73.6253 185.486 73.6656C184.465 75.6101 180.744 77.5895 180.59 77.6734C180.539 77.6949 180.484 77.7068 180.429 77.7084Z" fill="white"/>
<path d="M22.0466 117.668C21.9835 117.668 21.9214 117.652 21.8671 117.62C21.8128 117.588 21.7684 117.541 21.7388 117.486C20.3889 114.982 16.1013 109.316 16.0593 109.26C16.0246 109.225 15.9977 109.182 15.9806 109.136C15.9635 109.089 15.9565 109.039 15.9602 108.99C15.9638 108.94 15.9779 108.892 16.0015 108.849C16.0252 108.805 16.0579 108.767 16.0974 108.737C16.137 108.707 16.1824 108.685 16.2308 108.674C16.2792 108.663 16.3294 108.663 16.3781 108.672C16.4268 108.682 16.4728 108.702 16.5131 108.731C16.5534 108.76 16.5871 108.798 16.6119 108.841C16.7868 109.071 20.9764 114.604 22.3544 117.157C22.3761 117.197 22.3896 117.241 22.3939 117.287C22.3983 117.333 22.3935 117.379 22.3798 117.422C22.3661 117.466 22.3438 117.506 22.3142 117.541C22.2846 117.576 22.2483 117.605 22.2075 117.626C22.1584 117.653 22.103 117.668 22.0466 117.668Z" fill="white"/>
</svg>
