<svg width="210" height="180" viewBox="0 0 210 180" fill="none" xmlns="http://www.w3.org/2000/svg">
<path d="M208.35 18.0943C208.35 18.0943 206.413 14.5321 203.342 9.61328C203.342 9.61328 193.475 16.9624 193.551 16.5546C193.626 16.1468 208.35 18.0943 208.35 18.0943Z" fill="#231F20"/>
<path d="M208.35 18.5104H208.291C203.1 17.8196 194.627 16.7959 193.701 16.9207C193.459 17.0206 193.384 16.9707 193.3 16.9207C193.228 16.8723 193.172 16.804 193.137 16.7243C193.103 16.6446 193.093 16.5567 193.108 16.4713C193.108 16.3548 193.158 16.2383 193.434 16.1717C194.001 15.947 199.644 11.8271 203.058 9.2803C203.104 9.24568 203.156 9.22111 203.213 9.2082C203.269 9.19529 203.327 9.19434 203.383 9.2054C203.44 9.21459 203.493 9.23568 203.541 9.26726C203.588 9.29883 203.629 9.34017 203.659 9.3885C206.739 14.2657 208.667 17.8612 208.717 17.8945C208.752 17.958 208.77 18.0294 208.768 18.1017C208.767 18.174 208.747 18.2448 208.71 18.307C208.673 18.3691 208.62 18.4206 208.557 18.4563C208.494 18.492 208.422 18.5106 208.35 18.5104ZM194.995 16.1467C196.814 16.2466 200.412 16.6378 207.557 17.5783C206.864 16.3381 205.303 13.6165 203.166 10.2208C198.709 13.55 196.33 15.2728 195.02 16.1467H194.995Z" fill="#231F20"/>
<path d="M77.6183 166.533L72.6935 158.343L79.5131 152.201L77.6183 166.533Z" fill="#231F20"/>
<path d="M77.6184 166.95C77.5467 166.949 77.4764 166.93 77.4137 166.895C77.3511 166.86 77.2981 166.81 77.2595 166.75L72.3347 158.56C72.2852 158.477 72.2665 158.379 72.2817 158.283C72.2969 158.188 72.3452 158.1 72.4182 158.036L79.2294 151.894C79.2931 151.836 79.3729 151.8 79.4581 151.79C79.5432 151.779 79.6295 151.795 79.7052 151.835C79.7798 151.876 79.8404 151.939 79.879 152.014C79.9177 152.09 79.9328 152.176 79.9222 152.26L78.0358 166.567C78.0251 166.654 77.987 166.736 77.9271 166.8C77.8671 166.864 77.7883 166.908 77.7019 166.925L77.6184 166.95ZM73.2279 158.427L77.4014 165.294L78.9873 153.267L73.2279 158.427Z" fill="#231F20"/>
<path d="M80.8153 168.232L160.112 179.493C161.739 179.707 163.389 179.337 164.766 178.447C166.142 177.558 167.156 176.208 167.625 174.64L208.659 21.582C209.493 18.411 207.465 15.6228 204.101 15.3481L123.243 8.84793C121.645 8.76963 120.067 9.22928 118.762 10.153C117.457 11.0768 116.501 12.4111 116.048 13.9416L76.6752 161.94C76.4709 162.626 76.4192 163.349 76.5239 164.058C76.6285 164.767 76.8869 165.445 77.281 166.044C77.6752 166.643 78.1956 167.149 78.806 167.527C79.4164 167.904 80.1021 168.145 80.8153 168.232Z" fill="#231F20"/>
<path d="M160.989 180C160.668 179.998 160.347 179.976 160.029 179.933L80.7318 168.664C79.9649 168.57 79.2273 168.312 78.5691 167.909C77.9109 167.505 77.3475 166.965 76.9172 166.325C76.4894 165.667 76.2078 164.926 76.0912 164.151C75.9745 163.376 76.0257 162.585 76.2411 161.831L115.614 13.8577C116.096 12.2321 117.11 10.8143 118.494 9.83064C119.878 8.847 121.554 8.35427 123.252 8.43115L204.11 14.9313C204.929 14.98 205.728 15.2081 206.449 15.5994C207.171 15.9906 207.797 16.5355 208.283 17.1952C208.73 17.8439 209.027 18.584 209.151 19.3615C209.275 20.139 209.224 20.9343 209.001 21.6895L167.967 174.748C167.52 176.253 166.602 177.575 165.345 178.52C164.089 179.465 162.562 179.984 160.989 180ZM80.857 167.84L160.154 179.109C161.683 179.313 163.234 178.966 164.53 178.132C165.826 177.297 166.781 176.03 167.224 174.557L208.225 21.5064C208.418 20.8687 208.465 20.1957 208.363 19.5374C208.26 18.879 208.01 18.252 207.632 17.7029C207.214 17.1376 206.675 16.6725 206.054 16.3413C205.433 16.0102 204.746 15.8213 204.043 15.7886L123.185 9.26344C121.682 9.18471 120.196 9.61453 118.969 10.4832C117.742 11.3519 116.845 12.6084 116.424 14.0491L77.0758 162.047C76.8894 162.687 76.8428 163.359 76.9393 164.018C77.0358 164.677 77.273 165.308 77.6351 165.867C78.0027 166.407 78.4818 166.863 79.0404 167.203C79.599 167.543 80.2241 167.76 80.8737 167.84H80.857Z" fill="#231F20"/>
<path d="M75.6567 159.809L154.954 171.07C156.58 171.281 158.228 170.909 159.604 170.02C160.98 169.131 161.995 167.783 162.466 166.217L203.492 13.1589C204.327 9.98789 202.298 7.19971 198.934 6.92506L118.06 0.424863C116.461 0.347616 114.882 0.807535 113.576 1.73101C112.27 2.65449 111.312 3.98813 110.856 5.51849L71.5082 153.492C71.2996 154.181 71.2449 154.907 71.3479 155.619C71.451 156.332 71.7093 157.013 72.1047 157.615C72.5002 158.217 73.0231 158.726 73.6368 159.105C74.2504 159.484 74.9399 159.724 75.6567 159.809Z" fill="white"/>
<path d="M155.83 171.561C155.509 171.559 155.188 171.537 154.87 171.494L75.5732 160.225C74.8063 160.131 74.0687 159.873 73.4105 159.47C72.7523 159.066 72.1889 158.526 71.7586 157.886C71.3304 157.229 71.0484 156.487 70.9318 155.712C70.8151 154.937 70.8666 154.145 71.0825 153.392L110.464 5.41852C110.946 3.79448 111.961 2.37869 113.345 1.39784C114.73 0.41699 116.405 -0.0721907 118.101 0.00862103L198.943 6.50882C199.769 6.55207 200.576 6.77754 201.305 7.16899C202.034 7.56043 202.667 8.10813 203.158 8.77265C203.603 9.42241 203.898 10.1624 204.022 10.9395C204.147 11.7167 204.096 12.5115 203.876 13.267L162.842 166.325C162.391 167.832 161.465 169.155 160.203 170.097C158.94 171.04 157.407 171.553 155.83 171.561ZM117.576 0.824266C116.155 0.863484 114.784 1.3489 113.657 2.21127C112.53 3.07364 111.704 4.26891 111.299 5.62659L71.9172 153.6C71.7308 154.239 71.6842 154.911 71.7807 155.57C71.8772 156.229 72.1145 156.86 72.4765 157.42C72.8441 157.96 73.3233 158.415 73.8818 158.755C74.4404 159.096 75.0655 159.313 75.7151 159.392L155.012 170.662C156.537 170.859 158.083 170.509 159.373 169.675C160.663 168.841 161.615 167.577 162.057 166.109L203.066 13.059C203.258 12.421 203.304 11.7484 203.201 11.0903C203.099 10.4322 202.85 9.80529 202.473 9.25538C202.055 8.6891 201.514 8.2233 200.892 7.89209C200.27 7.56088 199.581 7.37262 198.876 7.34111L118.026 0.840912L117.576 0.824266Z" fill="#231F20"/>
<path d="M195.637 23.2295L112.86 16.0801L81.099 135.481L162.666 146.292L195.637 23.2295Z" fill="#DC0E51"/>
<path d="M159.328 129.838C159.248 129.839 159.171 129.816 159.104 129.773C159.037 129.73 158.984 129.669 158.952 129.597L142.258 94.3992C142.234 94.3495 142.22 94.2956 142.217 94.2406C142.214 94.1856 142.223 94.1305 142.241 94.0786C142.26 94.0267 142.289 93.9791 142.326 93.9384C142.363 93.8977 142.408 93.8648 142.458 93.8416C142.558 93.796 142.672 93.7914 142.775 93.8288C142.878 93.8662 142.962 93.9425 143.009 94.0413L159.703 129.247C159.727 129.296 159.741 129.35 159.744 129.404C159.746 129.458 159.738 129.513 159.719 129.564C159.701 129.615 159.672 129.662 159.635 129.702C159.598 129.742 159.553 129.774 159.503 129.797C159.448 129.822 159.388 129.836 159.328 129.838Z" fill="white"/>
<path d="M108.419 158.918L123.894 161.09C124.877 161.211 125.871 160.979 126.698 160.436C127.526 159.893 128.132 159.075 128.41 158.127L129.946 152.376C130.075 151.939 130.105 151.48 130.035 151.03C129.965 150.58 129.797 150.151 129.542 149.774C129.287 149.396 128.951 149.079 128.56 148.846C128.168 148.612 127.729 148.468 127.275 148.423L111.783 146.325C110.809 146.219 109.829 146.458 109.014 147C108.2 147.541 107.602 148.352 107.325 149.288L105.798 154.99C105.669 155.421 105.637 155.876 105.704 156.321C105.771 156.766 105.936 157.191 106.186 157.566C106.436 157.941 106.766 158.256 107.151 158.49C107.537 158.723 107.97 158.87 108.419 158.918Z" fill="white"/>
<path d="M124.412 161.573C124.219 161.576 124.026 161.562 123.836 161.532L108.36 159.368C107.853 159.309 107.365 159.141 106.93 158.875C106.495 158.609 106.123 158.252 105.841 157.828C105.559 157.404 105.373 156.923 105.296 156.42C105.22 155.917 105.254 155.403 105.397 154.915L106.916 149.214C107.22 148.179 107.881 147.284 108.782 146.687C109.683 146.09 110.766 145.829 111.841 145.951L127.333 148.04C127.849 148.101 128.345 148.271 128.788 148.54C129.232 148.808 129.612 149.169 129.904 149.597C130.183 150.024 130.366 150.506 130.443 151.01C130.519 151.513 130.486 152.028 130.347 152.518L128.827 158.244C128.55 159.2 127.97 160.04 127.174 160.64C126.379 161.24 125.41 161.568 124.412 161.573ZM108.477 158.544L123.953 160.708C124.834 160.815 125.724 160.606 126.465 160.12C127.206 159.634 127.751 158.901 128.001 158.053L129.545 152.302C129.652 151.925 129.677 151.53 129.62 151.142C129.562 150.755 129.423 150.384 129.211 150.054C128.984 149.727 128.689 149.452 128.346 149.247C128.004 149.041 127.622 148.911 127.225 148.864L111.724 146.775C110.852 146.675 109.972 146.886 109.24 147.37C108.509 147.855 107.972 148.581 107.726 149.422L106.207 155.131C106.093 155.506 106.063 155.901 106.12 156.288C106.177 156.675 106.319 157.045 106.536 157.371C106.753 157.697 107.039 157.971 107.375 158.174C107.711 158.377 108.087 158.503 108.477 158.544Z" fill="#E6E7E8"/>
<path d="M171.147 12.9676L147.5 10.9951C147.445 10.9902 147.392 10.9746 147.343 10.9491C147.294 10.9236 147.251 10.8889 147.216 10.8467C147.18 10.8046 147.154 10.756 147.137 10.7036C147.121 10.6512 147.115 10.5962 147.12 10.5415C147.125 10.4869 147.141 10.4337 147.166 10.3851C147.192 10.3365 147.227 10.2934 147.269 10.2582C147.311 10.2231 147.36 10.1965 147.412 10.1802C147.465 10.1638 147.52 10.1579 147.575 10.1628L171.214 12.127C171.324 12.127 171.431 12.1709 171.509 12.2489C171.587 12.3269 171.631 12.4328 171.631 12.5432C171.631 12.6535 171.587 12.7594 171.509 12.8374C171.431 12.9155 171.324 12.9593 171.214 12.9593L171.147 12.9676Z" fill="#D1D3D4"/>
<path d="M144.219 10.7206L141.081 10.4625C141.026 10.4584 140.973 10.4434 140.925 10.4184C140.876 10.3934 140.833 10.3589 140.798 10.317C140.763 10.2751 140.737 10.2266 140.721 10.1744C140.705 10.1222 140.7 10.0674 140.705 10.0131C140.716 9.90344 140.769 9.80218 140.853 9.73074C140.937 9.6593 141.046 9.62326 141.156 9.63025L144.286 9.89658C144.397 9.89658 144.503 9.94043 144.581 10.0185C144.66 10.0965 144.704 10.2024 144.704 10.3127C144.704 10.4231 144.66 10.5289 144.581 10.607C144.503 10.685 144.397 10.7289 144.286 10.7289L144.219 10.7206Z" fill="#D1D3D4"/>
<path d="M167.441 89.1136C167.441 89.1136 177.608 55.6887 168.793 48.2813L125.656 43.1045C125.656 43.1045 118.26 50.7865 117.192 56.6875C116.123 62.5884 107.175 75.156 110.514 82.655L167.441 89.1136Z" fill="#231F20"/>
<path d="M167.441 89.5299H167.399L110.464 83.063C110.392 83.0542 110.324 83.0275 110.266 82.9853C110.207 82.9431 110.161 82.8867 110.13 82.8216C107.818 77.6115 111.199 70.0959 113.92 64.0534C115.264 61.0738 116.424 58.4937 116.758 56.6127C117.834 50.6535 125.021 43.1296 125.33 42.8133C125.375 42.7669 125.43 42.7315 125.491 42.7098C125.552 42.6881 125.617 42.6808 125.681 42.6885L168.818 47.8737C168.897 47.8845 168.972 47.9161 169.035 47.9652C177.958 55.4559 168.201 87.8653 167.817 89.2386C167.791 89.3195 167.742 89.3908 167.675 89.4428C167.607 89.4949 167.526 89.5253 167.441 89.5299ZM110.831 82.264L167.141 88.6643C168.159 85.1853 176.498 55.589 168.618 48.7143L125.814 43.5707C124.796 44.6694 118.552 51.5274 117.601 56.7958C117.242 58.7767 116.065 61.3984 114.704 64.428C112.133 70.1957 108.853 77.3951 110.831 82.264Z" fill="#231F20"/>
<path d="M171.514 90.096H171.456L99.3624 80.0086C99.2545 79.9921 99.1573 79.9341 99.0917 79.8469C99.0262 79.7598 98.9975 79.6505 99.0119 79.5425C99.0264 79.4333 99.0838 79.3343 99.1714 79.2672C99.259 79.2002 99.3697 79.1704 99.4793 79.1846L171.573 89.272C171.683 89.2885 171.782 89.3474 171.849 89.4361C171.916 89.5248 171.946 89.6362 171.932 89.7464C171.914 89.8441 171.863 89.9326 171.786 89.9965C171.71 90.0604 171.614 90.0956 171.514 90.096Z" fill="#231F20"/>
<path d="M168.793 48.2813C168.793 48.2813 164.419 48.8805 161.74 57.9525C157.641 71.8351 152.241 101.132 148.827 112.151C143.819 128.181 130.463 130.462 130.463 130.462L73.9957 122.297C73.9957 122.297 96.9751 114.357 100.856 100.857C104.938 86.6333 110.589 59.7586 112.117 53.7578C114.813 43.1294 125.681 43.1294 125.681 43.1294L168.793 48.2813Z" fill="white"/>
<path d="M130.439 130.853H130.38L73.9123 122.688C73.8194 122.674 73.7338 122.63 73.6689 122.562C73.604 122.494 73.5634 122.407 73.5534 122.314C73.5443 122.221 73.5664 122.129 73.6164 122.05C73.6663 121.972 73.7411 121.912 73.8288 121.881C74.0626 121.806 96.658 113.849 100.431 100.716C103.261 90.8532 106.892 74.7234 109.287 64.0451C110.364 59.2594 111.215 55.4725 111.683 53.6331C114.429 42.8133 125.547 42.6885 125.656 42.6885L168.843 47.8736C168.944 47.8857 169.036 47.9337 169.104 48.0088C169.171 48.0838 169.209 48.1807 169.211 48.2815C169.21 48.382 169.173 48.479 169.108 48.5552C169.042 48.6314 168.951 48.6819 168.852 48.6976C168.785 48.6976 164.678 49.455 162.174 58.0692C160.096 65.0938 157.7 76.0467 155.371 86.6418C153.101 97.0205 150.947 106.825 149.261 112.276C146.657 120.674 141.749 125.277 138.026 127.657C135.744 129.181 133.196 130.265 130.514 130.853H130.439ZM75.6235 122.097L130.43 130.021C131.407 129.821 143.785 127.066 148.426 112.027C150.096 106.608 152.258 96.8207 154.528 86.467C156.849 75.8553 159.261 64.8857 161.339 57.8362C163.101 51.8853 165.588 49.5133 167.182 48.5062L125.606 43.5124C125.222 43.5124 115.08 43.6539 112.492 53.8412C112.033 55.6639 111.182 59.4425 110.105 64.2282C107.701 74.9148 104.07 91.0613 101.232 100.949C99.1872 108.048 91.9086 113.583 86.1574 116.97C82.78 118.94 79.2587 120.654 75.6235 122.097Z" fill="#231F20"/>
<path d="M141.649 113.125H141.599L133.961 112.293C133.852 112.281 133.752 112.225 133.683 112.14C133.614 112.054 133.582 111.945 133.594 111.835C133.599 111.781 133.615 111.728 133.641 111.68C133.667 111.632 133.703 111.589 133.745 111.555C133.788 111.521 133.837 111.496 133.89 111.481C133.943 111.466 133.998 111.462 134.053 111.469L141.699 112.301C141.808 112.314 141.908 112.369 141.977 112.455C142.046 112.541 142.078 112.65 142.066 112.759C142.052 112.86 142.002 112.952 141.925 113.02C141.849 113.087 141.751 113.124 141.649 113.125Z" fill="#D1D3D4"/>
<path d="M127.801 111.561H127.751L104.888 108.972C104.779 108.96 104.679 108.905 104.61 108.819C104.541 108.733 104.509 108.624 104.521 108.515C104.526 108.46 104.542 108.407 104.568 108.359C104.594 108.311 104.63 108.269 104.673 108.234C104.715 108.2 104.765 108.175 104.818 108.16C104.87 108.145 104.926 108.141 104.98 108.148L127.851 110.728C127.962 110.735 128.065 110.785 128.139 110.868C128.212 110.951 128.25 111.059 128.243 111.17C128.237 111.28 128.186 111.383 128.103 111.456C128.02 111.53 127.912 111.567 127.801 111.561Z" fill="#D1D3D4"/>
<path d="M134.821 121.823H134.771L127.751 120.991C127.696 120.984 127.643 120.967 127.595 120.94C127.547 120.913 127.504 120.877 127.47 120.833C127.436 120.79 127.411 120.741 127.396 120.688C127.381 120.635 127.377 120.579 127.383 120.524C127.39 120.47 127.407 120.417 127.434 120.369C127.461 120.321 127.498 120.279 127.541 120.245C127.584 120.211 127.634 120.186 127.687 120.171C127.74 120.156 127.796 120.152 127.851 120.158L134.871 120.991C134.926 120.994 134.979 121.008 135.029 121.032C135.078 121.056 135.122 121.089 135.159 121.13C135.195 121.171 135.223 121.219 135.241 121.271C135.259 121.322 135.266 121.377 135.263 121.432C135.26 121.486 135.246 121.54 135.222 121.589C135.198 121.638 135.164 121.682 135.123 121.719C135.082 121.755 135.034 121.783 134.982 121.801C134.93 121.819 134.875 121.826 134.821 121.823Z" fill="#D1D3D4"/>
<path d="M119.971 120.142H119.921L98.0603 117.645C97.9496 117.633 97.8483 117.577 97.7786 117.491C97.709 117.404 97.6767 117.293 97.6889 117.183C97.701 117.073 97.7567 116.972 97.8436 116.902C97.9304 116.833 98.0414 116.8 98.1521 116.813L120.021 119.309C120.131 119.322 120.231 119.377 120.3 119.463C120.368 119.549 120.4 119.658 120.389 119.767C120.377 119.87 120.327 119.964 120.251 120.033C120.174 120.102 120.075 120.14 119.971 120.142Z" fill="#D1D3D4"/>
<path d="M130.438 130.437C127.135 127.394 124.595 123.62 123.022 119.419C121.449 115.218 120.887 110.707 121.382 106.251L62.1178 95.5889C62.1178 95.5889 67.2012 115.372 73.9623 122.272L130.438 130.437Z" fill="white"/>
<path d="M130.439 130.853H130.38L73.9123 122.688C73.8206 122.673 73.7361 122.629 73.6702 122.563C66.9091 115.664 61.9259 96.5044 61.7173 95.6888C61.7 95.6218 61.7001 95.5514 61.7176 95.4844C61.7352 95.4175 61.7695 95.356 61.8174 95.306C61.8647 95.253 61.9248 95.2129 61.992 95.1896C62.0592 95.1663 62.1313 95.1605 62.2014 95.1728L121.465 105.834C121.568 105.856 121.658 105.915 121.72 106C121.782 106.084 121.81 106.188 121.799 106.292C121.331 110.681 121.893 115.119 123.44 119.254C124.987 123.389 127.477 127.11 130.714 130.121C130.784 130.173 130.835 130.247 130.859 130.33C130.884 130.414 130.881 130.503 130.851 130.585C130.822 130.667 130.766 130.737 130.693 130.785C130.621 130.834 130.534 130.857 130.447 130.853H130.439ZM74.1711 121.881L129.195 129.838C126.21 126.792 123.924 123.135 122.495 119.122C121.067 115.108 120.531 110.833 120.923 106.592L62.6939 96.1133C63.6287 99.5174 68.2864 115.747 74.1711 121.881Z" fill="#231F20"/>
<path d="M153.91 61.2569H153.869L117.142 57.0954C117.086 57.0903 117.032 57.0741 116.984 57.0476C116.935 57.0211 116.892 56.9849 116.857 56.9412C116.823 56.8976 116.798 56.8474 116.784 56.7938C116.769 56.7402 116.766 56.6842 116.774 56.6293C116.787 56.5202 116.842 56.4205 116.928 56.3519C117.014 56.2833 117.124 56.2514 117.233 56.2631L153.961 60.4246C154.071 60.4301 154.175 60.4792 154.25 60.5612C154.324 60.6431 154.363 60.7512 154.357 60.8615C154.351 60.9719 154.302 61.0755 154.22 61.1497C154.138 61.2238 154.029 61.2624 153.919 61.2569H153.91Z" fill="#D1D3D4"/>
<path d="M152.375 70.6787H152.324L145.43 69.8963C145.375 69.8898 145.322 69.8725 145.274 69.8455C145.226 69.8186 145.183 69.7824 145.149 69.7391C145.115 69.6958 145.09 69.6463 145.075 69.5933C145.06 69.5403 145.056 69.4849 145.063 69.4302C145.069 69.3756 145.086 69.3228 145.113 69.2748C145.14 69.2268 145.177 69.1846 145.22 69.1506C145.264 69.1166 145.313 69.0914 145.366 69.0766C145.42 69.0617 145.475 69.0575 145.53 69.064L152.416 69.8381C152.471 69.8408 152.525 69.8543 152.574 69.8777C152.624 69.9011 152.668 69.9341 152.705 69.9747C152.742 70.0152 152.771 70.0626 152.789 70.1142C152.807 70.1657 152.815 70.2204 152.813 70.275C152.81 70.3297 152.796 70.3832 152.773 70.4327C152.749 70.4821 152.716 70.5265 152.676 70.5632C152.635 70.5999 152.588 70.6282 152.536 70.6466C152.484 70.665 152.429 70.6731 152.375 70.6703V70.6787Z" fill="#D1D3D4"/>
<path d="M137.759 69.0221L115.656 66.5252C115.545 66.5131 115.444 66.4576 115.374 66.371C115.305 66.2843 115.272 66.1737 115.285 66.0633C115.297 65.9529 115.352 65.8519 115.439 65.7825C115.526 65.713 115.637 65.6808 115.748 65.6929L137.851 68.1898C137.906 68.1931 137.959 68.2071 138.009 68.231C138.058 68.255 138.102 68.2884 138.139 68.3294C138.175 68.3703 138.203 68.418 138.221 68.4698C138.239 68.5215 138.246 68.5763 138.243 68.6309C138.24 68.6856 138.226 68.739 138.202 68.7883C138.178 68.8375 138.144 68.8815 138.103 68.9179C138.062 68.9542 138.014 68.9821 137.962 69C137.91 69.0179 137.855 69.0254 137.801 69.0221H137.759Z" fill="#D1D3D4"/>
<path d="M150.104 79.4587H150.054L138.694 78.177C138.584 78.1624 138.483 78.1055 138.415 78.0185C138.346 77.9314 138.314 77.821 138.326 77.7109C138.341 77.6011 138.398 77.5014 138.485 77.433C138.573 77.3646 138.683 77.3329 138.794 77.3447L150.146 78.6348C150.2 78.6399 150.253 78.6559 150.302 78.6819C150.35 78.7079 150.392 78.7433 150.427 78.786C150.461 78.8287 150.486 78.8779 150.501 78.9305C150.516 78.9832 150.52 79.0383 150.513 79.0925C150.501 79.1926 150.453 79.2849 150.378 79.3523C150.302 79.4196 150.205 79.4574 150.104 79.4587Z" fill="#D1D3D4"/>
<path d="M127.801 76.9369H127.751L113.344 75.2723C113.289 75.2663 113.236 75.2496 113.188 75.2231C113.139 75.1966 113.097 75.1609 113.062 75.1181C113.028 75.0752 113.002 75.0259 112.987 74.9731C112.971 74.9203 112.966 74.865 112.972 74.8104C112.978 74.7557 112.995 74.7028 113.022 74.6546C113.048 74.6064 113.084 74.5639 113.127 74.5295C113.17 74.4951 113.219 74.4695 113.272 74.4542C113.325 74.4388 113.381 74.434 113.436 74.44L127.851 76.063C127.961 76.0775 128.061 76.1344 128.13 76.2215C128.198 76.3086 128.23 76.419 128.218 76.5291C128.214 76.6373 128.168 76.7398 128.091 76.8157C128.013 76.8915 127.909 76.9348 127.801 76.9369Z" fill="#D1D3D4"/>
<path d="M148.168 87.7734H148.118L138.644 86.6665C138.534 86.6519 138.434 86.595 138.365 86.508C138.296 86.4209 138.265 86.3105 138.276 86.2004C138.293 86.0915 138.351 85.993 138.437 85.925C138.524 85.857 138.634 85.8245 138.744 85.8342L148.209 86.9079C148.32 86.9134 148.424 86.9625 148.498 87.0445C148.573 87.1264 148.611 87.2345 148.606 87.3448C148.6 87.4552 148.551 87.5588 148.469 87.633C148.387 87.7071 148.278 87.7457 148.168 87.7402V87.7734Z" fill="#D1D3D4"/>
<path d="M128.585 85.5601H128.535L111.399 83.6208C111.289 83.6083 111.189 83.5531 111.121 83.4674C111.052 83.3816 111.02 83.2722 111.032 83.1631C111.046 83.0533 111.103 82.9536 111.191 82.8851C111.278 82.8167 111.389 82.785 111.499 82.7969L128.627 84.7361C128.738 84.7361 128.844 84.7799 128.922 84.858C129.001 84.936 129.045 85.0419 129.045 85.1522C129.045 85.2626 129.001 85.3685 128.922 85.4465C128.844 85.5245 128.738 85.5684 128.627 85.5684L128.585 85.5601Z" fill="#D1D3D4"/>
<path d="M146.156 96.9787L137.751 96.0299C137.641 96.0174 137.541 95.9622 137.472 95.8765C137.404 95.7907 137.372 95.6813 137.383 95.5721C137.388 95.5177 137.404 95.4648 137.431 95.4167C137.457 95.3686 137.492 95.3262 137.535 95.292C137.578 95.2578 137.627 95.2326 137.68 95.2178C137.733 95.203 137.788 95.199 137.842 95.2059L146.248 96.1547C146.358 96.1614 146.462 96.2116 146.536 96.2943C146.609 96.377 146.647 96.4855 146.64 96.5959C146.633 96.7062 146.583 96.8094 146.5 96.8828C146.417 96.9562 146.308 96.9937 146.198 96.987L146.156 96.9787Z" fill="#D1D3D4"/>
<path d="M132.509 95.4387H132.458L109.396 92.8253C109.286 92.8128 109.186 92.7576 109.117 92.6719C109.049 92.5861 109.017 92.4767 109.028 92.3676C109.033 92.3131 109.05 92.2602 109.076 92.2121C109.102 92.164 109.137 92.1216 109.18 92.0874C109.223 92.0532 109.272 92.028 109.325 92.0132C109.378 91.9984 109.433 91.9944 109.487 92.0013L132.55 94.6064C132.661 94.6119 132.765 94.6611 132.839 94.743C132.914 94.825 132.952 94.933 132.947 95.0434C132.941 95.1537 132.892 95.2574 132.81 95.3315C132.728 95.4057 132.619 95.4442 132.509 95.4387Z" fill="#D1D3D4"/>
<path d="M144.036 104.428H143.986L133.969 103.296C133.86 103.283 133.76 103.228 133.691 103.143C133.622 103.057 133.59 102.947 133.602 102.838C133.607 102.784 133.623 102.731 133.649 102.683C133.675 102.635 133.711 102.592 133.754 102.558C133.796 102.524 133.846 102.499 133.899 102.484C133.951 102.469 134.007 102.465 134.061 102.472L144.077 103.604C144.188 103.611 144.292 103.661 144.365 103.743C144.439 103.826 144.476 103.935 144.47 104.045C144.463 104.155 144.413 104.259 144.33 104.332C144.247 104.405 144.138 104.443 144.027 104.436L144.036 104.428Z" fill="#D1D3D4"/>
<path d="M129.487 102.788L107.317 100.291C107.207 100.279 107.105 100.224 107.036 100.137C106.966 100.05 106.934 99.9398 106.946 99.8294C106.958 99.7191 107.014 99.618 107.1 99.5486C107.187 99.4791 107.298 99.4469 107.409 99.4591L129.579 101.956C129.689 101.963 129.793 102.013 129.867 102.095C129.94 102.178 129.978 102.287 129.971 102.397C129.964 102.507 129.914 102.611 129.831 102.684C129.748 102.757 129.639 102.795 129.529 102.788H129.487Z" fill="#D1D3D4"/>
<path d="M14.203 48.7012L33.3644 89.7676C34.9512 93.1684 39.0024 94.6427 42.4131 93.0605L105.614 63.7415C109.025 62.1593 110.503 58.1198 108.916 54.719L89.7551 13.6526C88.1683 10.2518 84.1171 8.77756 80.7064 10.3598L17.5055 39.6787C14.0948 41.2609 12.6163 45.3004 14.203 48.7012Z" fill="white"/>
<path d="M39.5558 94.1573C38.1782 94.1591 36.8288 93.7684 35.6665 93.0311C34.5041 92.2939 33.5773 91.2408 32.9951 89.9959L13.7968 48.9306C12.9895 47.1977 12.9052 45.2161 13.5626 43.4213C14.22 41.6265 15.5652 40.1654 17.3026 39.3593L80.5065 10.0376C82.2444 9.2326 84.2317 9.1486 86.0317 9.80409C87.8317 10.4596 89.297 11.8009 90.1056 13.5333L109.262 54.5985C109.663 55.4559 109.891 56.3837 109.932 57.3288C109.974 58.274 109.828 59.2181 109.503 60.107C109.178 60.9959 108.681 61.8123 108.039 62.5094C107.398 63.2065 106.625 63.7708 105.765 64.1699L42.5608 93.4915C41.6192 93.9275 40.594 94.1546 39.5558 94.1573ZM83.5782 10.1458C82.6499 10.1464 81.7329 10.3481 80.8904 10.7368L17.6866 40.0584C16.151 40.7722 14.9624 42.0646 14.3817 43.6517C13.8011 45.2387 13.8759 46.9907 14.5898 48.5228L33.788 89.5964C34.5056 91.1281 35.8033 92.3134 37.3963 92.8923C38.9893 93.4712 40.7476 93.3963 42.2853 92.6842L105.456 63.3625C106.991 62.6487 108.18 61.3563 108.761 59.7692C109.341 58.1822 109.266 56.4302 108.553 54.8981L89.3543 13.8246C88.8402 12.7286 88.0242 11.8009 87.0015 11.1496C85.9789 10.4983 84.7916 10.1502 83.5782 10.1458Z" fill="#231F20"/>
<path d="M69.4819 30.0184L74.3163 40.3793C75.4636 42.8382 78.3928 43.9042 80.8588 42.7602L88.215 39.3476C90.681 38.2036 91.7501 35.2829 90.6028 32.824L85.7684 22.4631C84.6211 20.0041 81.6919 18.9382 79.2259 20.0822L71.8697 23.4947C69.4036 24.6387 68.3346 27.5595 69.4819 30.0184Z" fill="#DC0E51"/>
<path d="M24.204 45.6035C22.6868 46.3073 22.029 48.1043 22.7349 49.6172C23.4408 51.13 25.243 51.7859 26.7603 51.082L40.9201 44.5132C42.4374 43.8094 43.0951 42.0124 42.3892 40.4996C41.6833 38.9867 39.8811 38.3309 38.3639 39.0347L24.204 45.6035Z" fill="#D1D3D4"/>
<path d="M85.351 56.5932L86.7066 59.4984C87.0625 60.2611 87.971 60.5917 88.7359 60.2369L99.3918 55.2937C100.157 54.9388 100.488 54.0329 100.132 53.2702L98.7768 50.365C98.4209 49.6023 97.5124 49.2716 96.7475 49.6265L86.0916 54.5697C85.3267 54.9246 84.9952 55.8305 85.351 56.5932Z" fill="#D1D3D4"/>
<path d="M69.0867 64.1464L70.4423 67.0517C70.7981 67.8143 71.7067 68.145 72.4716 67.7901L83.1274 62.8469C83.8923 62.492 84.2239 61.5861 83.868 60.8234L82.5124 57.9182C82.1566 57.1555 81.248 56.8249 80.4831 57.1797L69.8273 62.123C69.0624 62.4778 68.7308 63.3837 69.0867 64.1464Z" fill="#D1D3D4"/>
<path d="M52.8114 71.6869L54.167 74.5922C54.5229 75.3549 55.4314 75.6855 56.1963 75.3307L66.8521 70.3874C67.617 70.0326 67.9486 69.1267 67.5928 68.364L66.2372 65.4587C65.8813 64.696 64.9728 64.3654 64.2079 64.7202L53.552 69.6635C52.7871 70.0183 52.4555 70.9242 52.8114 71.6869Z" fill="#D1D3D4"/>
<path d="M36.5472 79.2318L37.9028 82.1371C38.2587 82.8998 39.1672 83.2304 39.9321 82.8756L50.588 77.9323C51.3529 77.5775 51.6845 76.6716 51.3286 75.9089L49.973 73.0036C49.6171 72.2409 48.7086 71.9103 47.9437 72.2651L37.2879 77.2084C36.523 77.5632 36.1914 78.4691 36.5472 79.2318Z" fill="#D1D3D4"/>
<path d="M155.229 41.723C155.159 41.7237 155.09 41.7064 155.029 41.6729C154.968 41.6394 154.916 41.5908 154.879 41.5316L143.685 24.0535C143.632 23.9609 143.617 23.8517 143.643 23.7482C143.668 23.6447 143.732 23.5549 143.822 23.4972C143.912 23.4396 144.021 23.4186 144.126 23.4385C144.231 23.4583 144.324 23.5176 144.386 23.6041L155.58 41.0822C155.639 41.1749 155.66 41.2875 155.636 41.3951C155.613 41.5028 155.548 41.5968 155.455 41.6565C155.389 41.7021 155.31 41.7255 155.229 41.723Z" fill="white"/>
<path d="M121.382 36.6462C121.305 36.6462 121.229 36.6253 121.163 36.5857C121.097 36.5462 121.043 36.4894 121.006 36.4215L115.289 25.4103C115.263 25.3624 115.247 25.3097 115.241 25.2555C115.236 25.2013 115.242 25.1466 115.258 25.0946C115.275 25.0426 115.301 24.9944 115.337 24.9529C115.372 24.9113 115.415 24.8772 115.464 24.8527C115.513 24.8266 115.566 24.8105 115.621 24.8052C115.676 24.7999 115.732 24.8055 115.784 24.8218C115.837 24.838 115.886 24.8646 115.929 24.8999C115.971 24.9352 116.006 24.9785 116.032 25.0274L121.749 36.0387C121.8 36.1372 121.81 36.2514 121.777 36.3572C121.744 36.4629 121.671 36.5517 121.574 36.6046C121.513 36.6295 121.448 36.6436 121.382 36.6462Z" fill="white"/>
<path d="M28.1371 101.174L24.6397 105.177C22.411 107.957 15.3244 106.009 8.83038 100.807C2.33637 95.6055 -1.136 89.1636 1.1177 86.3754L4.62346 82.3721L28.1371 101.174Z" fill="white"/>
<path d="M21.3342 106.867C17.9954 106.867 13.1791 104.811 8.5632 101.132C5.63354 98.8784 3.17257 96.0768 1.31796 92.8841C-0.226249 89.9961 -0.418228 87.5991 0.767053 86.1176L4.28116 82.0976C4.35213 82.0168 4.45171 81.9664 4.55906 81.9571C4.66641 81.9478 4.77321 81.9803 4.85711 82.0477L28.3958 100.816C28.441 100.849 28.4785 100.891 28.5059 100.94C28.5332 100.989 28.5498 101.043 28.5544 101.099C28.5635 101.213 28.5276 101.327 28.4542 101.415L24.9485 105.418C24.4972 105.919 23.9367 106.31 23.3101 106.561C22.6836 106.812 22.0076 106.917 21.3342 106.867ZM4.64009 82.9466L1.40977 86.6669C0.466557 87.8404 0.700278 89.9961 2.0525 92.493C3.85276 95.5909 6.24312 98.308 9.08906 100.491C15.2909 105.485 22.2607 107.474 24.3141 104.927L27.536 101.232L4.64009 82.9466Z" fill="#231F20"/>
<path d="M28.1343 101.166C30.3647 98.3895 26.9019 91.9292 20.3999 86.737C13.8978 81.5448 6.81876 79.5869 4.58832 82.3639C2.35787 85.1409 5.82069 91.6012 12.3227 96.7934C18.8248 101.986 25.9038 103.943 28.1343 101.166Z" fill="white"/>
<path d="M24.8316 102.855C21.4927 102.855 16.6681 100.799 12.0689 97.1287C9.13464 94.8775 6.67048 92.0755 4.81533 88.8807C3.27113 85.9926 3.07915 83.5956 4.27277 82.1142C5.45806 80.6327 7.85366 80.2914 11.0088 81.1653C14.5407 82.2711 17.8215 84.0552 20.6664 86.4171C27.4525 91.8353 30.8748 98.4271 28.4625 101.398C28.0091 101.902 27.4461 102.294 26.8167 102.547C26.1872 102.799 25.5082 102.905 24.8316 102.855ZM7.8954 81.5316C7.34911 81.48 6.79821 81.552 6.28371 81.7423C5.76921 81.9325 5.30438 82.236 4.92384 82.6302C3.96393 83.8203 4.19765 85.9593 5.55822 88.4562C7.35602 91.5534 9.7435 94.2704 12.5864 96.4545C18.7883 101.448 25.7664 103.437 27.8115 100.891C29.8565 98.3438 26.3507 91.9935 20.1405 87.0413C17.3859 84.7492 14.2067 83.0186 10.7835 81.9477C9.84429 81.6784 8.87261 81.5384 7.8954 81.5316Z" fill="#231F20"/>
<path d="M10.8921 84.6522L12.4196 86.1004H12.5949C13.0874 86.1919 13.5548 86.2585 14.0556 86.3833C15.3717 86.7344 16.6151 87.3149 17.7283 88.0979C18.4244 88.5688 19.0558 89.1284 19.6064 89.7624C19.9525 90.1057 20.1829 90.5478 20.2659 91.0275C20.2829 91.1973 20.2472 91.3682 20.1636 91.5171C20.08 91.6659 19.9525 91.7856 19.7984 91.8598C19.5563 92.0263 19.2892 92.1761 19.0221 92.3425L21.8935 95.0641C22.386 94.7146 22.169 94.1236 21.4929 93.3995L23.2541 93.0999C23.7898 93.5636 24.2269 94.1296 24.5395 94.7645C24.6723 95.0032 24.7297 95.2762 24.7044 95.5479C24.6791 95.8196 24.5722 96.0774 24.3976 96.2876C24.2224 96.479 23.9803 96.6455 23.7633 96.8369L24.8066 97.8273L23.1372 98.3517L22.0688 97.3446C21.5513 97.3446 21.0672 97.3446 20.533 97.3446C19.5032 97.2465 18.4995 96.9646 17.5698 96.5123C16.3085 95.9567 15.1728 95.1528 14.2309 94.1486C13.271 93.0999 13.0623 92.276 13.655 91.7183C14.0508 91.3788 14.5105 91.1214 15.0072 90.9609L15.2075 90.886L12.2944 88.1395H12.2109C12.1449 88.3167 12.1001 88.5011 12.0774 88.6888C12.1722 89.0648 12.3859 89.4003 12.6867 89.6459L9.95724 89.8124C9.74022 89.5793 9.52319 89.3546 9.33121 89.1299C8.63006 88.2976 8.36296 87.6068 8.57998 87.0658C8.72282 86.8045 8.92906 86.583 9.17985 86.4216C9.43065 86.2602 9.71801 86.1641 10.0157 86.142C10.1075 86.142 10.1075 86.092 10.0157 86.0005C9.48981 85.5177 8.97229 85.0267 8.45477 84.5356L10.8921 84.6522ZM17.4863 93.0583C17.2275 93.2664 16.8936 93.4245 16.9604 93.8157C17.0272 94.2069 17.937 95.0225 18.7801 95.3055C19.1947 95.4533 19.6338 95.5211 20.0739 95.5052L17.4863 93.0583ZM16.8185 90.2701C17.0439 90.1453 17.2693 90.0454 17.3026 89.8207C17.3611 89.4045 16.4679 88.6139 15.5498 88.281C15.1575 88.1311 14.7818 88.0479 14.3478 87.9231L16.8185 90.2701Z" fill="#D1D3D4"/>
<path d="M55.2733 143.404L57.3183 148.306C58.8208 151.536 53.9211 156.987 46.3753 160.5C38.8296 164.012 31.4842 164.228 29.9734 161.007L27.9283 156.097L55.2733 143.404Z" fill="white"/>
<path d="M35.449 163.712C32.5359 163.712 30.3823 162.88 29.606 161.215L27.5527 156.296C27.5122 156.196 27.5112 156.085 27.55 155.985C27.5887 155.884 27.6643 155.802 27.7613 155.755L55.1063 143.063C55.1575 143.04 55.213 143.028 55.269 143.028C55.3251 143.028 55.3806 143.04 55.4318 143.063C55.4844 143.084 55.5321 143.116 55.5723 143.156C55.6124 143.196 55.6441 143.243 55.6655 143.296L57.7106 148.198C59.3299 151.669 54.4385 157.262 46.5589 160.924C43.0913 162.616 39.3068 163.566 35.449 163.712ZM28.4708 156.305L30.3573 160.841C31.7345 163.787 38.9881 163.462 46.2167 160.116C53.4452 156.771 58.3366 151.444 56.951 148.464L55.0729 143.945L28.4708 156.305Z" fill="#231F20"/>
<path d="M44.3234 155.595C51.8749 152.089 56.7756 146.632 55.2694 143.407C53.7631 140.182 46.4203 140.409 38.8688 143.916C31.3172 147.422 26.4166 152.879 27.9228 156.104C29.4291 159.33 36.7719 159.102 44.3234 155.595Z" fill="white"/>
<path d="M33.379 158.793C30.3741 158.793 28.3124 157.911 27.5361 156.297C25.8667 152.818 30.7998 147.216 38.6794 143.563C46.559 139.909 54.0046 139.767 55.6323 143.255C57.26 146.742 52.3686 152.335 44.489 155.997C41.1612 157.615 37.5492 158.57 33.8548 158.81L33.379 158.793ZM49.8478 141.598C46.0966 141.752 42.4184 142.682 39.0467 144.328C31.8432 147.657 26.9268 153.001 28.304 155.98C28.9551 157.362 30.9918 158.094 33.8465 158.011C37.4292 157.779 40.9314 156.849 44.1551 155.273C51.3586 151.944 56.275 146.6 54.8894 143.621C54.255 142.223 52.3853 141.598 49.8478 141.598Z" fill="#231F20"/>
<path d="M32.7696 151.486L34.7479 150.761L34.8564 150.62C35.1569 150.221 35.4156 149.788 35.7579 149.438C36.6603 148.427 37.7339 147.582 38.9298 146.941C39.6648 146.53 40.4505 146.217 41.2669 146.009C41.7308 145.859 42.2304 145.859 42.6943 146.009C42.8467 146.072 42.9772 146.178 43.0693 146.314C43.1614 146.45 43.211 146.611 43.2118 146.775C43.2118 147.066 43.2702 147.374 43.2953 147.682L47.0181 146.325C46.9179 145.726 46.3002 145.66 45.3486 145.943L45.8578 144.278C46.5225 144.007 47.2348 143.871 47.9529 143.878C48.2297 143.865 48.5038 143.938 48.7371 144.088C48.9704 144.237 49.1514 144.454 49.2551 144.711C49.3453 144.983 49.4178 145.261 49.4721 145.543L50.8243 145.052L50.5572 146.775L49.1799 147.291C48.9462 147.749 48.7459 148.19 48.4788 148.656C47.9428 149.534 47.2529 150.309 46.4421 150.945C45.3895 151.827 44.1644 152.482 42.8445 152.867C41.4756 153.267 40.6492 153.084 40.4072 152.31C40.2772 151.807 40.2488 151.284 40.3237 150.77C40.3237 150.695 40.3237 150.62 40.3237 150.553L36.5675 151.943L36.5008 152.002C36.628 152.14 36.7741 152.261 36.9348 152.359C37.313 152.445 37.7092 152.405 38.0617 152.243L37.0016 154.74C36.6927 154.831 36.4006 154.923 36.1168 154.99C35.0567 155.256 34.3138 155.189 33.9215 154.748C33.7544 154.508 33.6494 154.23 33.6159 153.94C33.5824 153.65 33.6214 153.355 33.7295 153.084C33.7295 153 33.7295 152.984 33.596 153.034L31.5844 153.774L32.7696 151.486ZM43.2535 149.322C43.3287 149.646 43.3203 150.012 43.6959 150.154C44.1022 150.149 44.5031 150.061 44.8736 149.895C45.2441 149.729 45.5763 149.488 45.8495 149.188C46.1661 148.881 46.421 148.517 46.6007 148.115L43.2535 149.322ZM40.4489 148.681C40.4489 148.431 40.4489 148.173 40.2569 148.048C39.9147 147.815 38.8129 148.256 38.0951 148.93C37.7946 149.213 37.5525 149.513 37.2603 149.846L40.4489 148.681Z" fill="#D1D3D4"/>
<path d="M35.2822 112.775C32.3106 117.711 35.6411 128.647 35.6411 128.647L40.04 131.843C41.608 132.784 43.3465 133.407 45.1562 133.678C46.9658 133.948 48.8112 133.861 50.5869 133.42C52.3627 132.98 54.034 132.195 55.5055 131.11C56.977 130.026 58.2198 128.663 59.1631 127.099C60.1063 125.536 60.7315 123.802 61.0029 121.998C61.2742 120.193 61.1865 118.353 60.7447 116.583C60.3029 114.812 59.5157 113.146 58.4279 111.678C57.3402 110.211 55.9733 108.972 54.4053 108.031L49.5306 105.643C49.5306 105.643 38.2537 107.848 35.2822 112.775Z" fill="white"/>
<path d="M47.1934 134.249C44.5986 134.244 42.0539 133.536 39.8313 132.201L35.3907 128.989C35.3188 128.934 35.2662 128.858 35.2404 128.772C35.0985 128.314 31.9016 117.595 34.9232 112.559C37.9616 107.565 48.963 105.327 49.4304 105.235C49.5149 105.211 49.6046 105.211 49.6892 105.235L54.5805 107.624C57.2734 109.234 59.3624 111.681 60.5275 114.588C61.6927 117.496 61.8697 120.704 61.0315 123.721C60.1932 126.739 58.386 129.399 55.8866 131.294C53.3872 133.19 50.3335 134.216 47.1934 134.215V134.249ZM36 128.423L40.2904 131.527C43.3621 133.357 47.036 133.897 50.5067 133.03C53.9773 132.162 56.9612 129.958 58.8041 126.9C60.6469 123.837 61.1958 120.171 60.3304 116.705C59.465 113.239 57.256 110.258 54.1882 108.414L49.4554 106.109C48.1783 106.375 38.3121 108.606 35.6411 113.017C32.97 117.461 35.6411 127.149 36 128.398V128.423Z" fill="#231F20"/>
<path d="M44.1884 132.01C51.8824 132.01 58.1196 125.791 58.1196 118.119C58.1196 110.447 51.8824 104.228 44.1884 104.228C36.4944 104.228 30.2572 110.447 30.2572 118.119C30.2572 125.791 36.4944 132.01 44.1884 132.01Z" fill="white"/>
<path d="M44.1634 132.443C41.9539 132.437 39.7756 131.923 37.7983 130.94C35.821 129.957 34.0981 128.531 32.7639 126.775C31.4298 125.019 30.5203 122.98 30.1066 120.815C29.6928 118.651 29.7859 116.421 30.3785 114.299C30.9711 112.176 32.0473 110.219 33.5232 108.58C34.999 106.94 36.8347 105.662 38.8871 104.847C40.9395 104.031 43.1531 103.698 45.3554 103.875C47.5578 104.053 49.6893 104.735 51.5839 105.868C54.2774 107.48 56.3661 109.928 57.5295 112.837C58.6929 115.747 58.8666 118.956 58.0241 121.974C57.1816 124.991 55.3694 127.649 52.8655 129.54C50.3617 131.432 47.3046 132.451 44.1634 132.443ZM44.2135 104.661C40.944 104.656 37.7836 105.834 35.318 107.975C32.8525 110.116 31.2489 113.075 30.8046 116.305C30.3603 119.535 31.1053 122.816 32.9017 125.539C34.698 128.263 37.4237 130.246 40.5738 131.119C43.7238 131.992 47.0845 131.697 50.0329 130.288C52.9814 128.879 55.3176 126.452 56.6087 123.457C57.8998 120.462 58.0581 117.102 57.0544 113.999C56.0506 110.897 53.9529 108.262 51.1499 106.584C49.0563 105.324 46.659 104.653 44.2135 104.645V104.661Z" fill="#231F20"/>
<path d="M36.3755 111.752L38.1117 112.801C38.2285 112.867 38.287 112.859 38.3704 112.759C39.052 112.003 39.9131 111.431 40.8746 111.094C41.8779 110.741 42.9759 110.765 43.963 111.161C44.2301 111.269 44.4888 111.394 44.7977 111.519L43.1783 114.199C42.7709 113.96 42.2941 113.866 41.8261 113.932C41.4666 114.026 41.1126 114.14 40.766 114.274V114.34L44.1049 116.354L44.3469 116.105C44.9287 115.477 45.5813 114.918 46.2918 114.44C46.8151 114.064 47.4312 113.838 48.0739 113.785C48.7166 113.732 49.3616 113.855 49.9395 114.141C51.0634 114.598 51.9626 115.476 52.4436 116.587C52.8398 117.491 52.9392 118.496 52.7274 119.459C52.6022 120.058 52.4018 120.649 52.2265 121.265L53.5287 122.047L52.0429 124.544L50.7074 123.712C50.265 124.128 49.8727 124.544 49.447 124.91C48.6178 125.635 47.5681 126.06 46.4671 126.117C45.5201 126.14 44.5875 125.883 43.7877 125.376L45.3736 122.738C45.844 122.996 46.3866 123.093 46.9176 123.013C47.4486 122.934 47.9385 122.682 48.3118 122.297L44.7142 120.15C44.2718 120.557 43.8294 120.982 43.3787 121.381C42.8504 121.888 42.2055 122.256 41.5006 122.455C40.7767 122.635 40.0142 122.583 39.322 122.305C38.4588 122.005 37.6959 121.472 37.1184 120.766C36.7044 120.254 36.4083 119.657 36.2511 119.019C36.0938 118.38 36.0793 117.715 36.2086 117.07C36.3087 116.546 36.5174 116.038 36.6676 115.53C36.6676 115.472 36.6676 115.414 36.7344 115.347L34.9315 114.265L36.3755 111.752ZM49.7976 119.792C49.9906 119.355 50.0544 118.873 49.9812 118.402C49.9064 118.001 49.6866 117.641 49.3635 117.391C49.0404 117.141 48.6364 117.018 48.2283 117.045C47.6508 117.204 47.1281 117.518 46.7175 117.952L49.7976 119.792ZM38.9881 116.687C38.9287 117.095 38.9008 117.507 38.9046 117.919C38.9232 118.142 38.9903 118.358 39.1012 118.553C39.2122 118.748 39.3643 118.916 39.5471 119.046C39.7298 119.176 39.9388 119.264 40.1594 119.305C40.38 119.347 40.607 119.339 40.8245 119.284C41.2639 119.092 41.6568 118.809 41.9764 118.452L38.9881 116.687Z" fill="#D1D3D4"/>
</svg>
