<svg width="255" height="156" viewBox="0 0 255 156" fill="none" xmlns="http://www.w3.org/2000/svg">
<path d="M248.021 127.709C247.694 126.883 247.296 126.087 246.831 125.33C245.379 122.048 248.21 118.668 250.22 115.723C251.933 113.209 253.145 110.387 253.788 107.413C253.908 107.068 253.955 106.702 253.927 106.338C253.898 105.973 253.795 105.619 253.624 105.296C253.448 105.079 253.228 104.901 252.977 104.777C252.726 104.652 252.452 104.583 252.172 104.575C250.326 104.443 248.809 106.027 247.906 107.643C247.004 109.259 246.339 111.105 244.895 112.261C242.098 114.493 237.028 113.656 235.568 116.929C234.665 118.956 235.789 121.704 234.304 123.353C233.767 123.856 233.137 124.252 232.45 124.518C228.496 126.396 224.87 129.227 222.745 133.058C218.012 141.631 225.822 156.176 236.487 151.278C243.091 148.251 241.056 142.64 242.049 137.332C242.705 133.739 248.923 131.384 248.021 127.709Z" fill="#231F20"/>
<path d="M232.245 152.664C230.85 152.642 229.475 152.326 228.21 151.736C226.945 151.147 225.818 150.297 224.903 149.243C220.842 144.854 219.735 137.66 222.393 132.836C224.854 128.34 229.144 125.617 232.278 124.124L232.409 124.058C233 123.827 233.54 123.485 234.001 123.049C234.731 122.229 234.739 121.064 234.756 119.817C234.692 118.769 234.842 117.72 235.199 116.732C236.117 114.657 238.341 114.099 240.498 113.566C241.978 113.31 243.388 112.752 244.641 111.925C245.621 111.005 246.393 109.886 246.905 108.643C247.11 108.225 247.324 107.823 247.553 107.405C248.136 106.363 249.744 103.959 252.205 104.123C252.545 104.132 252.879 104.216 253.182 104.369C253.486 104.522 253.752 104.741 253.96 105.009C254.168 105.381 254.295 105.792 254.335 106.216C254.374 106.639 254.325 107.067 254.19 107.47C253.53 110.493 252.297 113.362 250.556 115.92C250.343 116.24 250.113 116.568 249.883 116.896C248.07 119.489 246.003 122.434 247.201 125.1C247.343 125.4 247.505 125.691 247.685 125.97C248.001 126.457 248.247 126.988 248.415 127.545C248.973 129.817 247.16 131.573 245.396 133.287C244.083 134.559 242.721 135.871 242.451 137.332C242.232 138.689 242.111 140.059 242.09 141.434C241.934 145.47 241.786 149.276 236.659 151.631C235.28 152.291 233.774 152.643 232.245 152.664ZM251.934 104.976C250.064 104.976 248.735 106.962 248.242 107.839C248.021 108.233 247.816 108.66 247.611 109.045C247.056 110.386 246.216 111.589 245.15 112.573C243.811 113.486 242.292 114.101 240.695 114.378C238.644 114.895 236.708 115.379 235.945 117.093C235.637 117.978 235.509 118.915 235.568 119.85C235.568 121.187 235.568 122.582 234.6 123.623C234.074 124.142 233.449 124.549 232.762 124.821L232.631 124.887C229.604 126.322 225.486 128.989 223.106 133.254C220.645 137.766 221.663 144.543 225.502 148.686C226.798 150.211 228.568 151.258 230.529 151.661C232.49 152.064 234.53 151.799 236.323 150.909C240.99 148.759 241.122 145.363 241.245 141.417C241.263 140.013 241.387 138.611 241.614 137.225C241.934 135.51 243.386 134.099 244.797 132.746C246.438 131.105 248.037 129.62 247.586 127.824C247.439 127.344 247.224 126.888 246.946 126.47C246.755 126.159 246.58 125.839 246.421 125.51C245.043 122.393 247.242 119.251 249.178 116.486C249.407 116.158 249.637 115.838 249.85 115.518C251.528 113.045 252.72 110.275 253.362 107.355C253.564 106.767 253.529 106.122 253.263 105.559C253.123 105.39 252.948 105.253 252.749 105.158C252.551 105.063 252.334 105.012 252.115 105.009L251.934 104.976Z" fill="#231F20"/>
<path d="M19.5486 130.252C16.6117 128.325 16.0457 124.338 14.3475 121.228C12.0259 117.012 7.48922 114.493 2.91978 113.025C2.15683 112.77 1.16419 112.606 0.680172 113.246C0.455411 113.593 0.364985 114.01 0.425857 114.419C0.680171 118.94 5.34806 122.311 5.49573 126.832C5.55315 129.35 4.17494 132.016 5.31525 134.264C6.45556 136.512 9.50733 137.16 10.5 139.416C11.1891 140.991 10.6394 142.796 10.6476 144.51C10.7461 156.192 32.0838 157.251 36.7599 148.53C38.8683 144.609 37.3096 139.793 34.6926 136.536C30.279 131.04 24.6267 133.583 19.5486 130.252Z" fill="#231F20"/>
<path d="M24.1673 154.716C22.5261 154.723 20.8901 154.532 19.2943 154.15C13.6666 152.755 10.2702 149.17 10.2702 144.551C10.278 144.003 10.3136 143.455 10.3769 142.91C10.5792 141.815 10.503 140.687 10.1554 139.629C9.5692 138.604 8.71947 137.754 7.69428 137.168C6.56038 136.507 5.61213 135.57 4.93784 134.444C4.15849 132.902 4.47023 131.204 4.76557 129.563C4.96094 128.671 5.06539 127.761 5.0773 126.848C5.02808 124.666 3.85496 122.746 2.6162 120.761C1.37745 118.775 0.155099 116.774 0.0156369 114.444C-0.0454374 113.935 0.073574 113.421 0.351987 112.992C0.860615 112.335 1.76302 112.212 3.04279 112.639C8.72794 114.518 12.6575 117.348 14.7084 121.081C15.2419 122.107 15.7131 123.164 16.1194 124.247C17.0219 126.528 17.875 128.685 19.7701 129.924C21.8292 131.278 24.0442 131.639 26.1854 131.983C29.2207 132.475 32.3545 132.984 35.0125 136.298C37.4736 139.325 39.4507 144.395 37.1209 148.735C34.9469 152.78 29.4586 154.716 24.1673 154.716ZM1.73021 113.205C1.59468 113.194 1.45849 113.214 1.33197 113.264C1.20545 113.314 1.09195 113.392 1.00008 113.492C0.841441 113.767 0.783439 114.089 0.836004 114.403C0.950856 116.519 2.09937 118.373 3.29711 120.326C4.49484 122.278 5.83204 124.428 5.88947 126.823C5.87896 127.794 5.769 128.762 5.56132 129.711C5.27419 131.286 5.00347 132.779 5.65977 134.075C6.27836 135.047 7.12271 135.855 8.12087 136.43C9.27863 137.103 10.2315 138.078 10.8773 139.252C11.2869 140.429 11.3858 141.692 11.1644 142.919C11.1152 143.452 11.066 143.993 11.066 144.51C11.1152 150.597 16.9808 152.714 19.4994 153.321C25.5537 154.814 33.7327 153.321 36.4071 148.333C38.5483 144.346 36.6533 139.621 34.3808 136.791C31.9197 133.722 29.0731 133.263 26.0623 132.779C23.8391 132.418 21.5339 132.041 19.3271 130.589C17.1203 129.137 16.2753 126.831 15.3647 124.534C14.9611 123.481 14.4926 122.453 13.9619 121.458C12.0094 117.922 8.21931 115.215 2.75566 113.41C2.42561 113.292 2.08017 113.223 1.73021 113.205Z" fill="#231F20"/>
<path d="M35.2011 116.979C35.2832 115.067 36.4153 113.353 36.6778 111.458C37.3177 106.708 32.6334 103.254 29.5488 99.5624C26.2673 95.6493 24.5446 90.727 22.6577 86.0427C21.9686 84.3364 21.1975 82.5644 19.7536 81.4241C18.3098 80.2838 15.9799 80.0459 14.733 81.4241C13.8142 82.4331 13.7567 83.9508 13.847 85.3208C14.0748 88.5964 14.8513 91.8105 16.144 94.8289C17.3007 97.5361 18.9086 100.325 18.4 103.229C17.9816 105.625 16.2178 107.504 14.8396 109.497C13.4614 111.491 12.3785 114.14 13.5516 116.281C14.249 117.594 15.6026 118.39 16.7675 119.309C18.983 121.133 20.6069 123.575 21.4336 126.323C22.2602 129.072 22.2522 132.004 21.4108 134.748C20.8118 136.156 20.3689 137.625 20.09 139.129C19.8439 141.664 21.2385 144.092 23.0023 145.93C29.4586 152.64 46.6207 153.822 49.3771 142.648C50.583 137.767 48.3844 131.417 45.0209 127.881C41.9035 124.584 34.9714 122.385 35.2011 116.979Z" fill="#231F20"/>
<path d="M36.5795 151.385C31.3373 151.385 25.8409 149.432 22.7071 146.167C21.4437 144.855 19.3764 142.188 19.6881 139.046C19.84 137.962 20.1352 136.903 20.5659 135.896C20.7218 135.486 20.8858 135.076 21.0171 134.649C21.8266 131.984 21.8311 129.139 21.0298 126.471C20.2286 123.803 18.6574 121.431 16.5133 119.653L15.7585 119.079C14.7222 118.421 13.8451 117.541 13.1908 116.503C11.8044 113.894 13.4205 110.867 14.5034 109.292C14.7987 108.865 15.1187 108.471 15.4304 108.012C16.5379 106.519 17.6864 104.968 17.9981 103.188C18.4001 100.875 17.3583 98.5614 16.3574 96.33C16.1605 95.887 15.9636 95.4522 15.7749 95.0092C14.4601 91.9366 13.6751 88.6635 13.4533 85.3288C13.3549 83.9834 13.3877 82.2853 14.446 81.1285C15.8898 79.5452 18.4658 79.8816 20.0162 81.1285C21.5667 82.3755 22.2969 84.0655 23.0434 85.9195L23.6587 87.4782C25.2994 91.621 26.9976 95.9116 29.8689 99.3161C30.517 100.087 31.2635 100.875 31.9772 101.638C34.75 104.566 37.6213 107.602 37.0881 111.531C36.9348 112.422 36.6873 113.294 36.3498 114.132C35.9613 115.049 35.7151 116.02 35.6196 117.011C35.4638 120.514 38.573 122.631 41.5837 124.674C42.9247 125.514 44.1779 126.487 45.3246 127.578C49.0409 131.442 50.9605 137.947 49.7874 142.697C48.7865 146.742 45.8004 149.621 41.3786 150.811C39.8103 151.208 38.1972 151.401 36.5795 151.385ZM17.0301 80.8824C16.6587 80.8703 16.2889 80.9371 15.9453 81.0786C15.6016 81.22 15.2919 81.4328 15.0366 81.7028C14.2163 82.6216 14.1752 84.1065 14.2163 85.2878C14.4327 88.5317 15.1955 91.7157 16.4723 94.7056C16.6609 95.1404 16.8578 95.5752 17.0547 96.01C18.113 98.3563 19.2041 100.785 18.7611 103.344C18.4165 105.321 17.2106 106.946 16.0457 108.521C15.7339 108.931 15.4304 109.349 15.1351 109.776C14.3147 110.916 12.674 113.82 13.8717 116.134C14.4723 117.067 15.2705 117.856 16.2097 118.447C16.4723 118.636 16.7266 118.833 16.9809 119.03C19.2548 120.912 20.9213 123.426 21.7708 126.253C22.6203 129.08 22.615 132.096 21.7554 134.92C21.616 135.347 21.4519 135.74 21.2878 136.2C20.9074 137.139 20.6509 138.123 20.5249 139.129C20.246 141.942 22.1656 144.395 23.3223 145.601C27.2519 149.703 35.1028 151.623 41.1817 149.99C44.1022 149.17 47.8267 147.275 49.008 142.476C50.2304 137.553 47.8021 131.294 44.7503 128.111C43.6415 127.065 42.4325 126.131 41.1407 125.322C38.0971 123.254 34.6516 120.916 34.8157 116.954C34.9267 115.876 35.2035 114.822 35.636 113.828C35.9594 113.037 36.1933 112.211 36.3334 111.367C36.8174 107.832 34.0856 104.944 31.4112 102.146C30.6892 101.375 29.9345 100.588 29.27 99.7919C26.3085 96.2807 24.5939 91.9328 22.9286 87.7243L22.3051 86.1738C21.6078 84.4264 20.8694 82.7693 19.5322 81.7192C18.8131 81.1724 17.9335 80.8782 17.0301 80.8824Z" fill="#231F20"/>
<path d="M175.254 154.806H232.811V101.203H175.254V154.806Z" fill="#DC0E51"/>
<path d="M232.811 155.208H175.254C175.146 155.208 175.041 155.165 174.964 155.088C174.887 155.011 174.844 154.906 174.844 154.798V101.195C174.844 101.086 174.887 100.982 174.964 100.905C175.041 100.828 175.146 100.785 175.254 100.785H232.811C232.92 100.785 233.024 100.828 233.101 100.905C233.178 100.982 233.221 101.086 233.221 101.195V154.798C233.221 154.906 233.178 155.011 233.101 155.088C233.024 155.165 232.92 155.208 232.811 155.208ZM175.664 154.387H232.401V101.605H175.664V154.387Z" fill="#231F20"/>
<path d="M101.282 154.797H158.839V75.96H101.282V154.797Z" fill="#DC0E51"/>
<path d="M158.839 155.208H101.274C101.165 155.208 101.06 155.165 100.984 155.088C100.907 155.011 100.863 154.907 100.863 154.798V75.9605C100.866 75.8523 100.909 75.7492 100.986 75.6728C101.062 75.5963 101.165 75.5524 101.274 75.5503H158.839C158.947 75.5524 159.05 75.5963 159.126 75.6728C159.203 75.7492 159.247 75.8523 159.249 75.9605V154.798C159.249 154.907 159.206 155.011 159.129 155.088C159.052 155.165 158.948 155.208 158.839 155.208ZM101.684 154.388H158.429V76.3707H101.684V154.388Z" fill="#231F20"/>
<path d="M27.301 154.797H84.858L84.858 35.0729H27.301L27.301 154.797Z" fill="#DC0E51"/>
<path d="M84.858 155.208H27.3011C27.1923 155.208 27.0879 155.165 27.011 155.088C26.9341 155.011 26.8909 154.906 26.8909 154.798V35.0733C26.8909 34.9645 26.9341 34.8602 27.011 34.7832C27.0879 34.7063 27.1923 34.6631 27.3011 34.6631H84.858C84.9668 34.6631 85.0712 34.7063 85.1481 34.7832C85.225 34.8602 85.2682 34.9645 85.2682 35.0733V154.798C85.2682 154.852 85.2576 154.905 85.237 154.955C85.2164 155.004 85.1862 155.05 85.1481 155.088C85.11 155.126 85.0648 155.156 85.015 155.177C84.9652 155.197 84.9119 155.208 84.858 155.208ZM27.7112 154.388H84.4478V35.4835H27.7112V154.388Z" fill="#231F20"/>
<path d="M189.438 66.3452V77.0264H181.579L189.438 81.6041V94.3361H228.677V66.3452H189.438Z" fill="white"/>
<path d="M228.677 94.7468H189.439C189.33 94.7447 189.227 94.7009 189.151 94.6244C189.074 94.5479 189.03 94.4448 189.028 94.3367V81.8425L181.374 77.3797C181.297 77.334 181.237 77.2644 181.204 77.1815C181.17 77.0985 181.164 77.0069 181.188 76.9204C181.211 76.834 181.262 76.7575 181.332 76.7027C181.403 76.6478 181.49 76.6176 181.579 76.6167H189.028V66.3457C189.03 66.2376 189.074 66.1345 189.151 66.058C189.227 65.9815 189.33 65.9376 189.439 65.9355H228.677C228.786 65.9355 228.89 65.9788 228.967 66.0557C229.044 66.1326 229.087 66.2369 229.087 66.3457V94.3367C229.087 94.4455 229.044 94.5498 228.967 94.6267C228.89 94.7036 228.786 94.7468 228.677 94.7468ZM189.849 93.9265H228.267V66.7559H189.849V77.0269C189.849 77.1357 189.806 77.24 189.729 77.317C189.652 77.3939 189.547 77.4371 189.439 77.4371H183.097L189.66 81.2518C189.722 81.2876 189.774 81.339 189.81 81.4009C189.846 81.4628 189.865 81.533 189.865 81.6046L189.849 93.9265Z" fill="#231F20"/>
<path d="M199.775 49.6514C199.882 49.3315 199.988 49.0115 200.103 48.6916C200.161 48.5275 200.226 48.3634 200.292 48.1994C200.329 48.0972 200.399 48.0106 200.491 47.9539C200.584 47.8972 200.693 47.8738 200.801 47.8876C201.063 47.8876 201.317 47.9779 201.572 48.0189C201.71 48.0434 201.85 48.0598 201.99 48.0681C202.094 48.0739 202.196 48.0418 202.277 47.9779C202.573 47.6907 202.86 47.3954 203.139 47.1001C203.187 47.0449 203.221 46.9783 203.237 46.9066C203.252 46.8349 203.25 46.7603 203.229 46.6899C203.163 46.3781 203.089 46.0664 203.024 45.7547C203.004 45.6324 203.004 45.5077 203.024 45.3855C203.026 45.3402 203.038 45.2959 203.058 45.2551C203.077 45.2143 203.105 45.1777 203.139 45.1476C203.617 44.8353 204.14 44.5974 204.689 44.4421C204.77 44.417 204.857 44.4187 204.936 44.4467C205.016 44.4748 205.085 44.5278 205.132 44.5979C205.329 44.8687 205.534 45.1394 205.723 45.4183C205.786 45.5229 205.877 45.6077 205.986 45.6628C206.094 45.718 206.217 45.7413 206.338 45.73C206.674 45.73 207.019 45.73 207.364 45.6808C207.427 45.6775 207.489 45.6586 207.543 45.6256C207.598 45.5927 207.643 45.5469 207.675 45.4921C207.798 45.3117 207.913 45.1312 208.028 44.9507C208.143 44.7702 208.233 44.6308 208.34 44.4831C208.389 44.4057 208.462 44.3472 208.549 44.3174C208.635 44.2875 208.729 44.2881 208.816 44.319C209.291 44.4831 209.767 44.6472 210.235 44.8276C210.323 44.8637 210.397 44.9289 210.443 45.0125C210.489 45.0961 210.506 45.1929 210.489 45.287C210.489 45.5496 210.407 45.8121 210.358 46.1074C210.358 46.2305 210.358 46.3535 210.317 46.4766C210.305 46.5563 210.313 46.6376 210.341 46.7134C210.368 46.7892 210.413 46.8572 210.473 46.9114C210.719 47.1493 210.973 47.379 211.219 47.6251C211.287 47.6997 211.375 47.7539 211.472 47.7814C211.569 47.809 211.672 47.8088 211.769 47.781L212.786 47.5513C212.897 47.5141 213.018 47.5216 213.124 47.5721C213.23 47.6226 213.311 47.7122 213.352 47.822C213.549 48.224 213.738 48.6424 213.91 49.0443C213.945 49.0999 213.969 49.162 213.979 49.2269C213.989 49.2918 213.986 49.3581 213.97 49.4218C213.954 49.4855 213.925 49.5453 213.885 49.5974C213.845 49.6496 213.795 49.6931 213.738 49.7252C213.566 49.8565 213.377 49.9795 213.196 50.1108L212.819 50.4143C212.77 50.4571 212.73 50.51 212.703 50.5695C212.676 50.629 212.663 50.6936 212.663 50.7589C212.663 51.1199 212.663 51.4726 212.663 51.8254C212.665 51.9229 212.693 52.0181 212.743 52.1016C212.794 52.1851 212.865 52.2539 212.95 52.3012L213.533 52.6457C213.648 52.7196 213.771 52.7934 213.877 52.8754C213.961 52.9267 214.023 53.0066 214.051 53.1003C214.08 53.1939 214.074 53.2949 214.033 53.3841C213.877 53.8189 213.721 54.2044 213.557 54.6638C213.53 54.7312 213.494 54.7946 213.451 54.8525C213.413 54.9212 213.355 54.9759 213.284 55.0084C213.213 55.0409 213.133 55.0496 213.057 55.033L212.13 54.8853H212.064C211.936 54.852 211.8 54.8576 211.674 54.9014C211.549 54.9452 211.439 55.0253 211.359 55.1315C211.186 55.3365 210.99 55.5252 210.801 55.7221C210.714 55.8067 210.653 55.9133 210.622 56.0304C210.592 56.1475 210.594 56.2707 210.629 56.3866C210.702 56.6902 210.776 56.9855 210.842 57.289C210.866 57.3474 210.878 57.4103 210.876 57.4736C210.874 57.5368 210.858 57.5989 210.83 57.6556C210.802 57.7123 210.763 57.7624 210.714 57.8025C210.665 57.8426 210.608 57.8717 210.547 57.8879C210.136 58.0848 209.726 58.2735 209.283 58.4539C209.188 58.5061 209.076 58.5199 208.971 58.4924C208.866 58.465 208.775 58.3984 208.717 58.3063C208.553 58.1012 208.405 57.8797 208.25 57.6664C207.921 57.1988 207.839 57.1578 207.265 57.1906H206.601C206.494 57.1907 206.39 57.2188 206.298 57.2721C206.205 57.3254 206.129 57.4019 206.076 57.4941C205.944 57.7156 205.813 57.9453 205.674 58.1586C205.598 58.2721 205.513 58.3791 205.419 58.4786C205.378 58.5297 205.322 58.5662 205.258 58.5824C205.194 58.5987 205.127 58.5939 205.067 58.5688L203.721 58.0684C203.661 58.0405 203.603 58.0076 203.549 57.9699C203.478 57.9325 203.421 57.873 203.387 57.8005C203.353 57.728 203.344 57.6464 203.36 57.568L203.508 56.6573C203.516 56.5646 203.516 56.4712 203.508 56.3784C203.515 56.3026 203.505 56.2262 203.478 56.155C203.451 56.0838 203.408 56.0199 203.352 55.9682L202.63 55.2873C202.561 55.2206 202.474 55.1738 202.38 55.1522C202.287 55.1305 202.189 55.1347 202.097 55.1643L201.194 55.3694C200.801 55.4432 200.678 55.3694 200.505 55.0248C200.333 54.6803 200.144 54.2044 199.98 53.8025C199.953 53.7559 199.935 53.7042 199.928 53.6506C199.921 53.597 199.925 53.5425 199.94 53.4904C199.954 53.4383 199.979 53.3897 200.013 53.3475C200.047 53.3052 200.089 53.2702 200.136 53.2446C200.382 53.0641 200.62 52.8836 200.874 52.7196C200.998 52.6516 201.099 52.5481 201.163 52.4223C201.228 52.2965 201.253 52.1543 201.235 52.0141C201.235 51.6941 201.235 51.3742 201.186 51.0542C201.185 50.987 201.167 50.9211 201.134 50.8625C201.101 50.8038 201.054 50.7542 200.998 50.7179L200.177 50.2093C199.988 50.1227 199.838 49.9673 199.759 49.7745L199.775 49.6514ZM209.94 51.4316C209.941 51.0313 209.862 50.6348 209.709 50.2649C209.556 49.8951 209.331 49.5593 209.047 49.277C208.763 48.9947 208.426 48.7715 208.056 48.6203C207.685 48.4692 207.288 48.393 206.888 48.3962C206.092 48.4195 205.337 48.7491 204.779 49.3162C204.221 49.8834 203.904 50.6442 203.893 51.4398C203.9 52.2371 204.219 53 204.782 53.5646C205.345 54.1291 206.107 54.4502 206.904 54.4588C207.304 54.4643 207.7 54.3898 208.07 54.2397C208.441 54.0896 208.777 53.867 209.06 53.5849C209.343 53.3028 209.566 52.967 209.717 52.5972C209.868 52.2273 209.944 51.831 209.94 51.4316Z" fill="white"/>
<path d="M205.173 58.9865C205.086 58.9854 205 58.9688 204.919 58.9373L203.573 58.4369C203.492 58.4022 203.415 58.3582 203.344 58.3056C203.205 58.223 203.093 58.101 203.023 57.9551C202.953 57.8091 202.927 57.6456 202.95 57.4853L203.098 56.5665C203.106 56.4901 203.106 56.4131 203.098 56.3368C203.098 56.2711 203.098 56.2547 203.098 56.2465L202.368 55.5656C202.345 55.5501 202.317 55.5418 202.29 55.5418C202.262 55.5418 202.235 55.5501 202.212 55.5656L201.555 55.7215L201.309 55.7789C201.195 55.8218 201.073 55.8414 200.95 55.8364C200.828 55.8315 200.708 55.8022 200.597 55.7502C200.486 55.6983 200.387 55.6247 200.305 55.5338C200.223 55.443 200.16 55.3366 200.12 55.2211C199.923 54.8109 199.751 54.4007 199.578 53.9741C199.493 53.7942 199.475 53.5892 199.53 53.3975C199.584 53.2058 199.706 53.0404 199.874 52.9322C200.12 52.7463 200.374 52.5658 200.637 52.3908C200.697 52.3603 200.747 52.3112 200.778 52.2508C200.809 52.1903 200.82 52.1215 200.809 52.0544C200.809 51.8493 200.809 51.6443 200.809 51.431V51.0946L199.988 50.5696C199.72 50.4322 199.51 50.2019 199.398 49.9215C199.394 49.8778 199.394 49.8339 199.398 49.7902V49.6754C199.389 49.632 199.389 49.5874 199.398 49.5441L199.48 49.2816L199.726 48.5761C199.783 48.4038 199.857 48.2315 199.923 48.0674C199.993 47.8828 200.124 47.7272 200.293 47.626C200.463 47.5247 200.662 47.4837 200.858 47.5096C201.03 47.5096 201.211 47.5588 201.391 47.5916L201.76 47.6573C201.837 47.6617 201.914 47.6617 201.99 47.6573C202.291 47.3984 202.578 47.1246 202.852 46.8369L202.745 46.3857C202.704 46.2052 202.663 46.0329 202.63 45.8525C202.592 45.6914 202.578 45.5254 202.589 45.3602C202.597 45.2524 202.629 45.1478 202.683 45.054C202.737 44.9603 202.812 44.8799 202.901 44.8188C203.406 44.4841 203.959 44.2296 204.542 44.0641C204.702 44.0132 204.874 44.0161 205.033 44.0724C205.191 44.1287 205.327 44.2352 205.419 44.3758L205.624 44.6547L206.026 45.1962C206.108 45.3192 206.158 45.3356 206.264 45.3274H206.953H207.306C207.364 45.2126 207.437 45.1059 207.503 44.9911L207.708 44.6793L207.971 44.2938C208.073 44.1489 208.219 44.0411 208.388 43.9864C208.556 43.9316 208.738 43.933 208.906 43.9902C209.39 44.1543 209.866 44.3184 210.342 44.5071C210.514 44.5737 210.659 44.6967 210.753 44.856C210.846 45.0153 210.884 45.2017 210.858 45.3849C210.858 45.5735 210.801 45.754 210.768 45.9427L210.727 46.197C210.727 46.3037 210.727 46.4185 210.678 46.5334C210.665 46.5677 210.665 46.6057 210.678 46.64L210.85 46.7959C211.047 46.9764 211.244 47.165 211.433 47.3619C211.482 47.4112 211.515 47.4276 211.613 47.3619L212.622 47.1322C212.824 47.0658 213.043 47.08 213.234 47.1718C213.425 47.2635 213.573 47.4258 213.648 47.6245C213.844 48.0346 214.033 48.4448 214.214 48.8632C214.322 49.0585 214.351 49.2877 214.297 49.5041C214.242 49.7205 214.106 49.9079 213.918 50.0281L213.582 50.2742L213.369 50.4219L213.016 50.7008V50.988C213.016 51.2505 213.016 51.5212 213.016 51.8083C213.016 51.8369 213.023 51.8649 213.037 51.8895C213.052 51.9141 213.073 51.9343 213.098 51.9478L213.344 52.0873L213.689 52.2923C213.822 52.3723 213.951 52.4599 214.074 52.5549C214.225 52.6615 214.335 52.8159 214.387 52.9931C214.44 53.1702 214.43 53.3598 214.361 53.5311C214.205 53.9577 214.05 54.3515 213.886 54.8109C213.848 54.9002 213.801 54.9854 213.746 55.0652C213.661 55.2014 213.538 55.3098 213.392 55.3769C213.247 55.444 213.084 55.4668 212.926 55.4426L211.999 55.2867H211.908C211.852 55.269 211.792 55.2708 211.737 55.2916C211.682 55.3124 211.635 55.3511 211.605 55.4015C211.474 55.5492 211.334 55.6969 211.195 55.8363L211.031 56.0004C210.993 56.037 210.967 56.0831 210.954 56.1337C210.941 56.1843 210.942 56.2375 210.957 56.2875C211.039 56.5911 211.113 56.8946 211.178 57.2063C211.214 57.3092 211.229 57.4181 211.223 57.5269C211.216 57.6356 211.188 57.742 211.14 57.8398C211.092 57.9375 211.025 58.0247 210.943 58.0962C210.861 58.1678 210.765 58.2222 210.661 58.2564C210.235 58.4615 209.841 58.6502 209.382 58.8307C209.204 58.921 208.999 58.9434 208.806 58.8936C208.612 58.8437 208.444 58.7251 208.332 58.56C208.192 58.3877 208.061 58.199 207.93 58.0185L207.848 57.9037C207.618 57.5755 207.618 57.5755 207.224 57.6001H206.56C206.519 57.5987 206.479 57.6087 206.445 57.629C206.41 57.6494 206.381 57.6792 206.363 57.715L206.231 57.9365L205.953 58.3959C205.86 58.5287 205.759 58.6548 205.649 58.7732C205.52 58.898 205.352 58.9735 205.173 58.9865ZM202.286 54.7124C202.527 54.7145 202.759 54.8084 202.934 54.9749L203.656 55.6476C203.757 55.74 203.836 55.8548 203.886 55.9829C203.936 56.1111 203.955 56.2491 203.943 56.386C203.943 56.4926 203.943 56.5993 203.943 56.7059L203.795 57.6165L203.902 57.6657L205.181 58.1498C205.249 58.0789 205.309 58.002 205.362 57.9201L205.624 57.4935L205.764 57.2638C205.847 57.1177 205.966 56.9952 206.109 56.9077C206.253 56.8201 206.416 56.7705 206.584 56.7633H207.257C207.52 56.7051 207.796 56.7373 208.038 56.8549C208.281 56.9726 208.477 57.1686 208.594 57.4114L208.676 57.5263C208.799 57.6986 208.922 57.8708 209.054 58.0349H209.127C209.554 57.8626 209.948 57.674 210.383 57.4771L210.465 57.4278C210.46 57.3952 210.46 57.3621 210.465 57.3294C210.399 57.0341 210.333 56.7387 210.259 56.4516C210.205 56.2672 210.201 56.0715 210.249 55.8852C210.297 55.6989 210.394 55.5289 210.53 55.3933L210.702 55.2129C210.826 55.0898 210.957 54.9667 211.072 54.8273C211.199 54.6625 211.372 54.5387 211.568 54.4716C211.765 54.4045 211.978 54.3969 212.179 54.4499L213.147 54.6058C213.147 54.5566 213.196 54.5155 213.196 54.4991C213.36 54.0725 213.516 53.6788 213.672 53.2194C213.562 53.1281 213.441 53.0509 213.311 52.9897L212.737 52.6533C212.593 52.5693 212.473 52.4498 212.388 52.3062C212.303 52.1625 212.257 51.9996 212.253 51.8329C212.253 51.554 212.253 51.2833 212.253 51.0126V50.7665C212.252 50.639 212.278 50.5128 212.331 50.3967C212.383 50.2805 212.46 50.1771 212.557 50.0938C212.688 49.9789 212.819 49.8723 212.95 49.7738L213.188 49.6097C213.287 49.5359 213.385 49.4703 213.484 49.3882C213.517 49.3647 213.547 49.3372 213.574 49.3062C213.579 49.2709 213.579 49.2349 213.574 49.1996C213.401 48.7894 213.213 48.3792 213.024 47.9936L212.917 47.9444L211.9 48.1741C211.734 48.2156 211.56 48.2124 211.396 48.1649C211.232 48.1173 211.083 48.0271 210.965 47.9034C210.785 47.7147 210.588 47.5342 210.399 47.3619L210.235 47.1979C210.131 47.1017 210.051 46.9827 210.001 46.8503C209.951 46.7179 209.933 46.5757 209.948 46.4349C209.956 46.3 209.972 46.1657 209.997 46.0329L210.046 45.7622C210.046 45.5981 210.104 45.4341 210.12 45.27C209.661 45.0567 209.193 44.8926 208.725 44.7286C208.635 44.8598 208.553 44.9747 208.479 45.0977L208.282 45.4013L208.053 45.7458C207.986 45.8548 207.894 45.9456 207.783 46.0101C207.673 46.0745 207.549 46.1106 207.421 46.115H207.06H206.404C206.212 46.1352 206.018 46.1004 205.845 46.0147C205.673 45.929 205.528 45.7959 205.428 45.631C205.304 45.4505 205.181 45.2782 205.05 45.1141L204.837 44.827C204.352 44.9583 203.89 45.163 203.467 45.4341C203.459 45.5077 203.459 45.5819 203.467 45.6556C203.467 45.8278 203.541 46.0001 203.582 46.1724L203.672 46.5908C203.708 46.7248 203.71 46.8658 203.677 47.0007C203.644 47.1356 203.577 47.2599 203.483 47.3619C203.196 47.6655 202.901 47.969 202.605 48.2561C202.45 48.3938 202.247 48.4671 202.039 48.4612C201.908 48.4729 201.777 48.4729 201.646 48.4612L201.276 48.3956L200.801 48.3218C200.801 48.3218 200.743 48.3218 200.71 48.3874C200.678 48.453 200.587 48.6909 200.53 48.855L200.292 49.5441L200.185 49.7082C200.251 49.7733 200.325 49.8286 200.407 49.8723L201.227 50.3809C201.339 50.4527 201.432 50.5507 201.498 50.6665C201.564 50.7823 201.6 50.9123 201.605 51.0454V51.3899C201.605 51.595 201.605 51.7919 201.605 51.997C201.626 52.21 201.585 52.4246 201.488 52.6151C201.39 52.8057 201.24 52.9641 201.055 53.0717C200.809 53.2358 200.579 53.3998 200.349 53.5803C200.292 53.5803 200.284 53.6377 200.284 53.6377C200.481 54.0643 200.653 54.4581 200.833 54.8601C200.856 54.9092 200.884 54.9559 200.916 54.9996H201.08L201.35 54.9339L201.99 54.7863C202.084 54.7467 202.184 54.7218 202.286 54.7124ZM206.912 54.8683C206.233 54.8688 205.57 54.6672 205.006 54.2893C204.442 53.9114 204.003 53.3742 203.745 52.7461C203.487 52.118 203.422 51.4274 203.558 50.7623C203.694 50.0971 204.025 49.4874 204.509 49.0109C204.819 48.6906 205.19 48.435 205.6 48.259C206.009 48.0829 206.45 47.99 206.896 47.9854C207.35 47.9811 207.8 48.0668 208.22 48.2377C208.641 48.4086 209.023 48.6613 209.345 48.981C209.667 49.3007 209.922 49.6812 210.096 50.1003C210.27 50.5195 210.359 50.969 210.358 51.4227C210.37 51.8592 210.295 52.2937 210.137 52.7008C209.98 53.1079 209.742 53.4794 209.439 53.7936C209.114 54.1364 208.722 54.4087 208.287 54.5935C207.853 54.7784 207.385 54.8719 206.912 54.8683ZM206.871 48.8058C206.191 48.8362 205.55 49.1305 205.083 49.6261C204.83 49.8633 204.627 50.1488 204.486 50.4659C204.345 50.7829 204.269 51.1251 204.263 51.472C204.265 52.1618 204.539 52.8228 205.026 53.3114C205.513 53.7999 206.173 54.0764 206.863 54.0807C207.223 54.0866 207.58 54.0165 207.91 53.8752C208.241 53.7338 208.538 53.5243 208.783 53.2604C209.01 53.0271 209.189 52.7511 209.308 52.4484C209.428 52.1456 209.486 51.8221 209.48 51.4966C209.481 51.1502 209.414 50.8069 209.281 50.4869C209.148 50.1668 208.954 49.8762 208.708 49.632C208.462 49.3878 208.17 49.1948 207.849 49.0643C207.529 48.9337 207.185 48.8682 206.839 48.8714L206.871 48.8058Z" fill="#D1D3D4"/>
<path d="M96.2693 19.675L89.1485 16.4674V0.757324H52.0597V24.7367H89.1485V19.675H96.2693Z" fill="white"/>
<path d="M89.1487 25.1468H52.0598C51.9511 25.1468 51.8467 25.1036 51.7698 25.0266C51.6929 24.9497 51.6497 24.8454 51.6497 24.7366V0.749051C51.6518 0.640921 51.6956 0.537806 51.7721 0.461332C51.8486 0.384858 51.9517 0.340967 52.0598 0.338867H89.1487C89.2574 0.338867 89.3618 0.382083 89.4387 0.459007C89.5156 0.535931 89.5588 0.640263 89.5588 0.749051V16.1966L96.4417 19.2976C96.5505 19.3204 96.6458 19.3855 96.7065 19.4786C96.7673 19.5717 96.7886 19.6851 96.7658 19.7939C96.7429 19.9027 96.6778 19.9979 96.5847 20.0587C96.4916 20.1195 96.3782 20.1408 96.2694 20.1179H89.5588V24.7694C89.5506 24.8724 89.5037 24.9685 89.4277 25.0385C89.3516 25.1084 89.252 25.1471 89.1487 25.1468ZM52.47 24.3264H88.7385V19.6749C88.7385 19.5661 88.7817 19.4618 88.8586 19.3849C88.9355 19.308 89.0399 19.2647 89.1487 19.2647H94.358L88.9846 16.8036C88.9125 16.7722 88.8509 16.7207 88.8073 16.6552C88.7637 16.5898 88.7398 16.5131 88.7385 16.4345V1.15923H52.47V24.3264Z" fill="#231F20"/>
<path d="M71.2153 7.22999L76.7446 12.7921C76.7729 12.8222 76.8073 12.8458 76.8455 12.8614C76.8838 12.8769 76.9249 12.8841 76.9661 12.8823H85.4487C85.4141 14.2031 85.061 15.496 84.4194 16.651C83.7778 17.806 82.8668 18.7889 81.7638 19.5162C80.6607 20.2435 79.3984 20.6936 78.084 20.8283C76.7697 20.963 75.4423 20.7782 74.2147 20.2897C72.9871 19.8012 71.8956 19.0234 71.0332 18.0225C70.1707 17.0216 69.5627 15.8272 69.261 14.5409C68.9593 13.2546 68.9727 11.9144 69.3001 10.6344C69.6275 9.35441 70.2592 8.17241 71.1415 7.18896L71.2153 7.22999Z" fill="#DC0E51"/>
<path d="M77.5649 4.3833V12.2752H77.647H85.2846C85.4569 12.2752 85.4569 12.2752 85.4487 12.103C85.3295 10.1359 84.5063 8.27737 83.1294 6.8674C81.7526 5.45742 79.9142 4.5902 77.9505 4.42432L77.5649 4.3833Z" fill="#D1D3D4"/>
<path d="M76.9825 12.1687V4.3916C76.0642 4.43902 75.159 4.63002 74.2999 4.95766C73.2712 5.36058 72.3339 5.96594 71.5435 6.73785L76.9825 12.1687Z" fill="#D1D3D4"/>
<path d="M65.5712 8.55914H56.0795C55.9707 8.55914 55.8664 8.51592 55.7895 8.439C55.7125 8.36207 55.6693 8.25774 55.6693 8.14895C55.6693 8.04017 55.7125 7.93584 55.7895 7.85892C55.8664 7.78199 55.9707 7.73877 56.0795 7.73877H65.5712C65.6799 7.73877 65.7843 7.78199 65.8612 7.85892C65.9381 7.93584 65.9813 8.04017 65.9813 8.14895C65.9813 8.25774 65.9381 8.36207 65.8612 8.439C65.7843 8.51592 65.6799 8.55914 65.5712 8.55914Z" fill="#D1D3D4"/>
<path d="M65.5712 12.5543H56.0795C55.9707 12.5543 55.8664 12.511 55.7895 12.4341C55.7125 12.3572 55.6693 12.2529 55.6693 12.1441C55.6693 12.0353 55.7125 11.931 55.7895 11.854C55.8664 11.7771 55.9707 11.7339 56.0795 11.7339H65.5712C65.6799 11.7339 65.7843 11.7771 65.8612 11.854C65.9381 11.931 65.9813 12.0353 65.9813 12.1441C65.9813 12.2529 65.9381 12.3572 65.8612 12.4341C65.7843 12.511 65.6799 12.5543 65.5712 12.5543Z" fill="#D1D3D4"/>
<path d="M62.3636 16.5494H56.1206C56.0118 16.5494 55.9075 16.5062 55.8306 16.4292C55.7537 16.3523 55.7104 16.248 55.7104 16.1392C55.7104 16.0304 55.7537 15.9261 55.8306 15.8491C55.9075 15.7722 56.0118 15.729 56.1206 15.729H62.3636C62.4724 15.729 62.5767 15.7722 62.6537 15.8491C62.7306 15.9261 62.7738 16.0304 62.7738 16.1392C62.7738 16.248 62.7306 16.3523 62.6537 16.4292C62.5767 16.5062 62.4724 16.5494 62.3636 16.5494Z" fill="#D1D3D4"/>
<path d="M200.702 78.0933H197.658V90.5054H200.702V78.0933Z" fill="#DC0E51"/>
<path d="M206.313 83.2207H203.27V90.5056H206.313V83.2207Z" fill="#DC0E51"/>
<path d="M211.925 79.8813H208.881V90.5051H211.925V79.8813Z" fill="#DC0E51"/>
<path d="M217.544 85.9438H214.501V90.5051H217.544V85.9438Z" fill="#DC0E51"/>
<path d="M223.156 79.8813H220.112V90.5051H223.156V79.8813Z" fill="#DC0E51"/>
<path d="M223.082 70.5707H217.93C217.827 70.5686 217.729 70.5262 217.657 70.4526C217.585 70.3789 217.544 70.28 217.544 70.177C217.543 70.1257 217.552 70.0746 217.571 70.0269C217.59 69.9792 217.618 69.9357 217.654 69.899C217.69 69.8623 217.733 69.8332 217.78 69.8133C217.828 69.7934 217.879 69.7832 217.93 69.7832H223.082C223.186 69.7832 223.286 69.8247 223.36 69.8985C223.434 69.9724 223.476 70.0725 223.476 70.177C223.474 70.2808 223.431 70.3797 223.358 70.4531C223.285 70.5265 223.186 70.5687 223.082 70.5707Z" fill="#D1D3D4"/>
<path d="M221.293 72.4824H217.93C217.827 72.4802 217.729 72.4378 217.657 72.3642C217.585 72.2906 217.544 72.1916 217.544 72.0886C217.543 72.0373 217.552 71.9863 217.571 71.9385C217.59 71.8908 217.618 71.8473 217.654 71.8106C217.69 71.774 217.733 71.7448 217.78 71.7249C217.828 71.7051 217.879 71.6948 217.93 71.6948H221.293C221.398 71.6948 221.498 71.7363 221.572 71.8102C221.646 71.884 221.687 71.9842 221.687 72.0886C221.685 72.1924 221.643 72.2913 221.57 72.3647C221.496 72.4381 221.397 72.4803 221.293 72.4824Z" fill="#D1D3D4"/>
<path d="M216.396 80.3243C214.665 80.3243 213.213 78.4621 212.04 76.969C211.424 76.1487 210.661 75.2052 210.3 75.2052C209.606 75.3451 208.948 75.6242 208.364 76.0256C207.29 76.6491 206.084 77.3546 204.878 77.289C202.737 77.1741 198.963 72.7852 198.545 72.2847C198.511 72.2462 198.485 72.2013 198.468 72.1526C198.452 72.1039 198.446 72.0525 198.449 72.0013C198.453 71.9501 198.467 71.9002 198.491 71.8545C198.514 71.8087 198.546 71.7682 198.586 71.7351C198.667 71.6691 198.77 71.6374 198.874 71.6466C198.979 71.6558 199.075 71.7052 199.143 71.7843C200.226 73.0641 203.393 76.4194 204.886 76.5096C205.984 76.392 207.033 75.9905 207.93 75.3447C208.618 74.8595 209.405 74.5319 210.235 74.3849C210.948 74.3849 211.703 75.2873 212.622 76.4522C213.705 77.8386 215.083 79.5696 216.429 79.504C217.61 79.4465 218.168 78.4211 218.824 77.2315C219.48 76.042 220.153 74.7704 221.556 74.5407C221.658 74.5237 221.762 74.5465 221.848 74.6046C221.934 74.6626 221.993 74.7514 222.015 74.8525C222.034 74.9547 222.013 75.0604 221.954 75.1465C221.896 75.2325 221.806 75.292 221.704 75.3119C220.662 75.5088 220.104 76.526 219.513 77.6089C218.84 78.8313 218.086 80.2095 216.47 80.2833L216.396 80.3243Z" fill="#D1D3D4"/>
<path d="M225.756 90.8995H195.197C195.089 90.8995 194.984 90.8562 194.907 90.7793C194.83 90.7024 194.787 90.5981 194.787 90.4893C194.787 90.3805 194.83 90.2762 194.907 90.1992C194.984 90.1223 195.089 90.0791 195.197 90.0791H225.756C225.865 90.0791 225.969 90.1223 226.046 90.1992C226.123 90.2762 226.166 90.3805 226.166 90.4893C226.166 90.5981 226.123 90.7024 226.046 90.7793C225.969 90.8562 225.865 90.8995 225.756 90.8995Z" fill="#D1D3D4"/>
<path d="M198.914 72.9498C198.735 72.9498 198.561 72.8969 198.412 72.7978C198.264 72.6986 198.148 72.5577 198.08 72.3928C198.012 72.2279 197.994 72.0464 198.029 71.8714C198.064 71.6963 198.149 71.5355 198.276 71.4093C198.402 71.2831 198.563 71.1972 198.738 71.1624C198.913 71.1275 199.094 71.1454 199.259 71.2137C199.424 71.282 199.565 71.3977 199.664 71.5461C199.763 71.6945 199.816 71.8689 199.816 72.0474C199.817 72.1662 199.795 72.2841 199.75 72.3941C199.705 72.504 199.638 72.6039 199.554 72.688C199.47 72.772 199.37 72.8384 199.26 72.8834C199.15 72.9283 199.033 72.9509 198.914 72.9498ZM198.914 71.9326C198.883 71.9326 198.854 71.9447 198.833 71.9662C198.811 71.9878 198.799 72.017 198.799 72.0474C198.799 72.1787 199.037 72.1787 199.037 72.0474C199.035 72.0162 199.021 71.987 198.998 71.9657C198.975 71.9443 198.945 71.9325 198.914 71.9326Z" fill="#D1D3D4"/>
<path d="M221.671 75.8615C221.431 75.8615 221.202 75.7664 221.033 75.5971C220.863 75.4279 220.768 75.1984 220.768 74.959C220.768 74.7197 220.863 74.4902 221.033 74.321C221.202 74.1517 221.431 74.0566 221.671 74.0566C221.91 74.0566 222.14 74.1517 222.309 74.321C222.478 74.4902 222.573 74.7197 222.573 74.959C222.573 75.1984 222.478 75.4279 222.309 75.5971C222.14 75.7664 221.91 75.8615 221.671 75.8615ZM221.671 74.8442C221.64 74.8442 221.611 74.8563 221.59 74.8778C221.568 74.8994 221.556 74.9286 221.556 74.959C221.556 75.0903 221.786 75.0903 221.786 74.959C221.786 74.9286 221.773 74.8994 221.752 74.8778C221.73 74.8563 221.701 74.8442 221.671 74.8442Z" fill="#D1D3D4"/>
<path d="M211.129 38.5439V36.214C210.309 35.9843 209.488 35.812 208.668 35.5413C207.123 35.0489 205.79 34.0485 204.886 32.7028C204.141 31.5268 203.762 30.1566 203.795 28.7651H208.331C208.364 29.5524 208.654 30.3074 209.156 30.9147C209.658 31.5221 210.345 31.9484 211.113 32.1286V25.9594C210.202 25.6969 209.3 25.4508 208.397 25.1391C207.409 24.8583 206.503 24.3433 205.756 23.6378C204.984 22.8666 204.471 21.8747 204.287 20.7993C204.021 19.4797 204.12 18.1124 204.574 16.8451C204.905 15.9321 205.434 15.1039 206.123 14.4201C206.813 13.7363 207.645 13.2141 208.561 12.891C209.315 12.6508 210.082 12.4536 210.858 12.3003L211.129 12.2429V9.1665H215.378V9.46184C215.378 10.3478 215.378 11.2256 215.378 12.1034C215.378 12.3249 215.452 12.3905 215.657 12.4398C217.111 12.7158 218.473 13.3502 219.62 14.2856C220.824 15.2833 221.624 16.6864 221.868 18.2316C221.941 18.6499 221.974 19.0519 222.032 19.5277H217.413C217.401 18.8976 217.205 18.2846 216.85 17.7642C216.494 17.2439 215.994 16.8389 215.411 16.599V22.3416L215.912 22.4565C217.158 22.7011 218.372 23.0893 219.529 23.6132C220.4 23.9919 221.151 24.599 221.705 25.3703C222.258 26.1415 222.592 27.0481 222.672 27.9939C222.934 29.7541 222.505 31.5477 221.474 32.9982C220.625 34.1836 219.425 35.073 218.045 35.5413C217.224 35.8367 216.305 36.0253 215.387 36.2796V38.5357L211.129 38.5439ZM215.395 26.8454V32.2024C216.083 32.1027 216.732 31.8193 217.273 31.3821C218.258 30.5617 218.611 28.5518 217.167 27.674C216.592 27.3654 216 27.0888 215.395 26.8454ZM211.113 21.3654V16.1971C210.55 16.4381 210.002 16.712 209.472 17.0174C209.169 17.2317 208.925 17.5181 208.761 17.8505C208.597 18.1829 208.518 18.551 208.532 18.9215C208.546 19.2919 208.652 19.6531 208.84 19.9724C209.029 20.2917 209.294 20.5589 209.611 20.7501C210.095 20.9962 210.596 21.1521 211.113 21.3654Z" fill="#DC0E51"/>
<path d="M215.378 38.9536H211.129C211.021 38.9515 210.918 38.9076 210.841 38.8311C210.765 38.7547 210.721 38.6515 210.719 38.5434V36.5335L210.235 36.4104C209.652 36.2628 209.094 36.1151 208.537 35.9264C206.906 35.4014 205.499 34.344 204.541 32.9239C203.75 31.6837 203.347 30.2353 203.385 28.7646C203.382 28.7101 203.391 28.6558 203.411 28.6049C203.431 28.5541 203.461 28.508 203.5 28.4694C203.538 28.4309 203.584 28.4007 203.635 28.3809C203.686 28.3611 203.74 28.3521 203.795 28.3544H208.332C208.432 28.3516 208.529 28.3862 208.605 28.4515C208.681 28.5167 208.73 28.6079 208.742 28.7072C208.759 29.3204 208.953 29.9156 209.301 30.4208C209.649 30.9259 210.136 31.3195 210.702 31.5539V26.2707L210.186 26.123C209.546 25.9344 208.906 25.7539 208.274 25.557C207.221 25.2425 206.259 24.6798 205.468 23.9162C204.629 23.0838 204.075 22.0069 203.885 20.8399C203.603 19.4464 203.708 18.0022 204.189 16.6642C204.542 15.6991 205.104 14.8238 205.834 14.1006C206.564 13.3774 207.445 12.8242 208.414 12.4803C208.949 12.2906 209.497 12.1398 210.054 12.0291L210.727 11.8815V9.16604C210.727 9.05726 210.77 8.95292 210.847 8.876C210.924 8.79907 211.028 8.75586 211.137 8.75586H215.387C215.495 8.75586 215.6 8.79907 215.677 8.876C215.754 8.95292 215.797 9.05726 215.797 9.16604V10.1997C215.797 10.815 215.797 11.4303 215.797 12.0455C217.303 12.3372 218.713 12.9998 219.899 13.9734C221.178 15.0301 222.027 16.5181 222.286 18.1573C222.343 18.4526 222.376 18.7561 222.409 19.0597L222.458 19.4781C222.464 19.5357 222.458 19.5938 222.44 19.6489C222.422 19.7039 222.393 19.7546 222.354 19.7978C222.315 19.841 222.268 19.8757 222.216 19.8997C222.163 19.9238 222.106 19.9366 222.048 19.9375H217.413C217.309 19.9357 217.209 19.8953 217.133 19.824C217.058 19.7527 217.011 19.6557 217.003 19.5519C216.999 19.1103 216.889 18.6762 216.684 18.2853C216.478 17.8944 216.183 17.5581 215.821 17.3041V22.0212H215.994C217.273 22.268 218.518 22.6674 219.702 23.2107C220.636 23.6164 221.443 24.2678 222.037 25.0955C222.631 25.9232 222.989 26.8963 223.074 27.9114C223.356 29.7736 222.9 31.6724 221.802 33.2028C220.908 34.4599 219.638 35.4018 218.176 35.8936C217.577 36.0987 216.978 36.2546 216.338 36.4187L215.772 36.5827V38.527C215.774 38.5809 215.766 38.6347 215.747 38.6853C215.729 38.7359 215.7 38.7823 215.664 38.8219C215.627 38.8616 215.583 38.8936 215.534 38.9162C215.485 38.9388 215.432 38.9515 215.378 38.9536ZM211.539 38.1332H214.952V36.2874C214.952 36.1976 214.982 36.1104 215.037 36.0393C215.092 35.9681 215.169 35.917 215.255 35.8936L216.076 35.6639C216.699 35.508 217.282 35.3522 217.856 35.1553C219.154 34.7155 220.281 33.8808 221.08 32.768C222.06 31.4044 222.464 29.7099 222.204 28.0509C222.137 27.1733 221.831 26.3307 221.319 25.6148C220.807 24.8988 220.109 24.3369 219.3 23.9901C218.169 23.4787 216.982 23.1015 215.764 22.8662L215.403 22.7841L215.264 22.7431C215.173 22.7243 215.092 22.6748 215.034 22.6031C214.975 22.5314 214.944 22.4418 214.944 22.3493V16.6068C214.945 16.5373 214.963 16.4692 214.996 16.4079C215.029 16.3466 215.075 16.2939 215.132 16.254C215.193 16.2217 215.261 16.2048 215.329 16.2048C215.398 16.2048 215.466 16.2217 215.526 16.254C216.117 16.4976 216.632 16.8943 217.019 17.4034C217.405 17.9124 217.649 18.5153 217.725 19.1499H221.515C221.515 18.871 221.457 18.6003 221.408 18.3295C221.18 16.8804 220.43 15.5645 219.3 14.6297C218.203 13.7398 216.904 13.134 215.518 12.8659C215.341 12.8493 215.177 12.7631 215.064 12.6262C214.95 12.4894 214.895 12.313 214.911 12.1358C214.911 11.4959 214.911 10.8642 214.911 10.2325V9.60904H211.482V12.2752C211.483 12.3702 211.451 12.4627 211.391 12.5363C211.331 12.6098 211.247 12.6598 211.154 12.6772H211.055H210.899L210.169 12.8413C209.654 12.9389 209.146 13.0761 208.651 13.2515C207.791 13.556 207.009 14.0471 206.361 14.6896C205.712 15.3321 205.214 16.1101 204.902 16.9677C204.468 18.163 204.377 19.4561 204.64 20.7004C204.798 21.7026 205.273 22.628 205.993 23.342C206.687 24.0039 207.532 24.4856 208.455 24.7448C209.078 24.9499 209.71 25.1304 210.35 25.3109L211.17 25.5406C211.255 25.5654 211.33 25.6172 211.383 25.6882C211.437 25.7592 211.465 25.8456 211.465 25.9344V32.1035C211.466 32.1652 211.452 32.2262 211.425 32.2817C211.398 32.3372 211.358 32.3857 211.309 32.4235C211.259 32.4631 211.2 32.4904 211.138 32.5032C211.075 32.516 211.01 32.514 210.949 32.4973C210.18 32.3088 209.486 31.8935 208.956 31.3054C208.427 30.7173 208.086 29.9835 207.979 29.1994H204.213C204.249 30.3652 204.601 31.4994 205.231 32.4809C206.087 33.7505 207.347 34.693 208.807 35.1553C209.332 35.3358 209.866 35.4752 210.448 35.6229L211.268 35.828C211.354 35.8528 211.428 35.9047 211.482 35.9757C211.535 36.0467 211.564 36.133 211.564 36.2218L211.539 38.1332ZM215.395 32.6121C215.298 32.6134 215.204 32.5783 215.132 32.5137C215.088 32.4746 215.052 32.4267 215.026 32.3731C215.001 32.3195 214.987 32.2613 214.985 32.202V26.845C214.985 26.7764 215.003 26.709 215.036 26.649C215.07 26.589 215.117 26.5383 215.175 26.5016C215.233 26.4649 215.299 26.4432 215.368 26.4387C215.436 26.4342 215.505 26.447 215.567 26.4758L216.141 26.7219C216.569 26.8871 216.983 27.0845 217.38 27.3126C217.717 27.5161 217.998 27.799 218.2 28.1365C218.401 28.4741 218.517 28.8559 218.537 29.2486C218.571 29.7083 218.499 30.1697 218.325 30.5966C218.152 31.0236 217.882 31.4046 217.536 31.7097C216.941 32.1992 216.223 32.5169 215.461 32.6286L215.395 32.6121ZM215.805 27.4684V31.6605C216.247 31.5366 216.658 31.3214 217.011 31.0288C217.253 30.8079 217.442 30.5354 217.564 30.2315C217.686 29.9276 217.738 29.6001 217.717 29.2732C217.705 29.0123 217.63 28.7581 217.497 28.5334C217.364 28.3087 217.177 28.1204 216.954 27.9853C216.589 27.7815 216.211 27.6034 215.821 27.452L215.805 27.4684ZM211.113 21.8161C211.061 21.827 211.008 21.827 210.957 21.8161L210.481 21.6274C210.12 21.488 209.784 21.3567 209.447 21.1926C209.071 20.9985 208.752 20.7079 208.524 20.3504C208.297 19.993 208.168 19.5816 208.151 19.1581C208.115 18.6953 208.198 18.231 208.394 17.8099C208.589 17.3889 208.89 17.0253 209.267 16.7544C209.626 16.5224 210.005 16.322 210.399 16.1556L210.932 15.9013C210.994 15.8681 211.064 15.8519 211.135 15.8543C211.206 15.8568 211.274 15.8778 211.334 15.9152C211.394 15.9526 211.443 16.0051 211.476 16.0675C211.509 16.1299 211.525 16.1999 211.523 16.2704V21.4387C211.524 21.5055 211.508 21.5714 211.476 21.6302C211.444 21.6891 211.398 21.7389 211.342 21.7751C211.272 21.8122 211.192 21.8265 211.113 21.8161ZM210.702 16.8939C210.364 17.0395 210.037 17.2123 209.726 17.4107C209.474 17.6003 209.274 17.8495 209.142 18.1359C209.01 18.4223 208.952 18.7369 208.971 19.0515C208.977 19.3282 209.056 19.5985 209.2 19.8348C209.344 20.0711 209.548 20.2651 209.792 20.3969C210.078 20.5402 210.371 20.6689 210.67 20.7824L210.702 16.8939Z" fill="#231F20"/>
<path d="M158.527 3.41535C158.527 3.41535 184.598 2.12737 189.873 19.3551V53.8105C189.873 53.8105 169.618 37.8298 158.527 43.1457V3.41535Z" fill="#D1D3D4"/>
<path d="M189.873 54.1549C189.781 54.1537 189.691 54.122 189.619 54.0647C189.414 53.9088 169.421 38.3054 158.707 43.4819C158.648 43.5165 158.58 43.5347 158.511 43.5347C158.441 43.5347 158.374 43.5165 158.314 43.4819C158.254 43.444 158.205 43.3919 158.171 43.3303C158.137 43.2688 158.118 43.1997 158.117 43.1292V3.41517C158.117 3.30917 158.158 3.20725 158.231 3.13078C158.305 3.05431 158.405 3.00923 158.511 3.00499C158.773 3.00499 184.967 1.89749 190.267 19.199C190.271 19.24 190.271 19.2812 190.267 19.3221V53.7775C190.267 53.8544 190.246 53.9298 190.205 53.9951C190.164 54.0603 190.106 54.1129 190.037 54.1467C189.983 54.1588 189.928 54.1615 189.873 54.1549ZM163.81 41.5951C167.855 41.5951 172.785 43.0881 178.577 46.0579C182.39 48.0557 186.041 50.3488 189.496 52.9161V19.3549C184.689 3.84997 162.219 3.71871 158.97 3.76793V42.4401C160.513 41.8476 162.157 41.5606 163.81 41.5951Z" fill="#231F20"/>
<path d="M184.598 43.6049C184.504 43.6049 184.412 43.5723 184.339 43.5125C184.266 43.4527 184.215 43.3694 184.196 43.2768C182.695 35.9591 179.75 25.5732 177.912 25.4009C176.944 25.3025 176.411 27.6487 175.943 29.7161C175.41 32.0541 174.91 34.2691 173.614 34.7777C173.306 34.8811 172.977 34.9037 172.658 34.8433C172.339 34.783 172.041 34.6418 171.792 34.4332C167.748 31.7178 163.49 14.5475 163.31 13.8174C163.285 13.7108 163.303 13.5988 163.359 13.5052C163.416 13.4117 163.507 13.3441 163.613 13.3169C163.719 13.2923 163.83 13.3103 163.922 13.3672C164.014 13.4241 164.08 13.5151 164.106 13.6205C164.155 13.7927 168.462 31.2174 172.244 33.7523C172.388 33.8806 172.561 33.9723 172.748 34.0194C172.935 34.0666 173.131 34.0678 173.318 34.023C174.204 33.662 174.705 31.4717 175.139 29.5356C175.738 26.9022 176.288 24.4165 177.986 24.6134C181.104 24.9087 184.377 40.1019 185 43.1455C185.011 43.1983 185.011 43.2527 185.001 43.3056C184.991 43.3585 184.97 43.4088 184.941 43.4538C184.911 43.4987 184.873 43.5374 184.828 43.5675C184.783 43.5977 184.733 43.6187 184.68 43.6295L184.598 43.6049Z" fill="#231F20"/>
<path d="M189.873 19.355C189.873 19.355 188.085 33.3997 179.34 36.4104V66.9363C179.34 66.9363 185.903 63.9666 189.873 53.8104V19.355Z" fill="white"/>
<path d="M179.34 67.3218C179.231 67.3218 179.127 67.2786 179.05 67.2017C178.973 67.1248 178.93 67.0204 178.93 66.9116V36.3776C178.931 36.2926 178.959 36.2101 179.009 36.1413C179.059 36.0724 179.128 36.0203 179.208 35.992C187.609 33.0961 189.447 19.4042 189.463 19.2729C189.467 19.2204 189.482 19.1692 189.506 19.1224C189.53 19.0756 189.564 19.0341 189.604 19.0005C189.645 18.9668 189.692 18.9416 189.742 18.9264C189.792 18.9112 189.845 18.9063 189.898 18.9119C190.002 18.9201 190.099 18.9666 190.17 19.0425C190.241 19.1183 190.282 19.218 190.283 19.3221V53.7776C190.291 53.8265 190.291 53.8763 190.283 53.9252C186.321 64.1634 179.807 67.1906 179.537 67.3136C179.472 67.3311 179.405 67.3339 179.34 67.3218ZM179.75 36.6647V66.1979C181.391 65.2053 186.313 61.7515 189.463 53.6463V23.2927C188.274 27.7063 185.55 34.4907 179.75 36.6647Z" fill="#231F20"/>
<path d="M175.09 11.1508C175.011 11.1532 174.934 11.1302 174.869 11.0851C173.425 10.1773 171.802 9.59241 170.111 9.37058C170.057 9.36546 170.004 9.34969 169.956 9.32418C169.908 9.29867 169.866 9.26394 169.832 9.22198C169.798 9.18002 169.772 9.13168 169.756 9.07974C169.741 9.0278 169.736 8.97329 169.741 8.91938C169.754 8.81277 169.807 8.715 169.889 8.64629C169.972 8.57758 170.077 8.54318 170.184 8.55022C172.01 8.7835 173.763 9.41351 175.32 10.396C175.41 10.4577 175.473 10.5524 175.495 10.6597C175.516 10.7671 175.495 10.8786 175.435 10.9703C175.396 11.0255 175.344 11.0707 175.284 11.1021C175.224 11.1335 175.158 11.1502 175.09 11.1508Z" fill="#231F20"/>
<path d="M174.754 13.8501C174.673 13.8485 174.594 13.8259 174.524 13.7845C173.591 13.1695 172.558 12.7199 171.472 12.4555C171.419 12.4468 171.367 12.4277 171.32 12.3991C171.274 12.3706 171.234 12.3331 171.202 12.2889C171.17 12.2447 171.147 12.1947 171.134 12.1416C171.121 12.0886 171.119 12.0335 171.128 11.9797C171.137 11.9258 171.156 11.8741 171.184 11.8277C171.213 11.7812 171.25 11.7408 171.294 11.7088C171.339 11.6768 171.389 11.6539 171.442 11.6412C171.495 11.6286 171.55 11.6265 171.604 11.6351C172.804 11.9152 173.945 12.4039 174.975 13.0789C175.067 13.1378 175.131 13.2304 175.154 13.3365C175.177 13.4427 175.157 13.5536 175.098 13.645C175.063 13.7053 175.013 13.7557 174.952 13.7915C174.892 13.8273 174.824 13.8475 174.754 13.8501Z" fill="#231F20"/>
<path d="M145.221 43.0638L149.273 40.4386C150.553 39.6182 152.005 37.1571 153.063 37.272C154.122 37.3868 151.849 40.2991 151.849 40.2991C151.849 40.2991 156.132 37.7724 157.362 37.838C158.593 37.9036 159.003 40.0366 158.642 40.6437C158.281 41.2507 154.745 42.3911 153.367 43.4739C151.516 44.692 149.599 45.8067 147.624 46.8128" fill="white"/>
<path d="M147.608 47.2475C147.517 47.2462 147.429 47.2148 147.358 47.1582C147.287 47.1016 147.237 47.0231 147.216 46.9349C147.194 46.8467 147.202 46.7538 147.239 46.6709C147.276 46.5879 147.339 46.5195 147.419 46.4764C149.369 45.4892 151.261 44.3937 153.088 43.1949C154.079 42.5456 155.131 41.996 156.23 41.5542C156.949 41.2763 157.634 40.9186 158.273 40.4877C158.398 39.9597 158.322 39.404 158.059 38.929C157.999 38.7726 157.9 38.6344 157.77 38.528C157.641 38.4216 157.486 38.3506 157.321 38.3219C156.501 38.2645 153.646 39.774 152.03 40.7256C151.947 40.7743 151.851 40.7927 151.757 40.7777C151.662 40.7628 151.576 40.7153 151.513 40.6436C151.453 40.5692 151.42 40.4766 151.42 40.3811C151.42 40.2856 151.453 40.1929 151.513 40.1186C152.12 39.4197 152.596 38.6164 152.916 37.7477C152.481 37.8051 151.759 38.5681 151.168 39.2654C150.688 39.8605 150.137 40.395 149.528 40.8569L145.475 43.4821L145.032 42.7929C145.032 42.7929 147.805 40.9881 149.085 40.1678C149.644 39.7458 150.151 39.2583 150.594 38.7157C151.472 37.7395 152.309 36.8207 153.145 36.9355C153.272 36.9458 153.394 36.9911 153.497 37.0664C153.6 37.1417 153.68 37.2441 153.728 37.3621C153.801 38.0007 153.621 38.6426 153.227 39.1505C154.597 38.4204 156.509 37.5098 157.329 37.5098H157.387C157.697 37.54 157.994 37.6535 158.245 37.8383C158.496 38.0231 158.693 38.2725 158.814 38.5599C159.019 38.9182 159.141 39.318 159.171 39.7298C159.201 40.1416 159.138 40.5548 158.986 40.9389C158.74 41.3245 157.994 41.669 156.599 42.3089C155.558 42.7336 154.561 43.2583 153.621 43.8758C151.755 45.1144 149.819 46.2429 147.821 47.2558C147.751 47.2736 147.677 47.2707 147.608 47.2475Z" fill="#231F20"/>
<path d="M148.863 26.4508C150.199 25.7345 151.61 25.1704 153.072 24.769C154.712 24.4408 156.804 24.326 156.427 23.5959C156.05 22.8657 152.161 23.3744 152.145 23.3826C153.925 23.1447 155.607 17.7138 156.14 16.393C156.238 16.1826 156.285 15.9523 156.279 15.7203C156.27 15.6047 156.219 15.4963 156.136 15.415C156.053 15.3337 155.944 15.2848 155.828 15.2773C155.669 15.3035 155.523 15.3848 155.418 15.507C152.432 18.2553 149.757 21.102 146.64 23.7107C146.328 24.0225 148.863 26.4508 148.863 26.4508Z" fill="white"/>
<path d="M148.863 26.8611C148.756 26.8601 148.654 26.8191 148.576 26.7463C146.197 24.4575 146.197 23.9652 146.205 23.8012C146.214 23.6664 146.269 23.5388 146.361 23.4402C148.272 21.7995 150.053 20.0931 151.767 18.4196C152.858 17.3613 153.982 16.2702 155.139 15.2037C155.313 15.0154 155.549 14.896 155.803 14.8674C156.028 14.8628 156.245 14.946 156.409 15.0992C156.573 15.2525 156.671 15.4636 156.681 15.6877C156.707 15.9898 156.65 16.2931 156.517 16.5655C156.443 16.7542 156.345 17.0167 156.23 17.3367C155.475 19.4286 154.589 21.619 153.621 22.8413C155.098 22.7429 156.484 22.8413 156.796 23.432C156.849 23.5349 156.876 23.6487 156.876 23.7642C156.876 23.8798 156.849 23.9936 156.796 24.0965C156.525 24.6133 155.689 24.7774 154.228 25.0071L153.137 25.1958C151.714 25.5911 150.339 26.1413 149.035 26.8365C148.981 26.858 148.922 26.8665 148.863 26.8611ZM147.083 23.8996C147.643 24.6335 148.263 25.3195 148.937 25.9505C150.223 25.269 151.582 24.7377 152.99 24.3672C153.359 24.2934 153.744 24.236 154.113 24.1703C154.759 24.1008 155.395 23.9577 156.008 23.7437C154.746 23.5456 153.46 23.5594 152.202 23.7848C152.093 23.8 151.983 23.7714 151.895 23.7052C151.807 23.6391 151.75 23.5408 151.734 23.432C151.719 23.3232 151.748 23.2128 151.814 23.1251C151.88 23.0374 151.978 22.9796 152.087 22.9644C153.367 22.7921 154.885 18.6082 155.459 17.0249C155.582 16.6968 155.68 16.4179 155.754 16.2046C155.828 16.0598 155.868 15.8996 155.869 15.737C155.868 15.7192 155.863 15.702 155.854 15.6864C155.846 15.6709 155.834 15.6573 155.82 15.6467C155.784 15.6948 155.742 15.7389 155.697 15.778C154.548 16.8362 153.424 17.9273 152.341 18.9774C150.668 20.6345 148.937 22.3163 147.083 23.8996Z" fill="#231F20"/>
<path d="M121.102 27.9772C121.102 27.9772 134.72 31.6442 136.886 31.3653L146.189 23.1616L150.619 26.8861C150.619 26.8861 147.181 34.1381 143.178 38.0923C139.175 42.0465 116.377 40.2007 116.377 40.2007L121.102 27.9772Z" fill="white"/>
<path d="M127.583 41.0538C121.84 41.0538 116.779 40.6518 116.344 40.619C116.28 40.615 116.219 40.5958 116.165 40.5629C116.111 40.5301 116.065 40.4846 116.032 40.4304C116.004 40.3729 115.989 40.3098 115.989 40.2458C115.989 40.1818 116.004 40.1186 116.032 40.0612L120.757 27.8295C120.794 27.7348 120.865 27.6571 120.956 27.6117C121.047 27.5662 121.152 27.5561 121.25 27.5834C124.859 28.5514 134.375 30.9715 136.631 30.9715H136.755L145.959 22.8663C146.033 22.8011 146.127 22.7651 146.226 22.7651C146.324 22.7651 146.419 22.8011 146.492 22.8663L150.922 26.5907C150.992 26.6493 151.041 26.7294 151.06 26.8186C151.079 26.9077 151.068 27.0007 151.029 27.083C150.889 27.3783 147.518 34.4663 143.506 38.404C141.299 40.537 134.047 41.0538 127.583 41.0538ZM116.959 39.8643C120.446 40.1104 139.404 41.2835 142.891 37.838C146.377 34.3924 149.454 28.4038 150.11 27.0255L146.197 23.7441L137.173 31.7098C137.11 31.7638 137.033 31.798 136.951 31.8083C134.9 32.0708 123.579 29.0929 121.364 28.5268L116.959 39.8643Z" fill="#231F20"/>
<path d="M141.357 111.745C141.357 111.745 138.535 114.395 138.723 115.847C138.912 117.299 147.345 126.782 148.363 125.855C149.38 124.928 146.591 116.831 146.591 116.831L141.357 111.745Z" fill="#231F20"/>
<path d="M148.174 126.306C148.036 126.303 147.9 126.275 147.772 126.224C145.656 125.453 138.518 117.307 138.321 115.871C138.108 114.288 140.783 111.728 141.078 111.449C141.154 111.377 141.255 111.336 141.361 111.336C141.466 111.336 141.568 111.377 141.644 111.449L146.861 116.486C146.909 116.529 146.945 116.583 146.968 116.642C147.829 119.169 149.725 125.141 148.609 126.134C148.491 126.245 148.336 126.306 148.174 126.306ZM141.357 112.311C140.34 113.328 139.019 114.952 139.134 115.764C139.33 117.225 146.796 125.272 148.117 125.486C148.453 124.838 147.616 121.048 146.23 117.003L141.357 112.311Z" fill="#231F20"/>
<path d="M145.5 104.969L141.357 111.745L146.591 116.782L151.931 108.915L145.5 104.969Z" fill="white"/>
<path d="M146.591 117.192C146.484 117.193 146.381 117.151 146.304 117.077L141.07 112.056C141.004 111.991 140.962 111.905 140.95 111.813C140.938 111.721 140.957 111.628 141.004 111.548L145.106 104.772C145.133 104.724 145.169 104.683 145.213 104.651C145.257 104.618 145.307 104.595 145.36 104.583C145.413 104.57 145.467 104.568 145.521 104.576C145.574 104.585 145.626 104.604 145.672 104.632L152.104 108.578C152.151 108.607 152.192 108.645 152.225 108.69C152.257 108.735 152.28 108.786 152.292 108.841C152.304 108.896 152.305 108.952 152.293 109.008C152.282 109.063 152.259 109.115 152.227 109.161L146.927 116.979C146.893 117.027 146.85 117.068 146.799 117.098C146.748 117.128 146.691 117.146 146.632 117.151L146.591 117.192ZM141.882 111.679L146.525 116.142L151.349 109.037L145.606 105.526L141.882 111.679Z" fill="#231F20"/>
<path d="M133.358 62.3506C133.358 62.3506 156.689 71.3747 160.955 75.8293C165.221 80.2839 158.191 107.487 151.841 111.884L143.408 106.043C143.408 106.043 150.791 85.4276 149.257 83.4669C147.723 81.5062 128.149 76.5184 128.149 76.5184L116.934 60.3735L133.358 62.3506Z" fill="#231F20"/>
<path d="M151.841 112.294C151.759 112.295 151.678 112.269 151.611 112.22L143.178 106.379C143.104 106.327 143.049 106.253 143.021 106.167C142.993 106.082 142.993 105.989 143.022 105.903C146.624 95.8786 149.815 84.8365 148.937 83.7536C147.854 82.3918 135.852 78.938 128.05 76.9445C127.954 76.9205 127.869 76.8622 127.813 76.7805L116.598 60.6602C116.553 60.5953 116.528 60.5189 116.526 60.4401C116.524 60.3613 116.544 60.2836 116.585 60.2161C116.625 60.1486 116.685 60.0942 116.755 60.0595C116.826 60.0248 116.905 60.0112 116.984 60.0204L133.391 61.9728H133.489C134.449 62.342 156.96 71.1117 161.226 75.5499C162.867 77.1906 162.785 81.4319 162.465 84.6806C161.472 94.5742 156.616 109.07 152.054 112.229C151.991 112.271 151.917 112.294 151.841 112.294ZM143.9 105.887L151.833 111.384C156.156 108.028 160.709 94.1558 161.677 84.5904C162.112 80.2506 161.751 77.207 160.668 76.1077C156.607 71.8911 134.458 63.2116 133.268 62.744L117.796 60.9063L128.411 76.157C131.012 76.8215 148.026 81.2433 149.585 83.2121C149.856 83.5649 150.898 86.3295 143.9 105.887Z" fill="#231F20"/>
<path d="M123.76 121.564L122.193 128.086L128.206 131.926L130.774 122.975L123.76 121.564Z" fill="white"/>
<path d="M128.206 132.327C128.129 132.329 128.052 132.309 127.985 132.27L121.971 128.463C121.9 128.417 121.846 128.349 121.815 128.269C121.784 128.19 121.778 128.103 121.799 128.021L123.366 121.499C123.377 121.447 123.398 121.398 123.427 121.355C123.457 121.312 123.496 121.275 123.54 121.246C123.584 121.218 123.634 121.199 123.686 121.19C123.738 121.181 123.791 121.183 123.842 121.195L130.856 122.606C130.913 122.615 130.966 122.637 131.013 122.669C131.06 122.702 131.099 122.745 131.127 122.795C131.156 122.844 131.174 122.898 131.181 122.955C131.188 123.011 131.184 123.068 131.168 123.123L128.6 132.065C128.585 132.127 128.554 132.184 128.511 132.231C128.468 132.279 128.414 132.314 128.354 132.336L128.206 132.327ZM122.661 127.897L127.968 131.277L130.257 123.287L124.072 122.04L122.661 127.897Z" fill="#231F20"/>
<path d="M109.043 65.6565C109.043 65.6565 106.819 76.0423 112.603 76.9201C123.005 78.4952 128.272 86.4364 128.329 91.8508C128.42 99.39 121.939 122.647 121.939 122.647L132.604 126.618C132.604 126.618 144.376 96.1906 142.669 87.8474C140.963 79.5043 127.64 60.9312 127.64 60.9312L109.043 65.6565Z" fill="#231F20"/>
<path d="M132.603 127.028C132.554 127.036 132.505 127.036 132.456 127.028L121.791 123.057C121.696 123.021 121.619 122.95 121.573 122.859C121.528 122.768 121.517 122.663 121.545 122.565C121.61 122.336 128.009 99.275 127.927 91.8753C127.829 83.5404 118.69 78.2818 112.537 77.3466C111.933 77.2636 111.354 77.0542 110.836 76.7319C110.319 76.4095 109.875 75.9816 109.535 75.4762C107.27 72.1947 108.583 65.8696 108.64 65.6317C108.657 65.5565 108.694 65.4874 108.747 65.4323C108.801 65.3772 108.869 65.3383 108.944 65.32L127.542 60.5947C127.621 60.574 127.706 60.5778 127.783 60.6056C127.861 60.6334 127.928 60.6839 127.976 60.7506C128.518 61.5135 141.365 79.496 143.071 87.8227C144.778 96.1494 133.465 125.56 132.981 126.823C132.944 126.889 132.888 126.944 132.822 126.98C132.755 127.016 132.679 127.033 132.603 127.028ZM122.431 122.401L132.365 126.101C133.703 122.573 143.851 95.5587 142.267 87.9293C140.684 80.2999 128.994 63.5398 127.501 61.3986L109.453 65.9927C109.239 67.174 108.435 72.3341 110.273 75.0167C110.55 75.4318 110.913 75.7822 111.338 76.0441C111.763 76.306 112.239 76.4733 112.734 76.5344C123.719 78.1752 128.748 86.5101 128.813 91.8671C128.813 98.9305 123.276 119.317 122.431 122.401Z" fill="#231F20"/>
<path d="M114.49 19.5438C109.1 18.0917 110.577 9.56809 111.635 5.53188C111.781 4.66176 112.204 3.86198 112.841 3.25126C113.169 2.96643 113.598 2.82373 114.031 2.85449C114.465 2.88526 114.869 3.08698 115.154 3.41533C115.031 2.28323 116.139 1.39723 117.205 0.954232C119.228 0.162391 121.475 0.162391 123.497 0.954232C124.892 1.52029 126.155 2.4555 127.599 2.72623C129.043 2.99695 130.93 2.24221 131.078 0.749141C131.744 1.43767 132.239 2.2728 132.524 3.18746C132.809 4.10213 132.875 5.07087 132.718 6.0159C132.365 8.07502 131.078 8.99383 129.707 10.29C128.337 11.5862 127.993 13.6125 126.352 14.6872C123.341 16.6315 121.766 19.3551 117.968 19.7407C116.806 19.8863 115.628 19.8196 114.49 19.5438Z" fill="white"/>
<path d="M116.721 20.2164C115.936 20.2262 115.152 20.1324 114.391 19.9374C108.542 18.3705 110.232 9.27265 111.233 5.43333C111.402 4.48167 111.874 3.61 112.578 2.94762C112.826 2.75224 113.111 2.60989 113.416 2.52944C113.72 2.449 114.039 2.43217 114.35 2.48001C114.517 2.51065 114.679 2.56019 114.834 2.62768C115.045 2.15667 115.352 1.73471 115.734 1.38867C116.117 1.04263 116.568 0.780095 117.057 0.617777C119.168 -0.205926 121.51 -0.205926 123.62 0.617777C124.145 0.831073 124.654 1.09359 125.138 1.3479C125.93 1.8061 126.784 2.14865 127.673 2.36516C128.076 2.43833 128.489 2.43106 128.889 2.34376C129.289 2.25647 129.667 2.09087 130.003 1.85653C130.186 1.72943 130.341 1.56515 130.457 1.37435C130.573 1.18354 130.647 0.970493 130.676 0.749036C130.684 0.672212 130.714 0.599317 130.762 0.538746C130.81 0.478174 130.874 0.43239 130.947 0.40667C131.02 0.380951 131.098 0.376341 131.174 0.39337C131.249 0.4104 131.318 0.448376 131.373 0.502926C132.088 1.2368 132.622 2.12808 132.931 3.10536C133.241 4.08264 133.316 5.11874 133.153 6.13065C132.817 8.10773 131.726 9.08397 130.462 10.2325L130.019 10.6427C129.463 11.2043 128.992 11.8458 128.625 12.5459C128.134 13.5215 127.416 14.3654 126.533 15.007C125.643 15.6098 124.796 16.2731 123.998 16.9923C122.291 18.4608 120.716 19.8472 117.968 20.1261C117.554 20.1787 117.138 20.2088 116.721 20.2164ZM113.998 3.25936C113.671 3.25813 113.354 3.36486 113.095 3.5629C112.534 4.12798 112.161 4.85303 112.029 5.63843C111.093 9.23984 109.461 17.7635 114.596 19.1417C115.683 19.4042 116.808 19.4709 117.919 19.3386C120.38 19.0843 121.816 17.8373 123.497 16.3934C124.322 15.6472 125.199 14.9617 126.123 14.3425C126.912 13.7653 127.553 13.009 127.993 12.1357C128.397 11.3635 128.917 10.658 129.535 10.0438L129.986 9.63362C131.184 8.55073 132.136 7.69755 132.448 6.00759C132.559 5.2373 132.512 4.45249 132.31 3.70083C132.108 2.94917 131.756 2.24634 131.274 1.63503C131.094 1.98876 130.832 2.29506 130.512 2.52923C130.085 2.83005 129.602 3.04299 129.093 3.15566C128.583 3.26833 128.056 3.27849 127.542 3.18553C126.578 2.97197 125.652 2.61525 124.794 2.12725C124.326 1.88935 123.834 1.63503 123.35 1.43814C121.422 0.681343 119.28 0.681343 117.353 1.43814C116.393 1.81551 115.466 2.57846 115.564 3.44805C115.575 3.54048 115.554 3.63388 115.505 3.71289C115.456 3.7919 115.381 3.85183 115.294 3.88284C115.205 3.91203 115.11 3.91095 115.022 3.87974C114.934 3.84854 114.86 3.78901 114.81 3.71056C114.743 3.61099 114.656 3.52708 114.554 3.46473C114.452 3.40238 114.338 3.36309 114.219 3.3496C114.149 3.31085 114.075 3.28055 113.998 3.25936Z" fill="#231F20"/>
<path d="M127.78 15.2529C127.78 15.2529 129.371 19.2645 128.731 19.8962C128.091 20.5279 126.598 19.6993 126.598 19.6993" fill="white"/>
<path d="M128.059 20.5196C127.483 20.481 126.922 20.3157 126.418 20.0356C126.37 20.0097 126.329 19.9748 126.295 19.9328C126.261 19.8907 126.235 19.8424 126.22 19.7906C126.205 19.7388 126.2 19.6846 126.206 19.6309C126.212 19.5772 126.228 19.5251 126.254 19.4777C126.28 19.4303 126.314 19.3885 126.357 19.3546C126.399 19.3207 126.447 19.2954 126.499 19.2802C126.55 19.2649 126.605 19.2601 126.658 19.2658C126.712 19.2715 126.764 19.2878 126.812 19.3137C127.312 19.5926 128.182 19.8633 128.452 19.5762C128.723 19.2891 128.165 17.2874 127.41 15.3759C127.389 15.3259 127.378 15.2722 127.379 15.218C127.379 15.1637 127.39 15.1101 127.411 15.0603C127.433 15.0104 127.464 14.9655 127.504 14.9281C127.543 14.8907 127.589 14.8616 127.64 14.8427C127.69 14.8227 127.744 14.8128 127.798 14.8135C127.852 14.8142 127.905 14.8256 127.954 14.8469C128.004 14.8683 128.049 14.8992 128.086 14.9379C128.124 14.9765 128.153 15.0222 128.173 15.0724C128.797 16.6639 129.748 19.4449 128.994 20.1587C128.742 20.398 128.406 20.5278 128.059 20.5196Z" fill="#231F20"/>
<path d="M128.264 10.4622C129.494 11.9881 128.526 14.4492 128.157 16.1145C127.648 18.4525 127.082 20.7824 126.467 23.0876C126.073 24.5561 122.226 23.7767 121.635 23.1943L120.962 28.1739C120.962 28.1739 119.486 30.7006 116.688 28.6087C113.891 26.5168 113.587 24.3838 113.587 24.3838L115.228 17.6732C115.228 17.6732 117.771 18.2228 119.904 15.5156C122.037 12.8084 122.964 8.13232 122.964 8.13232C122.964 8.13232 127.066 8.97731 128.264 10.4622Z" fill="white"/>
<path d="M118.797 29.8476C117.934 29.8083 117.107 29.4886 116.442 28.937C113.546 26.7712 113.161 24.5398 113.161 24.4414C113.149 24.3901 113.149 24.3367 113.161 24.2855L114.867 17.5667C114.892 17.4635 114.958 17.3745 115.048 17.3192C115.139 17.2638 115.248 17.2466 115.351 17.2714C115.441 17.2714 117.673 17.7226 119.617 15.2615C121.668 12.6609 122.579 8.10786 122.595 8.06684C122.604 8.01344 122.624 7.96248 122.653 7.91725C122.683 7.87202 122.722 7.83355 122.767 7.80432C122.812 7.77521 122.861 7.75514 122.913 7.74529C122.965 7.73543 123.019 7.73598 123.071 7.7469C123.243 7.7469 127.304 8.61649 128.584 10.208C129.732 11.6354 129.207 13.6782 128.781 15.3189C128.699 15.6306 128.625 15.9342 128.559 16.2131C128.05 18.5511 127.476 20.8974 126.861 23.2026C126.782 23.4669 126.63 23.7034 126.423 23.8849C126.215 24.0664 125.96 24.1854 125.688 24.2281C124.436 24.4471 123.148 24.3195 121.963 23.8589L121.364 28.2397C121.357 28.294 121.34 28.3467 121.315 28.3955C120.869 29.1058 120.162 29.6125 119.346 29.8066C119.165 29.8368 118.981 29.8506 118.797 29.8476ZM114.047 24.4004C114.547 25.9926 115.581 27.3632 116.975 28.2807C117.279 28.5507 117.636 28.7538 118.023 28.8767C118.411 28.9997 118.82 29.0398 119.223 28.9944C119.784 28.8477 120.275 28.5078 120.61 28.0346L121.274 23.1124C121.286 23.0372 121.318 22.9667 121.367 22.9088C121.416 22.8508 121.481 22.8077 121.553 22.7842C121.625 22.7594 121.703 22.7554 121.777 22.7728C121.851 22.7903 121.918 22.8284 121.972 22.8827C123.069 23.4245 124.309 23.6054 125.515 23.3995C125.852 23.3093 126.057 23.1616 126.114 22.9647C126.721 20.6677 127.287 18.3296 127.804 15.9998C127.862 15.7127 127.944 15.4091 128.026 15.081C128.403 13.6207 128.846 11.7995 127.985 10.692C127.164 9.68297 124.646 8.92002 123.35 8.60828C123.071 9.83063 122.127 13.432 120.298 15.7455C119.776 16.4971 119.073 17.1058 118.255 17.5157C117.437 17.9256 116.528 18.1236 115.614 18.0917L114.047 24.4004Z" fill="#231F20"/>
<path d="M126.779 21.3322C126.519 21.4381 126.24 21.4867 125.96 21.4746C125.681 21.4626 125.407 21.3902 125.157 21.2624C124.908 21.1347 124.689 20.9545 124.516 20.7344C124.343 20.5142 124.219 20.2592 124.154 19.9868" fill="white"/>
<path d="M125.975 21.865C125.599 21.8704 125.228 21.7861 124.892 21.6188C124.605 21.46 124.356 21.2416 124.161 20.9784C123.965 20.7153 123.829 20.4133 123.76 20.093C123.732 19.9885 123.747 19.8774 123.801 19.7837C123.854 19.69 123.943 19.6213 124.047 19.5925C124.152 19.5646 124.265 19.579 124.36 19.6327C124.455 19.6863 124.525 19.7749 124.556 19.8797C124.595 20.0894 124.679 20.2883 124.802 20.4625C124.925 20.6366 125.084 20.7821 125.269 20.8887C125.704 21.0721 126.191 21.0925 126.639 20.9461C126.743 20.9118 126.855 20.9192 126.953 20.9667C127.051 21.0142 127.127 21.0981 127.164 21.2005C127.182 21.2505 127.191 21.3037 127.188 21.3569C127.185 21.4101 127.172 21.4623 127.149 21.5103C127.126 21.5584 127.094 21.6015 127.055 21.637C127.015 21.6725 126.969 21.6998 126.918 21.7173C126.613 21.8139 126.295 21.8637 125.975 21.865Z" fill="#231F20"/>
<path d="M122.972 15.7783C123.032 15.1808 122.924 14.5785 122.661 14.0391C122.51 13.5955 122.298 13.1756 122.029 12.7921C121.892 12.6035 121.715 12.4475 121.511 12.3354C121.307 12.2233 121.08 12.158 120.848 12.144C120.642 12.1524 120.441 12.2042 120.257 12.2961C120.073 12.3881 119.911 12.518 119.781 12.6773C119.519 12.9975 119.334 13.3736 119.24 13.7766C119.021 14.6466 119.033 15.5589 119.277 16.4225C119.52 17.2861 119.985 18.0709 120.626 18.6988L120.519 18.5265" fill="white"/>
<path d="M120.61 19.1336C120.503 19.1326 120.401 19.0916 120.323 19.0187C119.63 18.3343 119.127 17.4808 118.866 16.5427C118.604 15.6046 118.591 14.6143 118.829 13.67C118.939 13.2071 119.152 12.7751 119.453 12.4066C119.622 12.203 119.832 12.0378 120.07 11.9218C120.307 11.8058 120.567 11.7417 120.831 11.7339C121.127 11.7483 121.416 11.8296 121.676 11.9717C121.936 12.1138 122.16 12.313 122.332 12.5543C122.628 12.9676 122.858 13.4242 123.013 13.9079C123.308 14.5195 123.425 15.2019 123.35 15.8767C123.329 15.9855 123.266 16.0817 123.174 16.144C123.083 16.2063 122.97 16.2297 122.862 16.209C122.753 16.1883 122.657 16.1253 122.594 16.0337C122.532 15.9422 122.509 15.8297 122.529 15.7209C122.573 15.1948 122.47 14.6669 122.234 14.195C122.1 13.7925 121.91 13.4112 121.668 13.0629C121.57 12.9221 121.442 12.8049 121.293 12.7197C121.144 12.6346 120.978 12.5837 120.807 12.5707C120.66 12.5795 120.517 12.6191 120.387 12.6869C120.257 12.7548 120.143 12.8494 120.052 12.9644C119.829 13.236 119.675 13.5566 119.601 13.8997C119.41 14.6424 119.403 15.4204 119.58 16.1665C119.757 16.9126 120.114 17.6043 120.618 18.182C120.707 18.2126 120.782 18.2736 120.831 18.3543L120.93 18.5265C120.967 18.5883 120.988 18.6589 120.989 18.7312C120.991 18.8035 120.973 18.875 120.938 18.9383C120.903 19.0016 120.852 19.0545 120.79 19.0917C120.728 19.1289 120.657 19.149 120.585 19.15L120.61 19.1336Z" fill="#231F20"/>
<path d="M121.635 23.1938C120.569 22.5846 119.701 21.682 119.133 20.5933C119.133 20.5933 118.518 24.1865 121.356 25.86L121.635 23.1938Z" fill="#231F20"/>
<path d="M121.356 26.2704C121.284 26.2728 121.212 26.2528 121.151 26.213C118.099 24.4164 118.69 20.6837 118.731 20.5278C118.747 20.4398 118.791 20.3591 118.856 20.2973C118.921 20.2354 119.003 20.1955 119.092 20.1833C119.181 20.1732 119.271 20.1926 119.348 20.2385C119.425 20.2845 119.485 20.3544 119.519 20.4376C120.048 21.4415 120.853 22.2727 121.84 22.833C121.909 22.8734 121.965 22.9328 122.002 23.004C122.038 23.0753 122.053 23.1554 122.045 23.235L121.766 25.9176C121.759 25.9872 121.733 26.0537 121.693 26.111C121.653 26.1683 121.599 26.2147 121.537 26.2458C121.479 26.2664 121.417 26.2748 121.356 26.2704ZM119.502 21.9471C119.533 22.5466 119.683 23.134 119.944 23.6749C120.205 24.2157 120.57 24.6993 121.02 25.0973L121.2 23.3745C120.57 22.9808 119.998 22.5003 119.502 21.9471Z" fill="#231F20"/>
<path d="M127.11 13.4596C127.283 13.0212 127.283 12.6106 127.11 12.5425C126.937 12.4744 126.657 12.7746 126.484 13.213C126.312 13.6514 126.312 14.062 126.484 14.1301C126.657 14.1982 126.937 13.898 127.11 13.4596Z" fill="#231F20"/>
<path d="M111.241 22.2755C111.241 22.2755 119.855 23.7439 122.726 28.8384C125.598 33.9329 126.262 52.063 127.821 53.4494C129.379 54.8359 133.407 62.0141 133.317 62.3422C133.227 62.6704 107.508 67.5187 107.508 67.5187C107.508 67.5187 106.754 61.6367 104.932 53.9006C103.111 46.1646 103.964 21.9145 111.241 22.2755Z" fill="white"/>
<path d="M107.549 67.937C107.464 67.9377 107.381 67.9119 107.311 67.8632C107.266 67.8306 107.228 67.789 107.2 67.741C107.172 67.6929 107.154 67.6396 107.147 67.5842C107.147 67.5268 106.327 61.6202 104.571 53.999C103.128 47.8544 103.193 29.2321 107.943 23.5305C108.323 23.009 108.824 22.5874 109.403 22.3017C109.981 22.0159 110.62 21.8746 111.266 21.8898H111.315C111.676 21.9472 120.15 23.4403 123.12 28.6332C124.761 31.5537 125.696 38.3874 126.483 44.4171C126.992 48.281 127.566 52.6207 128.124 53.1704C129.47 54.3845 133.932 61.776 133.744 62.4734C133.653 62.8015 133.588 63.0476 107.615 67.9534L107.549 67.937ZM111.077 22.6855C110.589 22.711 110.114 22.8477 109.687 23.0851C109.261 23.3226 108.894 23.6546 108.616 24.0556C104.342 29.1829 103.849 47.1571 105.408 53.8103C106.942 60.2994 107.73 65.5497 107.943 67.051C117.197 65.2954 130.569 62.7031 132.882 62.1288C132.218 60.6768 128.977 55.0244 127.624 53.7939C126.869 53.1048 126.426 49.9874 125.712 44.5401C124.966 38.8796 124.072 31.8326 122.431 29.0516C119.732 24.3345 111.717 22.8086 111.225 22.7184L111.077 22.6855Z" fill="#231F20"/>
<path d="M122.464 28.3379L121.783 30.8154L122.784 31.1846L123.054 48.6584L126.697 51.866L128.305 46.427L123.571 31.2502L124.277 30.4216L122.464 28.3379Z" fill="#231F20"/>
<path d="M117.418 30.3975C117.591 30.6764 125.474 47.4939 125.474 47.4939L146.098 40.5126L150.2 46.5833C150.2 46.5833 132.267 56.9528 125.589 58.29C118.911 59.6272 107.016 34.9423 107.484 32.4812" fill="white"/>
<path d="M125.089 58.7326C123.645 58.7326 121.955 57.7727 120.052 55.8695C114.047 49.848 106.663 34.5973 107.115 32.3659C107.138 32.2604 107.202 32.1681 107.292 32.1085C107.382 32.0488 107.492 32.0264 107.599 32.046C107.651 32.0568 107.702 32.0778 107.746 32.108C107.791 32.1381 107.829 32.1768 107.859 32.2217C107.889 32.2667 107.909 32.317 107.919 32.3699C107.93 32.4228 107.929 32.4772 107.919 32.53C107.566 34.2692 114.481 49.1343 120.634 55.3116C122.603 57.2805 124.252 58.1419 125.556 57.8876C131.52 56.6898 146.993 47.9447 149.618 46.4024L145.951 40.9634L125.63 47.8381C125.534 47.8702 125.429 47.8663 125.336 47.8271C125.242 47.7879 125.166 47.716 125.122 47.6248C122.964 43.0143 117.312 30.9713 117.09 30.5693C117.039 30.4752 117.025 30.3647 117.052 30.2609C117.08 30.157 117.146 30.0677 117.238 30.0115C117.33 29.9562 117.439 29.939 117.544 29.9635C117.648 29.9881 117.738 30.0524 117.796 30.1428C117.96 30.4135 124.104 43.5065 125.712 46.9439L145.992 40.0856C146.077 40.0582 146.169 40.0594 146.253 40.089C146.338 40.1187 146.41 40.1751 146.459 40.2497L150.561 46.3122C150.593 46.3586 150.614 46.411 150.624 46.4661C150.634 46.5212 150.632 46.5777 150.619 46.6321C150.608 46.6868 150.585 46.7384 150.552 46.7837C150.52 46.8289 150.478 46.8667 150.43 46.8947C149.692 47.3212 132.382 57.3133 125.737 58.6505C125.525 58.7015 125.307 58.729 125.089 58.7326Z" fill="#231F20"/>
<path d="M126.032 58.4129C121.594 58.4129 117.271 54.3685 113.161 46.3699C113.135 46.3222 113.12 46.2698 113.116 46.216C113.111 46.1622 113.117 46.1081 113.134 46.0568C113.151 46.0055 113.178 45.9581 113.214 45.9174C113.249 45.8768 113.293 45.8438 113.341 45.8203C113.437 45.771 113.548 45.7614 113.651 45.7937C113.754 45.8259 113.84 45.8974 113.891 45.9925C118.034 54.0567 122.308 57.9535 126.606 57.5679C130.905 57.1823 140.257 51.5546 140.348 51.4972C140.393 51.4636 140.446 51.4399 140.501 51.4275C140.556 51.4151 140.614 51.4144 140.67 51.4253C140.725 51.4363 140.778 51.4587 140.825 51.4911C140.871 51.5236 140.911 51.5653 140.94 51.6138C140.97 51.6622 140.989 51.7162 140.997 51.7725C141.005 51.8288 141 51.886 140.985 51.9406C140.969 51.9952 140.942 52.0459 140.906 52.0896C140.87 52.1334 140.825 52.1691 140.774 52.1945C140.389 52.4324 131.242 57.9863 126.68 58.3883L126.032 58.4129Z" fill="#231F20"/>
<path d="M122.193 128.086C122.193 128.086 119.921 133.747 120.077 134.288C120.232 134.83 128.338 148.153 129.699 144.502C131.061 140.851 128.206 131.918 128.206 131.918L122.193 128.086Z" fill="#231F20"/>
<path d="M128.936 145.544H128.887C126.131 145.421 119.863 134.945 119.683 134.396C119.502 133.846 120.757 130.573 121.816 127.931C121.84 127.877 121.875 127.827 121.919 127.787C121.963 127.746 122.014 127.714 122.07 127.693C122.128 127.677 122.188 127.673 122.247 127.681C122.307 127.69 122.364 127.71 122.414 127.742L128.428 131.582C128.508 131.63 128.569 131.706 128.6 131.795C128.715 132.164 131.479 140.901 130.085 144.642C130.02 144.898 129.872 145.125 129.664 145.289C129.456 145.452 129.201 145.542 128.936 145.544ZM122.373 128.694C121.6 130.487 120.961 132.335 120.462 134.223C120.766 134.978 126.844 144.724 128.928 144.724C129.01 144.724 129.166 144.724 129.306 144.355C130.511 141.123 128.198 133.329 127.845 132.189L122.373 128.694Z" fill="#231F20"/>
<path d="M138.748 78.9056C138.677 78.9068 138.607 78.8893 138.545 78.8547C138.483 78.8201 138.431 78.7698 138.395 78.7087L131.373 67.1169C131.333 67.0257 131.328 66.9232 131.359 66.8286C131.389 66.7339 131.453 66.6535 131.538 66.6024C131.624 66.5513 131.725 66.5328 131.822 66.5505C131.92 66.5682 132.008 66.6208 132.07 66.6985L139.093 78.2821C139.122 78.3281 139.142 78.3795 139.151 78.4333C139.16 78.4871 139.157 78.5422 139.144 78.5951C139.131 78.6481 139.108 78.6978 139.075 78.7413C139.042 78.7848 139.001 78.8212 138.953 78.8482C138.892 78.8862 138.82 78.9061 138.748 78.9056Z" fill="white"/>
</svg>
